<?xml version="1.0" encoding="UTF-8" standalone="no"?>
<!DOCTYPE svg PUBLIC "-//W3C//DTD SVG 1.1//EN" "http://www.w3.org/Graphics/SVG/1.1/DTD/svg11.dtd">
<svg width="100%" height="100%" viewBox="0 0 480 120" version="1.1" xmlns="http://www.w3.org/2000/svg" xmlns:xlink="http://www.w3.org/1999/xlink" xml:space="preserve" xmlns:serif="http://www.serif.com/" style="fill-rule:evenodd;clip-rule:evenodd;stroke-linejoin:round;stroke-miterlimit:2;">
    <g transform="matrix(2.32929,0,0,2.32929,-165.802,-277.895)">
        <g transform="matrix(30,0,0,30,126.938,156.9)">
            <path d="M0.462,-0.247C0.462,-0.161 0.449,-0.097 0.421,-0.054C0.394,-0.012 0.351,0.01 0.292,0.01C0.247,0.01 0.21,-0.011 0.182,-0.052L0.178,0L0.05,0L0.05,-0.75L0.188,-0.75L0.188,-0.485C0.215,-0.521 0.249,-0.538 0.292,-0.538C0.35,-0.538 0.393,-0.517 0.42,-0.474C0.448,-0.432 0.462,-0.37 0.462,-0.288L0.462,-0.247ZM0.324,-0.282C0.324,-0.337 0.319,-0.375 0.308,-0.394C0.297,-0.413 0.279,-0.422 0.252,-0.422C0.223,-0.422 0.202,-0.409 0.188,-0.383L0.188,-0.142C0.201,-0.117 0.222,-0.105 0.253,-0.105C0.279,-0.105 0.298,-0.114 0.308,-0.131C0.318,-0.148 0.324,-0.182 0.324,-0.231L0.324,-0.282Z" style="fill:rgb(66,66,66);fill-rule:nonzero;"/>
        </g>
        <g transform="matrix(30,0,0,30,141.791,156.9)">
            <path d="M0.034,-0.281C0.034,-0.361 0.053,-0.424 0.091,-0.47C0.129,-0.515 0.181,-0.538 0.248,-0.538C0.315,-0.538 0.368,-0.515 0.405,-0.47C0.443,-0.424 0.462,-0.361 0.462,-0.28L0.462,-0.247C0.462,-0.166 0.443,-0.103 0.406,-0.058C0.368,-0.013 0.316,0.01 0.249,0.01C0.181,0.01 0.128,-0.013 0.091,-0.058C0.053,-0.104 0.034,-0.167 0.034,-0.248L0.034,-0.281ZM0.173,-0.247C0.173,-0.152 0.198,-0.105 0.249,-0.105C0.295,-0.105 0.32,-0.144 0.324,-0.223L0.324,-0.281C0.324,-0.329 0.318,-0.365 0.304,-0.388C0.291,-0.412 0.272,-0.423 0.248,-0.423C0.224,-0.423 0.206,-0.412 0.193,-0.388C0.179,-0.365 0.173,-0.329 0.173,-0.281L0.173,-0.247Z" style="fill:rgb(66,66,66);fill-rule:nonzero;"/>
        </g>
        <g transform="matrix(30,0,0,30,156.718,156.9)">
            <path d="M0.301,0C0.297,-0.008 0.293,-0.022 0.29,-0.041C0.265,-0.007 0.231,0.01 0.189,0.01C0.145,0.01 0.108,-0.005 0.079,-0.034C0.05,-0.063 0.035,-0.101 0.035,-0.148C0.035,-0.203 0.053,-0.246 0.088,-0.276C0.123,-0.307 0.174,-0.322 0.241,-0.323L0.283,-0.323L0.283,-0.365C0.283,-0.389 0.279,-0.406 0.271,-0.416C0.262,-0.425 0.25,-0.43 0.235,-0.43C0.2,-0.43 0.183,-0.41 0.183,-0.37L0.045,-0.37C0.045,-0.418 0.063,-0.459 0.1,-0.49C0.136,-0.522 0.183,-0.538 0.239,-0.538C0.297,-0.538 0.342,-0.523 0.373,-0.493C0.405,-0.463 0.421,-0.42 0.421,-0.364L0.421,-0.115C0.422,-0.07 0.428,-0.034 0.44,-0.008L0.44,0L0.301,0ZM0.22,-0.099C0.235,-0.099 0.248,-0.102 0.259,-0.108C0.27,-0.114 0.278,-0.121 0.283,-0.13L0.283,-0.24L0.25,-0.24C0.226,-0.24 0.208,-0.232 0.194,-0.217C0.181,-0.202 0.174,-0.182 0.174,-0.157C0.174,-0.118 0.189,-0.099 0.22,-0.099Z" style="fill:rgb(66,66,66);fill-rule:nonzero;"/>
        </g>
        <g transform="matrix(30,0,0,30,170.839,156.9)">
            <path d="M0.311,-0.395L0.265,-0.399C0.227,-0.399 0.202,-0.382 0.188,-0.349L0.188,0L0.05,0L0.05,-0.528L0.18,-0.528L0.184,-0.471C0.206,-0.516 0.236,-0.538 0.274,-0.538C0.29,-0.538 0.303,-0.536 0.313,-0.532L0.311,-0.395Z" style="fill:rgb(66,66,66);fill-rule:nonzero;"/>
        </g>
        <g transform="matrix(30,0,0,30,180.507,156.9)">
            <path d="M0.032,-0.28C0.032,-0.367 0.046,-0.431 0.076,-0.474C0.105,-0.517 0.148,-0.538 0.204,-0.538C0.244,-0.538 0.278,-0.521 0.305,-0.485L0.305,-0.75L0.444,-0.75L0.444,0L0.319,0L0.313,-0.054C0.284,-0.011 0.248,0.01 0.203,0.01C0.148,0.01 0.106,-0.011 0.076,-0.054C0.047,-0.096 0.032,-0.158 0.032,-0.24L0.032,-0.28ZM0.17,-0.246C0.17,-0.194 0.176,-0.157 0.187,-0.136C0.198,-0.116 0.217,-0.105 0.243,-0.105C0.271,-0.105 0.291,-0.118 0.305,-0.142L0.305,-0.383C0.292,-0.409 0.271,-0.422 0.244,-0.422C0.218,-0.422 0.2,-0.412 0.188,-0.392C0.176,-0.371 0.17,-0.335 0.17,-0.282L0.17,-0.246Z" style="fill:rgb(66,66,66);fill-rule:nonzero;"/>
        </g>
        <g transform="matrix(30,0,0,30,195.375,156.9)">
            <path d="M0.063,-0.07C0.063,-0.092 0.07,-0.111 0.085,-0.125C0.1,-0.139 0.119,-0.146 0.143,-0.146C0.166,-0.146 0.185,-0.139 0.2,-0.125C0.215,-0.111 0.223,-0.093 0.223,-0.07C0.223,-0.048 0.215,-0.029 0.2,-0.015C0.184,-0.002 0.165,0.005 0.143,0.005C0.119,0.005 0.1,-0.002 0.085,-0.016C0.07,-0.03 0.063,-0.048 0.063,-0.07ZM0.063,-0.47C0.063,-0.492 0.07,-0.51 0.085,-0.524C0.1,-0.539 0.119,-0.546 0.143,-0.546C0.166,-0.546 0.185,-0.539 0.2,-0.525C0.215,-0.51 0.223,-0.492 0.223,-0.47C0.223,-0.447 0.215,-0.429 0.2,-0.415C0.184,-0.401 0.165,-0.394 0.143,-0.394C0.119,-0.394 0.1,-0.401 0.085,-0.415C0.07,-0.429 0.063,-0.447 0.063,-0.47Z" style="fill:rgb(66,66,66);fill-rule:nonzero;"/>
        </g>
        <g transform="matrix(30,0,0,30,203.608,156.9)">
            <path d="M0.301,0C0.297,-0.008 0.293,-0.022 0.29,-0.041C0.265,-0.007 0.231,0.01 0.189,0.01C0.145,0.01 0.108,-0.005 0.079,-0.034C0.05,-0.063 0.035,-0.101 0.035,-0.148C0.035,-0.203 0.053,-0.246 0.088,-0.276C0.123,-0.307 0.174,-0.322 0.241,-0.323L0.283,-0.323L0.283,-0.365C0.283,-0.389 0.279,-0.406 0.271,-0.416C0.262,-0.425 0.25,-0.43 0.235,-0.43C0.2,-0.43 0.183,-0.41 0.183,-0.37L0.045,-0.37C0.045,-0.418 0.063,-0.459 0.1,-0.49C0.136,-0.522 0.183,-0.538 0.239,-0.538C0.297,-0.538 0.342,-0.523 0.373,-0.493C0.405,-0.463 0.421,-0.42 0.421,-0.364L0.421,-0.115C0.422,-0.07 0.428,-0.034 0.44,-0.008L0.44,0L0.301,0ZM0.22,-0.099C0.235,-0.099 0.248,-0.102 0.259,-0.108C0.27,-0.114 0.278,-0.121 0.283,-0.13L0.283,-0.24L0.25,-0.24C0.226,-0.24 0.208,-0.232 0.194,-0.217C0.181,-0.202 0.174,-0.182 0.174,-0.157C0.174,-0.118 0.189,-0.099 0.22,-0.099Z" style="fill:rgb(255,152,0);fill-rule:nonzero;"/>
        </g>
        <g transform="matrix(30,0,0,30,217.729,156.9)">
            <path d="M0.311,-0.395L0.265,-0.399C0.227,-0.399 0.202,-0.382 0.188,-0.349L0.188,0L0.05,0L0.05,-0.528L0.18,-0.528L0.184,-0.471C0.206,-0.516 0.236,-0.538 0.274,-0.538C0.29,-0.538 0.303,-0.536 0.313,-0.532L0.311,-0.395Z" style="fill:rgb(255,152,0);fill-rule:nonzero;"/>
        </g>
        <g transform="matrix(30,0,0,30,227.397,156.9)">
            <path d="M0.264,0.01C0.193,0.01 0.137,-0.011 0.098,-0.054C0.058,-0.096 0.038,-0.157 0.038,-0.235L0.038,-0.277C0.038,-0.361 0.056,-0.425 0.093,-0.47C0.129,-0.515 0.181,-0.538 0.25,-0.538C0.316,-0.538 0.366,-0.517 0.399,-0.474C0.433,-0.432 0.45,-0.369 0.451,-0.286L0.451,-0.218L0.176,-0.218C0.178,-0.179 0.186,-0.15 0.202,-0.132C0.217,-0.114 0.241,-0.105 0.272,-0.105C0.319,-0.105 0.357,-0.121 0.388,-0.152L0.442,-0.069C0.425,-0.045 0.401,-0.026 0.369,-0.012C0.336,0.003 0.301,0.01 0.264,0.01ZM0.177,-0.314L0.315,-0.314L0.315,-0.327C0.314,-0.359 0.309,-0.383 0.299,-0.399C0.29,-0.415 0.273,-0.423 0.249,-0.423C0.224,-0.423 0.207,-0.415 0.196,-0.397C0.185,-0.38 0.179,-0.353 0.177,-0.314Z" style="fill:rgb(255,152,0);fill-rule:nonzero;"/>
        </g>
        <g transform="matrix(30,0,0,30,241.752,156.9)">
            <path d="M0.177,-0.528L0.181,-0.476C0.212,-0.517 0.253,-0.538 0.303,-0.538C0.394,-0.538 0.441,-0.474 0.443,-0.347L0.443,0L0.305,0L0.305,-0.337C0.305,-0.367 0.3,-0.389 0.291,-0.402C0.282,-0.416 0.267,-0.422 0.244,-0.422C0.219,-0.422 0.2,-0.41 0.186,-0.384L0.186,0L0.047,0L0.047,-0.528L0.177,-0.528Z" style="fill:rgb(255,152,0);fill-rule:nonzero;"/>
        </g>
        <g transform="matrix(30,0,0,30,256.518,156.9)">
            <path d="M0.301,0C0.297,-0.008 0.293,-0.022 0.29,-0.041C0.265,-0.007 0.231,0.01 0.189,0.01C0.145,0.01 0.108,-0.005 0.079,-0.034C0.05,-0.063 0.035,-0.101 0.035,-0.148C0.035,-0.203 0.053,-0.246 0.088,-0.276C0.123,-0.307 0.174,-0.322 0.241,-0.323L0.283,-0.323L0.283,-0.365C0.283,-0.389 0.279,-0.406 0.271,-0.416C0.262,-0.425 0.25,-0.43 0.235,-0.43C0.2,-0.43 0.183,-0.41 0.183,-0.37L0.045,-0.37C0.045,-0.418 0.063,-0.459 0.1,-0.49C0.136,-0.522 0.183,-0.538 0.239,-0.538C0.297,-0.538 0.342,-0.523 0.373,-0.493C0.405,-0.463 0.421,-0.42 0.421,-0.364L0.421,-0.115C0.422,-0.07 0.428,-0.034 0.44,-0.008L0.44,0L0.301,0ZM0.22,-0.099C0.235,-0.099 0.248,-0.102 0.259,-0.108C0.27,-0.114 0.278,-0.121 0.283,-0.13L0.283,-0.24L0.25,-0.24C0.226,-0.24 0.208,-0.232 0.194,-0.217C0.181,-0.202 0.174,-0.182 0.174,-0.157C0.174,-0.118 0.189,-0.099 0.22,-0.099Z" style="fill:rgb(255,152,0);fill-rule:nonzero;"/>
        </g>
    </g>
    <g transform="matrix(0.191149,0,0,0.191149,17.5198,11.066)">
        <rect x="161" y="161" width="190" height="190" style="fill:rgb(255,152,0);"/>
        <path d="M512,181L512,151L441,151L441,71L361,71L361,0L331,0L331,71L301,71L301,0L271,0L271,71L241,71L241,0L211,0L211,71L181,71L181,0L151,0L151,71L71,71L71,151L0,151L0,181L71,181L71,211L0,211L0,241L71,241L71,271L0,271L0,301L71,301L71,331L0,331L0,361L71,361L71,441L151,441L151,512L181,512L181,441L211,441L211,512L241,512L241,441L271,441L271,512L301,512L301,441L331,441L331,512L361,512L361,441L441,441L441,361L512,361L512,331L441,331L441,301L512,301L512,271L441,271L441,241L512,241L512,211L441,211L441,181L512,181ZM381,381L131,381L131,131L381,131L381,381Z" style="fill:rgb(255,152,0);fill-rule:nonzero;"/>
    </g>
</svg>
