<?xml version="1.0" encoding="UTF-8" standalone="no"?>
<!DOCTYPE svg PUBLIC "-//W3C//DTD SVG 1.1//EN" "http://www.w3.org/Graphics/SVG/1.1/DTD/svg11.dtd">
<svg width="100%" height="100%" viewBox="0 0 120 120" version="1.1" xmlns="http://www.w3.org/2000/svg" xmlns:xlink="http://www.w3.org/1999/xlink" xml:space="preserve" xmlns:serif="http://www.serif.com/" style="fill-rule:evenodd;clip-rule:evenodd;">
    <g transform="matrix(-0.689704,0,0,-0.689704,93.341,77.4488)">
        <g id="g4511">
            <g id="g4790">
                <path id="_x30_.1_" serif:id="_x30_.1" d="M2.835,0L2.835,50.598L96.682,50.598L96.682,0L2.835,0ZM42.349,1.906C43.347,1.906 44.161,2.719 44.161,3.719C44.161,4.719 43.347,5.532 42.349,5.532C41.349,5.532 40.537,4.719 40.537,3.719C40.538,2.72 41.349,1.906 42.349,1.906ZM13.549,48.682C12.549,48.682 11.737,47.871 11.737,46.871C11.737,45.873 12.549,45.058 13.549,45.058C14.547,45.058 15.361,45.871 15.361,46.871C15.361,47.871 14.547,48.682 13.549,48.682ZM13.549,5.531C12.549,5.531 11.737,4.718 11.737,3.718C11.737,2.72 12.549,1.905 13.549,1.905C14.547,1.905 15.361,2.718 15.361,3.718C15.361,4.718 14.547,5.531 13.549,5.531ZM20.749,48.682C19.749,48.682 18.937,47.871 18.937,46.871C18.937,45.873 19.749,45.058 20.749,45.058C21.747,45.058 22.561,45.871 22.561,46.871C22.561,47.871 21.747,48.682 20.749,48.682ZM20.749,5.531C19.749,5.531 18.937,4.718 18.937,3.718C18.937,2.72 19.749,1.905 20.749,1.905C21.747,1.905 22.561,2.718 22.561,3.718C22.561,4.718 21.747,5.531 20.749,5.531ZM27.949,48.682C26.949,48.682 26.137,47.871 26.137,46.871C26.137,45.873 26.949,45.058 27.949,45.058C28.947,45.058 29.761,45.871 29.761,46.871C29.761,47.871 28.947,48.682 27.949,48.682ZM27.949,5.531C26.949,5.531 26.137,4.718 26.137,3.718C26.137,2.72 26.949,1.905 27.949,1.905C28.947,1.905 29.761,2.718 29.761,3.718C29.761,4.718 28.947,5.531 27.949,5.531ZM35.149,48.682C34.149,48.682 33.337,47.871 33.337,46.871C33.337,45.873 34.149,45.058 35.149,45.058C36.147,45.058 36.961,45.871 36.961,46.871C36.961,47.871 36.147,48.682 35.149,48.682ZM35.149,5.531C34.149,5.531 33.337,4.718 33.337,3.718C33.337,2.72 34.149,1.905 35.149,1.905C36.147,1.905 36.961,2.718 36.961,3.718C36.961,4.718 36.147,5.531 35.149,5.531ZM42.349,48.682C41.349,48.682 40.537,47.871 40.537,46.871C40.537,45.873 41.349,45.058 42.349,45.058C43.347,45.058 44.161,45.871 44.161,46.871C44.161,47.871 43.347,48.682 42.349,48.682ZM49.55,48.682C48.55,48.682 47.738,47.871 47.738,46.871C47.738,45.873 48.55,45.058 49.55,45.058C50.548,45.058 51.362,45.871 51.362,46.871C51.362,47.871 50.548,48.682 49.55,48.682ZM49.55,5.531C48.55,5.531 47.738,4.718 47.738,3.718C47.738,2.72 48.55,1.905 49.55,1.905C50.548,1.905 51.362,2.718 51.362,3.718C51.362,4.718 50.548,5.531 49.55,5.531ZM56.75,48.682C55.75,48.682 54.937,47.871 54.937,46.871C54.937,45.873 55.75,45.058 56.75,45.058C57.748,45.058 58.563,45.871 58.563,46.871C58.563,47.871 57.748,48.682 56.75,48.682ZM56.75,5.531C55.75,5.531 54.937,4.718 54.937,3.718C54.937,2.72 55.75,1.905 56.75,1.905C57.748,1.905 58.563,2.718 58.563,3.718C58.563,4.718 57.748,5.531 56.75,5.531ZM63.95,48.682C62.95,48.682 62.138,47.871 62.138,46.871C62.138,45.873 62.95,45.058 63.95,45.058C64.947,45.058 65.762,45.871 65.762,46.871C65.762,47.871 64.947,48.682 63.95,48.682ZM63.95,5.531C62.95,5.531 62.138,4.718 62.138,3.718C62.138,2.72 62.95,1.905 63.95,1.905C64.947,1.905 65.762,2.718 65.762,3.718C65.762,4.718 64.947,5.531 63.95,5.531ZM71.15,48.682C70.15,48.682 69.337,47.871 69.337,46.871C69.337,45.873 70.15,45.058 71.15,45.058C72.148,45.058 72.962,45.871 72.962,46.871C72.962,47.871 72.148,48.682 71.15,48.682ZM71.15,5.531C70.15,5.531 69.337,4.718 69.337,3.718C69.337,2.72 70.15,1.905 71.15,1.905C72.148,1.905 72.962,2.718 72.962,3.718C72.962,4.718 72.148,5.531 71.15,5.531ZM78.352,48.682C77.352,48.682 76.539,47.871 76.539,46.871C76.539,45.873 77.352,45.058 78.352,45.058C79.35,45.058 80.165,45.871 80.165,46.871C80.165,47.871 79.35,48.682 78.352,48.682ZM78.352,5.531C77.352,5.531 76.539,4.718 76.539,3.718C76.539,2.72 77.352,1.905 78.352,1.905C79.35,1.905 80.165,2.718 80.165,3.718C80.165,4.718 79.35,5.531 78.352,5.531ZM85.551,48.682C84.551,48.682 83.74,47.871 83.74,46.871C83.74,45.873 84.551,45.058 85.551,45.058C86.549,45.058 87.364,45.871 87.364,46.871C87.364,47.871 86.549,48.682 85.551,48.682ZM85.551,5.531C84.551,5.531 83.74,4.718 83.74,3.718C83.74,2.72 84.551,1.905 85.551,1.905C86.549,1.905 87.364,2.718 87.364,3.718C87.364,4.718 86.549,5.531 85.551,5.531ZM92.751,48.682C91.751,48.682 90.938,47.871 90.938,46.871C90.938,45.873 91.751,45.058 92.751,45.058C93.749,45.058 94.562,45.871 94.562,46.871C94.562,47.871 93.749,48.682 92.751,48.682ZM92.751,5.531C91.751,5.531 90.938,4.718 90.938,3.718C90.938,2.72 91.751,1.905 92.751,1.905C93.749,1.905 94.562,2.718 94.562,3.718C94.562,4.718 93.749,5.531 92.751,5.531Z" style="fill:rgb(166,26,26);fill-rule:nonzero;"/>
                <g id="_x30_.2_" serif:id="_x30_.2">
                    <g id="_x30_.2.0_" serif:id="_x30_.2.0">
                        <path id="_x30_.2.0.1.0_" serif:id="_x30_.2.0.1.0" d="M13.549,1.167C12.144,1.167 10.995,2.313 10.995,3.722C10.995,5.128 12.141,6.277 13.549,6.277C14.957,6.277 16.103,5.131 16.103,3.722C16.101,2.313 14.957,1.167 13.549,1.167ZM13.549,5.531C12.549,5.531 11.737,4.718 11.737,3.718C11.737,2.72 12.549,1.905 13.549,1.905C14.547,1.905 15.361,2.718 15.361,3.718C15.361,4.718 14.547,5.531 13.549,5.531Z" style="fill:rgb(154,145,108);fill-rule:nonzero;"/>
                        <path id="_x30_.2.0.2.0_" serif:id="_x30_.2.0.2.0" d="M20.749,1.167C19.344,1.167 18.195,2.313 18.195,3.722C18.195,5.128 19.341,6.277 20.749,6.277C22.157,6.277 23.303,5.131 23.303,3.722C23.302,2.313 22.157,1.167 20.749,1.167ZM20.749,5.531C19.749,5.531 18.937,4.718 18.937,3.718C18.937,2.72 19.749,1.905 20.749,1.905C21.747,1.905 22.561,2.718 22.561,3.718C22.561,4.718 21.747,5.531 20.749,5.531Z" style="fill:rgb(154,145,108);fill-rule:nonzero;"/>
                        <path id="_x30_.2.0.3.0_" serif:id="_x30_.2.0.3.0" d="M27.949,1.167C26.544,1.167 25.395,2.313 25.395,3.722C25.395,5.128 26.541,6.277 27.949,6.277C29.357,6.277 30.503,5.131 30.503,3.722C30.502,2.313 29.357,1.167 27.949,1.167ZM27.949,5.531C26.949,5.531 26.137,4.718 26.137,3.718C26.137,2.72 26.949,1.905 27.949,1.905C28.947,1.905 29.761,2.718 29.761,3.718C29.761,4.718 28.947,5.531 27.949,5.531Z" style="fill:rgb(154,145,108);fill-rule:nonzero;"/>
                        <path id="_x30_.2.0.4.0_" serif:id="_x30_.2.0.4.0" d="M35.149,1.167C33.744,1.167 32.595,2.313 32.595,3.722C32.595,5.128 33.741,6.277 35.149,6.277C36.557,6.277 37.703,5.131 37.703,3.722C37.702,2.313 36.557,1.167 35.149,1.167ZM35.149,5.531C34.149,5.531 33.337,4.718 33.337,3.718C33.337,2.72 34.149,1.905 35.149,1.905C36.147,1.905 36.961,2.718 36.961,3.718C36.961,4.718 36.147,5.531 35.149,5.531Z" style="fill:rgb(154,145,108);fill-rule:nonzero;"/>
                        <path id="_x30_.2.0.5.0_" serif:id="_x30_.2.0.5.0" d="M42.349,1.167C40.944,1.167 39.795,2.313 39.795,3.722C39.795,5.128 40.941,6.277 42.349,6.277C43.757,6.277 44.903,5.131 44.903,3.722C44.902,2.313 43.758,1.167 42.349,1.167ZM42.349,5.531C41.349,5.531 40.537,4.718 40.537,3.718C40.537,2.72 41.349,1.905 42.349,1.905C43.347,1.905 44.161,2.718 44.161,3.718C44.161,4.718 43.347,5.531 42.349,5.531Z" style="fill:rgb(154,145,108);fill-rule:nonzero;"/>
                        <path id="_x30_.2.0.6.0_" serif:id="_x30_.2.0.6.0" d="M49.55,1.167C48.145,1.167 46.996,2.313 46.996,3.722C46.996,5.128 48.142,6.277 49.55,6.277C50.958,6.277 52.104,5.131 52.104,3.722C52.102,2.313 50.958,1.167 49.55,1.167ZM49.55,5.531C48.55,5.531 47.738,4.718 47.738,3.718C47.738,2.72 48.55,1.905 49.55,1.905C50.548,1.905 51.362,2.718 51.362,3.718C51.362,4.718 50.548,5.531 49.55,5.531Z" style="fill:rgb(154,145,108);fill-rule:nonzero;"/>
                        <path id="_x30_.2.0.7.0_" serif:id="_x30_.2.0.7.0" d="M56.75,1.167C55.346,1.167 54.195,2.313 54.195,3.722C54.195,5.128 55.341,6.277 56.75,6.277C58.159,6.277 59.305,5.131 59.305,3.722C59.303,2.313 58.158,1.167 56.75,1.167ZM56.75,5.531C55.75,5.531 54.937,4.718 54.937,3.718C54.937,2.72 55.75,1.905 56.75,1.905C57.748,1.905 58.563,2.718 58.563,3.718C58.563,4.718 57.748,5.531 56.75,5.531Z" style="fill:rgb(154,145,108);fill-rule:nonzero;"/>
                        <path id="_x30_.2.0.8.0_" serif:id="_x30_.2.0.8.0" d="M63.95,1.167C62.545,1.167 61.396,2.313 61.396,3.722C61.396,5.128 62.542,6.277 63.95,6.277C65.357,6.277 66.504,5.131 66.504,3.722C66.503,2.313 65.357,1.167 63.95,1.167ZM63.95,5.531C62.95,5.531 62.138,4.718 62.138,3.718C62.138,2.72 62.95,1.905 63.95,1.905C64.947,1.905 65.762,2.718 65.762,3.718C65.762,4.718 64.947,5.531 63.95,5.531Z" style="fill:rgb(154,145,108);fill-rule:nonzero;"/>
                        <path id="_x30_.2.0.9.0_" serif:id="_x30_.2.0.9.0" d="M71.15,1.167C69.745,1.167 68.595,2.313 68.595,3.722C68.595,5.128 69.741,6.277 71.15,6.277C72.558,6.277 73.704,5.131 73.704,3.722C73.703,2.313 72.559,1.167 71.15,1.167ZM71.15,5.531C70.15,5.531 69.337,4.718 69.337,3.718C69.337,2.72 70.15,1.905 71.15,1.905C72.148,1.905 72.962,2.718 72.962,3.718C72.962,4.718 72.148,5.531 71.15,5.531Z" style="fill:rgb(154,145,108);fill-rule:nonzero;"/>
                        <path id="_x30_.2.0.10.0_" serif:id="_x30_.2.0.10.0" d="M78.352,1.167C76.946,1.167 75.797,2.313 75.797,3.722C75.797,5.128 76.943,6.277 78.352,6.277C79.762,6.277 80.905,5.131 80.905,3.722C80.905,2.313 79.76,1.167 78.352,1.167ZM78.352,5.531C77.352,5.531 76.539,4.718 76.539,3.718C76.539,2.72 77.352,1.905 78.352,1.905C79.35,1.905 80.165,2.718 80.165,3.718C80.165,4.718 79.35,5.531 78.352,5.531Z" style="fill:rgb(154,145,108);fill-rule:nonzero;"/>
                        <path id="_x30_.2.0.11.0_" serif:id="_x30_.2.0.11.0" d="M85.55,1.167C84.146,1.167 82.997,2.313 82.997,3.722C82.997,5.128 84.143,6.277 85.55,6.277C86.958,6.277 88.105,5.131 88.105,3.722C88.104,2.313 86.959,1.167 85.55,1.167ZM85.55,5.531C84.55,5.531 83.739,4.718 83.739,3.718C83.739,2.72 84.55,1.905 85.55,1.905C86.548,1.905 87.363,2.718 87.363,3.718C87.363,4.718 86.548,5.531 85.55,5.531Z" style="fill:rgb(154,145,108);fill-rule:nonzero;"/>
                        <path id="_x30_.2.0.12.0_" serif:id="_x30_.2.0.12.0" d="M92.751,1.167C91.345,1.167 90.196,2.313 90.196,3.722C90.196,5.128 91.342,6.277 92.751,6.277C94.16,6.277 95.304,5.131 95.304,3.722C95.304,2.313 94.159,1.167 92.751,1.167ZM92.751,5.531C91.751,5.531 90.938,4.718 90.938,3.718C90.938,2.72 91.751,1.905 92.751,1.905C93.749,1.905 94.562,2.718 94.562,3.718C94.562,4.718 93.749,5.531 92.751,5.531Z" style="fill:rgb(154,145,108);fill-rule:nonzero;"/>
                    </g>
                    <g id="_x30_.2.2_" serif:id="_x30_.2.2">
                        <path id="_x30_.2.2.1.0_" serif:id="_x30_.2.2.1.0" d="M13.549,44.321C12.144,44.321 10.995,45.467 10.995,46.879C10.995,48.285 12.141,49.434 13.549,49.434C14.957,49.434 16.103,48.288 16.103,46.879C16.101,45.465 14.957,44.321 13.549,44.321ZM13.549,48.682C12.549,48.682 11.737,47.871 11.737,46.871C11.737,45.873 12.549,45.058 13.549,45.058C14.547,45.058 15.361,45.871 15.361,46.871C15.361,47.871 14.547,48.682 13.549,48.682Z" style="fill:rgb(154,145,108);fill-rule:nonzero;"/>
                        <path id="_x30_.2.2.2.0_" serif:id="_x30_.2.2.2.0" d="M20.749,44.321C19.344,44.321 18.195,45.467 18.195,46.879C18.195,48.285 19.341,49.434 20.749,49.434C22.157,49.434 23.303,48.288 23.303,46.879C23.302,45.465 22.157,44.321 20.749,44.321ZM20.749,48.682C19.749,48.682 18.937,47.871 18.937,46.871C18.937,45.873 19.749,45.058 20.749,45.058C21.747,45.058 22.561,45.871 22.561,46.871C22.561,47.871 21.747,48.682 20.749,48.682Z" style="fill:rgb(154,145,108);fill-rule:nonzero;"/>
                        <path id="_x30_.2.2.3.0_" serif:id="_x30_.2.2.3.0" d="M27.949,44.321C26.544,44.321 25.395,45.467 25.395,46.879C25.395,48.285 26.541,49.434 27.949,49.434C29.357,49.434 30.503,48.288 30.503,46.879C30.502,45.465 29.357,44.321 27.949,44.321ZM27.949,48.682C26.949,48.682 26.137,47.871 26.137,46.871C26.137,45.873 26.949,45.058 27.949,45.058C28.947,45.058 29.761,45.871 29.761,46.871C29.761,47.871 28.947,48.682 27.949,48.682Z" style="fill:rgb(154,145,108);fill-rule:nonzero;"/>
                        <path id="_x30_.2.2.4.0_" serif:id="_x30_.2.2.4.0" d="M35.149,44.321C33.744,44.321 32.595,45.467 32.595,46.879C32.595,48.285 33.741,49.434 35.149,49.434C36.557,49.434 37.703,48.288 37.703,46.879C37.702,45.465 36.557,44.321 35.149,44.321ZM35.149,48.682C34.149,48.682 33.337,47.871 33.337,46.871C33.337,45.873 34.149,45.058 35.149,45.058C36.147,45.058 36.961,45.871 36.961,46.871C36.961,47.871 36.147,48.682 35.149,48.682Z" style="fill:rgb(154,145,108);fill-rule:nonzero;"/>
                        <path id="_x30_.2.2.5.0_" serif:id="_x30_.2.2.5.0" d="M42.349,44.321C40.944,44.321 39.795,45.467 39.795,46.879C39.795,48.285 40.941,49.434 42.349,49.434C43.757,49.434 44.903,48.288 44.903,46.879C44.902,45.465 43.758,44.321 42.349,44.321ZM42.349,48.682C41.349,48.682 40.537,47.871 40.537,46.871C40.537,45.873 41.349,45.058 42.349,45.058C43.347,45.058 44.161,45.871 44.161,46.871C44.161,47.871 43.347,48.682 42.349,48.682Z" style="fill:rgb(154,145,108);fill-rule:nonzero;"/>
                        <path id="_x30_.2.2.6.0_" serif:id="_x30_.2.2.6.0" d="M49.55,44.321C48.145,44.321 46.996,45.467 46.996,46.879C46.996,48.285 48.142,49.434 49.55,49.434C50.958,49.434 52.104,48.288 52.104,46.879C52.102,45.465 50.958,44.321 49.55,44.321ZM49.55,48.682C48.55,48.682 47.738,47.871 47.738,46.871C47.738,45.873 48.55,45.058 49.55,45.058C50.548,45.058 51.362,45.871 51.362,46.871C51.362,47.871 50.548,48.682 49.55,48.682Z" style="fill:rgb(154,145,108);fill-rule:nonzero;"/>
                        <path id="_x30_.2.2.7.0_" serif:id="_x30_.2.2.7.0" d="M56.75,44.321C55.346,44.321 54.195,45.467 54.195,46.879C54.195,48.285 55.341,49.434 56.75,49.434C58.159,49.434 59.305,48.288 59.305,46.879C59.303,45.465 58.158,44.321 56.75,44.321ZM56.75,48.682C55.75,48.682 54.937,47.871 54.937,46.871C54.937,45.873 55.75,45.058 56.75,45.058C57.748,45.058 58.563,45.871 58.563,46.871C58.563,47.871 57.748,48.682 56.75,48.682Z" style="fill:rgb(154,145,108);fill-rule:nonzero;"/>
                        <path id="_x30_.2.2.8.0_" serif:id="_x30_.2.2.8.0" d="M63.95,44.321C62.545,44.321 61.396,45.467 61.396,46.879C61.396,48.285 62.542,49.434 63.95,49.434C65.357,49.434 66.504,48.288 66.504,46.879C66.503,45.465 65.357,44.321 63.95,44.321ZM63.95,48.682C62.95,48.682 62.138,47.871 62.138,46.871C62.138,45.873 62.95,45.058 63.95,45.058C64.947,45.058 65.762,45.871 65.762,46.871C65.762,47.871 64.947,48.682 63.95,48.682Z" style="fill:rgb(154,145,108);fill-rule:nonzero;"/>
                        <path id="_x30_.2.2.9.0_" serif:id="_x30_.2.2.9.0" d="M71.15,44.321C69.745,44.321 68.595,45.467 68.595,46.879C68.595,48.285 69.741,49.434 71.15,49.434C72.558,49.434 73.704,48.288 73.704,46.879C73.703,45.465 72.559,44.321 71.15,44.321ZM71.15,48.682C70.15,48.682 69.337,47.871 69.337,46.871C69.337,45.873 70.15,45.058 71.15,45.058C72.148,45.058 72.962,45.871 72.962,46.871C72.962,47.871 72.148,48.682 71.15,48.682Z" style="fill:rgb(154,145,108);fill-rule:nonzero;"/>
                        <path id="_x30_.2.2.10.0_" serif:id="_x30_.2.2.10.0" d="M78.352,44.321C76.946,44.321 75.797,45.467 75.797,46.879C75.797,48.285 76.943,49.434 78.352,49.434C79.762,49.434 80.905,48.288 80.905,46.879C80.904,45.465 79.76,44.321 78.352,44.321ZM78.352,48.682C77.352,48.682 76.539,47.871 76.539,46.871C76.539,45.873 77.352,45.058 78.352,45.058C79.35,45.058 80.165,45.871 80.165,46.871C80.165,47.871 79.35,48.682 78.352,48.682Z" style="fill:rgb(154,145,108);fill-rule:nonzero;"/>
                        <path id="_x30_.2.2.11.0_" serif:id="_x30_.2.2.11.0" d="M85.55,44.321C84.146,44.321 82.997,45.467 82.997,46.879C82.997,48.285 84.143,49.434 85.55,49.434C86.958,49.434 88.105,48.288 88.105,46.879C88.103,45.465 86.958,44.321 85.55,44.321ZM85.55,48.682C84.55,48.682 83.739,47.871 83.739,46.871C83.739,45.873 84.55,45.058 85.55,45.058C86.548,45.058 87.363,45.871 87.363,46.871C87.363,47.871 86.548,48.682 85.55,48.682Z" style="fill:rgb(154,145,108);fill-rule:nonzero;"/>
                        <path id="_x30_.2.2.12.0_" serif:id="_x30_.2.2.12.0" d="M92.751,44.321C91.345,44.321 90.196,45.467 90.196,46.879C90.196,48.285 91.342,49.434 92.751,49.434C94.16,49.434 95.304,48.288 95.304,46.879C95.304,45.465 94.159,44.321 92.751,44.321ZM92.751,48.682C91.751,48.682 90.938,47.871 90.938,46.871C90.938,45.873 91.751,45.058 92.751,45.058C93.749,45.058 94.562,45.871 94.562,46.871C94.562,47.871 93.749,48.682 92.751,48.682Z" style="fill:rgb(154,145,108);fill-rule:nonzero;"/>
                    </g>
                </g>
                <g id="_x30_.3_" serif:id="_x30_.3">
                    <path id="_x30_.3.0_" serif:id="_x30_.3.0" d="M17.16,15.892L17.16,34.737L0.035,34.735L0.035,15.892L17.16,15.892Z" style="fill:rgb(179,179,179);fill-rule:nonzero;"/>
                    <rect id="_x30_.3.1_" serif:id="_x30_.3.1" x="7.504" y="34.936" width="3.041" height="1.83" style="fill:rgb(102,102,102);"/>
                    <rect id="_x30_.3.2_" serif:id="_x30_.3.2" x="7.504" y="13.832" width="3.041" height="1.829" style="fill:rgb(102,102,102);"/>
                    <rect id="_x30_.3.3_" serif:id="_x30_.3.3" x="17.03" y="15.892" width="0.13" height="18.845" style="fill:rgb(204,204,204);"/>
                    <rect id="_x30_.3.4_" serif:id="_x30_.3.4" x="0.307" y="20.152" width="16.853" height="10.292" style="fill:rgb(51,51,51);"/>
                    <rect id="_x30_.3.5_" serif:id="_x30_.3.5" x="0" y="14.658" width="0.576" height="1.003" style="fill:rgb(179,179,179);"/>
                    <rect id="_x30_.3.6_" serif:id="_x30_.3.6" x="0" y="15.021" width="0.576" height="0.645" style="fill:rgb(204,204,204);"/>
                    <rect id="_x30_.3.7_" serif:id="_x30_.3.7" x="0" y="34.934" width="0.576" height="1.002" style="fill:rgb(179,179,179);"/>
                    <rect id="_x30_.3.8_" serif:id="_x30_.3.8" x="0" y="34.934" width="0.576" height="0.646" style="fill:rgb(204,204,204);"/>
                    <path id="_x30_.3.9_" serif:id="_x30_.3.9" d="M16.593,15.661L17.16,15.89L17.16,18.424C17.16,18.424 17.047,16.122 16.877,16.04C16.707,15.958 16.593,16.147 16.593,16.147L16.593,15.661Z" style="fill:rgb(204,204,204);fill-rule:nonzero;"/>
                    <path id="_x30_.3.10_" serif:id="_x30_.3.10" d="M16.593,34.936L17.159,34.707L17.159,32.174C17.159,32.174 17.046,34.475 16.876,34.557C16.706,34.639 16.593,34.451 16.593,34.451L16.593,34.936L16.593,34.936Z" style="fill:rgb(204,204,204);fill-rule:nonzero;"/>
                    <path id="_x30_.3.11_" serif:id="_x30_.3.11" d="M16.593,31.547L15.527,31.547L15.527,29.942L17.161,29.942L17.161,29.481L16.595,29.481L16.595,21.12L17.161,21.12L17.161,20.595L15.526,20.595L15.526,18.989L16.593,18.989L16.593,15.668L0.153,15.668L0.153,34.939L16.593,34.939L16.593,31.547L16.593,31.547ZM3.303,20.592L2.489,20.592L2.489,18.999L3.37,18.999C3.647,18.573 4.13,18.291 4.677,18.291C5.275,18.291 5.782,18.51 6.046,18.999L10.526,18.999L10.526,20.591L6.043,20.591C5.779,21.079 5.27,21.416 4.672,21.416C4.076,21.416 3.567,21.08 3.303,20.592ZM3.303,31.479L2.489,31.479L2.489,29.887L3.37,29.887C3.647,29.461 4.13,29.18 4.677,29.18C5.275,29.18 5.782,29.397 6.046,29.887L10.526,29.887L10.526,31.479L6.043,31.479C5.779,31.969 5.27,32.305 4.672,32.305C4.076,32.305 3.567,31.971 3.303,31.479Z" style="fill:rgb(230,230,230);fill-rule:nonzero;"/>
                    <path id="_x30_.3.12_" serif:id="_x30_.3.12" d="M16.593,15.661L16.593,17.191L0.151,16.066L0.151,15.661L16.593,15.661Z" style="fill:rgb(242,242,242);fill-rule:nonzero;"/>
                    <path id="_x30_.3.13_" serif:id="_x30_.3.13" d="M16.593,33.799L16.593,34.936L0.151,34.936L11.129,34.368L16.593,33.799Z" style="fill:rgb(153,153,153);fill-rule:nonzero;"/>
                    <rect id="_x30_.3.14_" serif:id="_x30_.3.14" x="10.395" y="18.999" width="0.131" height="1.592" style="fill:rgb(204,204,204);"/>
                    <rect id="_x30_.3.15_" serif:id="_x30_.3.15" x="10.395" y="29.889" width="0.131" height="1.592" style="fill:rgb(204,204,204);"/>
                    <rect id="_x30_.3.16_" serif:id="_x30_.3.16" x="0.354" y="16.605" width="0.66" height="17.39" style="fill:rgb(179,179,179);"/>
                    <rect id="_x30_.3.17_" serif:id="_x30_.3.17" x="0.151" y="16.605" width="0.313" height="17.39" style="fill:rgb(204,204,204);"/>
                </g>
                <g id="_x30_.5_" serif:id="_x30_.5" transform="matrix(0.707107,-0.707107,0.707107,0.707107,0,0)">
                    <rect x="11.691" y="47.567" width="21.203" height="21.205" style="fill:rgb(51,51,51);"/>
                </g>
                <rect id="_x30_.6_" serif:id="_x30_.6" x="30.324" y="12.505" width="9.578" height="5.05" style="fill:rgb(51,51,51);"/>
                <rect id="_x30_.7_" serif:id="_x30_.7" x="24.462" y="20.616" width="4.783" height="8.672" style="fill:rgb(51,51,51);"/>
                <rect id="_x30_.9_" serif:id="_x30_.9" x="42.583" y="13.02" width="2.101" height="4.289" style="fill:rgb(51,51,51);"/>
                <rect id="_x30_.10_" serif:id="_x30_.10" x="76.62" y="12.462" width="4.651" height="2.101" style="fill:rgb(0,255,0);"/>
                <rect id="_x30_.11_" serif:id="_x30_.11" x="70.617" y="12.506" width="4.289" height="2.104" style="fill:rgb(51,51,51);"/>
                <rect id="_x30_.12_" serif:id="_x30_.12" x="73.654" y="19.535" width="2.101" height="3.73" style="fill:rgb(51,51,51);"/>
                <rect id="_x30_.13_" serif:id="_x30_.13" x="73.711" y="26.68" width="2.101" height="3.73" style="fill:rgb(51,51,51);"/>
                <rect id="_x30_.14_" serif:id="_x30_.14" x="18.654" y="22.263" width="2.734" height="4.724" style="fill:rgb(51,51,51);"/>
                <g id="_x30_.15.0.0_" serif:id="_x30_.15.0.0" transform="matrix(1,0,0,1,-9.31543,-3.16545)">
                    <rect x="27.949" y="17.146" width="2.101" height="3.733" style="fill:rgb(51,51,51);"/>
                </g>
                <g id="_x30_.15.1.0_" serif:id="_x30_.15.1.0" transform="matrix(2.37751,0,0,0.62201,-12.0149,10.2472)">
                    <rect x="18.702" y="21.128" width="2.101" height="6.221" style="fill:rgb(51,51,51);"/>
                </g>
                <g id="_x30_.15.2.0_" serif:id="_x30_.15.2.0" transform="matrix(1,0,0,1,10.4008,16.3699)">
                    <rect x="31.925" y="17.146" width="2.101" height="3.733" style="fill:rgb(51,51,51);"/>
                </g>
                <g id="_x30_.15.4.0_" serif:id="_x30_.15.4.0" transform="matrix(1,0,0,1,-18.0883,-3.25589)">
                    <rect x="39.877" y="17.146" width="2.101" height="3.733" style="fill:rgb(51,51,51);"/>
                </g>
                <g id="_x30_.15.5.0_" serif:id="_x30_.15.5.0" transform="matrix(1,0,0,1,-18.8118,-3.25589)">
                    <rect x="43.853" y="17.146" width="2.101" height="3.733" style="fill:rgb(51,51,51);"/>
                </g>
                <rect id="_x30_.18_" serif:id="_x30_.18" x="77.489" y="35.586" width="4.455" height="2.104" style="fill:rgb(255,255,0);"/>
                <rect id="_x30_.20_" serif:id="_x30_.20" x="83.006" y="12.425" width="4.093" height="2.101" style="fill:rgb(51,51,51);"/>
                <rect id="_x30_.21_" serif:id="_x30_.21" x="83.639" y="35.554" width="4.093" height="2.101" style="fill:rgb(51,51,51);"/>
                <rect id="_x30_.22_" serif:id="_x30_.22" x="4.566" y="44.279" width="3.912" height="1.74" style="fill:rgb(204,204,204);"/>
                <rect id="_x30_.23_" serif:id="_x30_.23" x="71.427" y="35.614" width="4.093" height="2.102" style="fill:rgb(51,51,51);"/>
                <g id="_x30_.24_" serif:id="_x30_.24" transform="matrix(1,0,0,1,-11.1243,-0.0904414)">
                    <path id="_x30_.24.0_" serif:id="_x30_.24.0" d="M88.785,23.096L88.932,23.096L88.932,27.503L88.785,27.503L88.785,30.833L95.088,30.833L95.088,19.766L88.785,19.766L88.785,23.096Z" style="fill:rgb(204,204,204);fill-rule:nonzero;"/>
                    <path id="_x30_.24.1_" serif:id="_x30_.24.1" d="M96.098,27.503L95.952,27.503L95.952,23.096L96.098,23.096L96.098,19.766L89.842,19.766L89.842,30.833L96.098,30.833L96.098,27.503Z" style="fill:rgb(204,204,204);fill-rule:nonzero;"/>
                    <rect id="_x30_.24.8_" serif:id="_x30_.24.8" x="88.785" y="19.765" width="0.146" height="3.331" style="fill:white;fill-opacity:0.2;"/>
                    <rect id="_x30_.24.9_" serif:id="_x30_.24.9" x="88.785" y="27.503" width="0.146" height="3.33" style="fill:white;fill-opacity:0.2;"/>
                    <rect id="_x30_.24.10_" serif:id="_x30_.24.10" x="88.932" y="23.096" width="0.146" height="4.407" style="fill:white;fill-opacity:0.2;"/>
                    <rect id="_x30_.24.11_" serif:id="_x30_.24.11" x="95.944" y="19.765" width="0.146" height="3.331" style="fill-opacity:0.2;"/>
                    <rect id="_x30_.24.12_" serif:id="_x30_.24.12" x="95.944" y="27.503" width="0.146" height="3.33" style="fill-opacity:0.2;"/>
                    <rect id="_x30_.24.13_" serif:id="_x30_.24.13" x="95.798" y="23.096" width="0.146" height="4.407" style="fill-opacity:0.2;"/>
                </g>
                <g id="g162" transform="matrix(1,0,0,1,3.92622e-06,-3.04863e-07)">
                    <circle cx="92.742" cy="3.723" r="1.908" style="fill:none;stroke:rgb(154,145,108);stroke-width:1.22px;"/>
                </g>
                <g id="connector13pin" transform="matrix(1,0,0,1,3.92622e-06,-3.04863e-07)">
                    <circle cx="85.542" cy="3.723" r="1.908" style="fill:none;stroke:rgb(154,145,108);stroke-width:1.22px;"/>
                </g>
                <g id="connector14pin" transform="matrix(1,0,0,1,3.92622e-06,-3.04863e-07)">
                    <circle cx="78.342" cy="3.723" r="1.908" style="fill:none;stroke:rgb(154,145,108);stroke-width:1.22px;"/>
                </g>
                <g id="connector15pin" transform="matrix(1,0,0,1,3.92622e-06,-3.04863e-07)">
                    <circle cx="71.143" cy="3.723" r="1.908" style="fill:none;stroke:rgb(154,145,108);stroke-width:1.22px;"/>
                </g>
                <g id="connector16pin" transform="matrix(1,0,0,1,3.92622e-06,-3.04863e-07)">
                    <circle cx="63.941" cy="3.723" r="1.908" style="fill:none;stroke:rgb(154,145,108);stroke-width:1.22px;"/>
                </g>
                <g id="connector17pin" transform="matrix(1,0,0,1,3.92622e-06,-3.04863e-07)">
                    <circle cx="56.743" cy="3.723" r="1.908" style="fill:none;stroke:rgb(154,145,108);stroke-width:1.22px;"/>
                </g>
                <g id="connector18pin" transform="matrix(1,0,0,1,3.92622e-06,-3.04863e-07)">
                    <circle cx="49.542" cy="3.723" r="1.908" style="fill:none;stroke:rgb(154,145,108);stroke-width:1.22px;"/>
                </g>
                <g id="connector19pin" transform="matrix(1,0,0,1,3.92622e-06,-3.04863e-07)">
                    <circle cx="42.342" cy="3.723" r="1.908" style="fill:none;stroke:rgb(154,145,108);stroke-width:1.22px;"/>
                </g>
                <g id="connector20pin" transform="matrix(1,0,0,1,3.92622e-06,-3.04863e-07)">
                    <circle cx="35.143" cy="3.723" r="1.908" style="fill:none;stroke:rgb(154,145,108);stroke-width:1.22px;"/>
                </g>
                <g id="connector21pin" transform="matrix(1,0,0,1,3.92622e-06,-3.04863e-07)">
                    <circle cx="27.942" cy="3.723" r="1.908" style="fill:none;stroke:rgb(154,145,108);stroke-width:1.22px;"/>
                </g>
                <g id="connector22pin" transform="matrix(1,0,0,1,3.92622e-06,-3.04863e-07)">
                    <circle cx="20.742" cy="3.723" r="1.908" style="fill:none;stroke:rgb(154,145,108);stroke-width:1.22px;"/>
                </g>
                <g id="connector23pin" transform="matrix(1,0,0,1,3.92622e-06,-3.04863e-07)">
                    <circle cx="13.542" cy="3.723" r="1.908" style="fill:none;stroke:rgb(154,145,108);stroke-width:1.22px;"/>
                </g>
                <g id="g222" transform="matrix(1,0,0,1,3.92622e-06,-3.04863e-07)">
                    <circle cx="92.742" cy="46.922" r="1.908" style="fill:none;stroke:rgb(154,145,108);stroke-width:1.22px;"/>
                </g>
                <g id="connector10pin" transform="matrix(1,0,0,1,3.92622e-06,-3.04863e-07)">
                    <circle cx="85.542" cy="46.922" r="1.908" style="fill:none;stroke:rgb(154,145,108);stroke-width:1.22px;"/>
                </g>
                <g id="connector9pin" transform="matrix(1,0,0,1,3.92622e-06,-3.04863e-07)">
                    <circle cx="78.342" cy="46.922" r="1.908" style="fill:none;stroke:rgb(154,145,108);stroke-width:1.22px;"/>
                </g>
                <g id="g237" transform="matrix(1,0,0,1,3.92622e-06,-3.04863e-07)">
                    <circle cx="71.143" cy="46.922" r="1.908" style="fill:none;stroke:rgb(154,145,108);stroke-width:1.22px;"/>
                </g>
                <g id="g242" transform="matrix(1,0,0,1,3.92622e-06,-3.04863e-07)">
                    <circle cx="63.941" cy="46.922" r="1.908" style="fill:none;stroke:rgb(154,145,108);stroke-width:1.22px;"/>
                </g>
                <g id="connector7pin" transform="matrix(1,0,0,1,3.92622e-06,-3.04863e-07)">
                    <circle cx="56.743" cy="46.922" r="1.908" style="fill:none;stroke:rgb(154,145,108);stroke-width:1.22px;"/>
                </g>
                <g id="connector6pin" transform="matrix(1,0,0,1,3.92622e-06,-3.04863e-07)">
                    <circle cx="49.542" cy="46.922" r="1.908" style="fill:none;stroke:rgb(154,145,108);stroke-width:1.22px;"/>
                </g>
                <g id="connector4pin" transform="matrix(1,0,0,1,3.92622e-06,-3.04863e-07)">
                    <circle cx="42.342" cy="46.922" r="1.908" style="fill:none;stroke:rgb(154,145,108);stroke-width:1.22px;"/>
                </g>
                <g id="connector3pin" transform="matrix(1,0,0,1,3.92622e-06,-3.04863e-07)">
                    <circle cx="35.143" cy="46.922" r="1.908" style="fill:none;stroke:rgb(154,145,108);stroke-width:1.22px;"/>
                </g>
                <g id="connector2pin" transform="matrix(1,0,0,1,3.92622e-06,-3.04863e-07)">
                    <circle cx="27.942" cy="46.922" r="1.908" style="fill:none;stroke:rgb(154,145,108);stroke-width:1.22px;"/>
                </g>
                <g id="connector1pin" transform="matrix(1,0,0,1,3.92622e-06,-3.04863e-07)">
                    <circle cx="20.742" cy="46.922" r="1.908" style="fill:none;stroke:rgb(154,145,108);stroke-width:1.22px;"/>
                </g>
                <g id="connector0pin" transform="matrix(1,0,0,1,3.92622e-06,-3.04863e-07)">
                    <circle cx="13.542" cy="46.922" r="1.908" style="fill:none;stroke:rgb(154,145,108);stroke-width:1.22px;"/>
                </g>
                <rect id="rect4160" x="78.728" y="20.962" width="5.116" height="8.697" style="fill:rgb(204,204,204);stroke:rgb(255,255,0);stroke-width:0.8px;"/>
                <rect id="_x30_.22-1_" serif:id="_x30_.22-1" x="4.556" y="47.196" width="3.912" height="1.74" style="fill:rgb(204,204,204);"/>
                <g id="_x30_.15.0.0-4_" serif:id="_x30_.15.0.0-4" transform="matrix(1,0,0,1,-9.41198,15.8036)">
                    <rect x="27.949" y="17.146" width="2.101" height="3.733" style="fill:rgb(51,51,51);"/>
                </g>
                <g id="_x30_.15.4.0-9_" serif:id="_x30_.15.4.0-9" transform="matrix(1,0,0,1,-18.1848,15.7131)">
                    <rect x="39.877" y="17.146" width="2.101" height="3.733" style="fill:rgb(51,51,51);"/>
                </g>
                <g id="_x30_.15.5.0-8_" serif:id="_x30_.15.5.0-8" transform="matrix(1,0,0,1.19382,-18.9083,12.3898)">
                    <rect x="43.853" y="17.146" width="2.101" height="3.733" style="fill:rgb(255,0,0);"/>
                </g>
                <rect id="_x30_.6-8_" serif:id="_x30_.6-8" x="30.393" y="32.698" width="9.578" height="5.05" style="fill:rgb(51,51,51);"/>
                <g id="tspan4281" transform="matrix(-1,0,0,-1,8.16005,40.8864)">
                    <g transform="matrix(2.24001,0,0,2.24001,0,0)">
                        <path d="M0.331,-0.716L0.475,-0.716L0.475,-0.263C0.475,-0.203 0.47,-0.158 0.459,-0.126C0.445,-0.084 0.42,-0.051 0.383,-0.026C0.347,0 0.298,0.012 0.238,0.012C0.167,0.012 0.113,-0.008 0.075,-0.047C0.037,-0.087 0.017,-0.145 0.017,-0.221L0.153,-0.237C0.155,-0.196 0.161,-0.167 0.171,-0.15C0.187,-0.124 0.211,-0.111 0.243,-0.111C0.275,-0.111 0.298,-0.121 0.311,-0.139C0.324,-0.157 0.331,-0.195 0.331,-0.253L0.331,-0.716Z" style="fill:white;fill-rule:nonzero;"/>
                    </g>
                    <g transform="matrix(2.24001,0,0,2.24001,1.24578,0)">
                        <path d="M0.394,0L0.256,0L0.256,-0.517C0.206,-0.47 0.147,-0.436 0.079,-0.413L0.079,-0.538C0.115,-0.549 0.154,-0.572 0.196,-0.604C0.238,-0.637 0.267,-0.675 0.282,-0.719L0.394,-0.719L0.394,0Z" style="fill:white;fill-rule:nonzero;"/>
                    </g>
                </g>
                <g id="tspan4995" transform="matrix(-1,0,0,-1,15.9476,40.8864)">
                    <g transform="matrix(2.24001,0,0,2.24001,0,0)">
                        <path d="M0.234,0L0.234,-0.595L0.021,-0.595L0.021,-0.716L0.59,-0.716L0.59,-0.595L0.378,-0.595L0.378,0L0.234,0Z" style="fill:white;fill-rule:nonzero;"/>
                    </g>
                    <g transform="matrix(2.24001,0,0,2.24001,1.36829,0)">
                        <path d="M0,0L0.245,-0.374L0.023,-0.716L0.192,-0.716L0.335,-0.486L0.476,-0.716L0.644,-0.716L0.421,-0.368L0.666,0L0.491,0L0.333,-0.248L0.173,0L0,0Z" style="fill:white;fill-rule:nonzero;"/>
                    </g>
                    <g transform="matrix(2.24001,0,0,2.24001,2.86235,0)">
                        <path d="M0.274,-0.719C0.344,-0.719 0.398,-0.694 0.437,-0.645C0.484,-0.586 0.507,-0.489 0.507,-0.353C0.507,-0.218 0.483,-0.12 0.437,-0.061C0.398,-0.012 0.344,0.012 0.274,0.012C0.205,0.012 0.149,-0.015 0.106,-0.068C0.063,-0.122 0.042,-0.217 0.042,-0.354C0.042,-0.489 0.065,-0.586 0.112,-0.646C0.151,-0.694 0.205,-0.719 0.274,-0.719ZM0.274,-0.605C0.258,-0.605 0.243,-0.6 0.23,-0.589C0.217,-0.579 0.207,-0.56 0.2,-0.532C0.19,-0.497 0.186,-0.437 0.186,-0.353C0.186,-0.269 0.19,-0.211 0.198,-0.18C0.207,-0.149 0.217,-0.128 0.23,-0.117C0.243,-0.107 0.258,-0.102 0.274,-0.102C0.291,-0.102 0.306,-0.107 0.319,-0.117C0.332,-0.128 0.342,-0.147 0.349,-0.174C0.359,-0.209 0.363,-0.269 0.363,-0.353C0.363,-0.437 0.359,-0.495 0.351,-0.526C0.342,-0.558 0.331,-0.579 0.319,-0.589C0.306,-0.6 0.291,-0.605 0.274,-0.605Z" style="fill:white;fill-rule:nonzero;"/>
                    </g>
                </g>
                <g id="tspan4281-11" transform="matrix(-1,0,0,-1,23.2615,40.8693)">
                    <g transform="matrix(2.24001,0,0,2.24001,0,0)">
                        <path d="M0.073,0L0.073,-0.716L0.377,-0.716C0.454,-0.716 0.51,-0.709 0.544,-0.697C0.579,-0.684 0.607,-0.661 0.627,-0.628C0.648,-0.595 0.659,-0.557 0.659,-0.515C0.659,-0.461 0.643,-0.417 0.611,-0.382C0.58,-0.347 0.533,-0.325 0.47,-0.316C0.501,-0.298 0.527,-0.278 0.547,-0.256C0.567,-0.234 0.595,-0.195 0.629,-0.14L0.717,0L0.544,0L0.439,-0.156C0.402,-0.211 0.377,-0.247 0.363,-0.261C0.35,-0.275 0.335,-0.285 0.32,-0.291C0.305,-0.296 0.28,-0.299 0.247,-0.299L0.218,-0.299L0.218,0L0.073,0ZM0.218,-0.413L0.325,-0.413C0.394,-0.413 0.437,-0.416 0.455,-0.422C0.472,-0.428 0.485,-0.438 0.495,-0.452C0.505,-0.466 0.51,-0.484 0.51,-0.506C0.51,-0.53 0.503,-0.549 0.49,-0.564C0.478,-0.579 0.459,-0.588 0.436,-0.592C0.424,-0.594 0.389,-0.595 0.331,-0.595L0.218,-0.595L0.218,-0.413Z" style="fill:white;fill-rule:nonzero;"/>
                    </g>
                    <g transform="matrix(2.24001,0,0,2.24001,1.61766,0)">
                        <path d="M0,0L0.245,-0.374L0.023,-0.716L0.192,-0.716L0.335,-0.486L0.476,-0.716L0.644,-0.716L0.421,-0.368L0.666,0L0.491,0L0.333,-0.248L0.173,0L0,0Z" style="fill:white;fill-rule:nonzero;"/>
                    </g>
                    <g transform="matrix(2.24001,0,0,2.24001,3.11173,0)">
                        <path d="M0.394,0L0.256,0L0.256,-0.517C0.206,-0.47 0.147,-0.436 0.079,-0.413L0.079,-0.538C0.115,-0.549 0.154,-0.572 0.196,-0.604C0.238,-0.637 0.267,-0.675 0.282,-0.719L0.394,-0.719L0.394,0Z" style="fill:white;fill-rule:nonzero;"/>
                    </g>
                </g>
                <g id="tspan4281-7" transform="matrix(-1,0,0,-1,30.9232,40.8734)">
                    <g transform="matrix(2.24001,0,0,2.24001,0,0)">
                        <path d="M0.406,-0.263L0.406,-0.384L0.717,-0.384L0.717,-0.099C0.687,-0.069 0.643,-0.044 0.586,-0.021C0.528,0.001 0.47,0.012 0.411,0.012C0.336,0.012 0.271,-0.003 0.215,-0.035C0.16,-0.066 0.118,-0.111 0.09,-0.17C0.062,-0.228 0.048,-0.292 0.048,-0.36C0.048,-0.435 0.063,-0.501 0.095,-0.559C0.126,-0.617 0.172,-0.661 0.232,-0.692C0.278,-0.716 0.335,-0.728 0.403,-0.728C0.492,-0.728 0.562,-0.709 0.612,-0.672C0.662,-0.635 0.694,-0.583 0.708,-0.518L0.564,-0.491C0.554,-0.526 0.535,-0.554 0.508,-0.574C0.48,-0.594 0.445,-0.604 0.403,-0.604C0.34,-0.604 0.29,-0.584 0.253,-0.544C0.215,-0.504 0.197,-0.445 0.197,-0.366C0.197,-0.281 0.216,-0.218 0.253,-0.175C0.291,-0.133 0.341,-0.111 0.402,-0.111C0.432,-0.111 0.462,-0.117 0.493,-0.129C0.523,-0.141 0.549,-0.155 0.571,-0.172L0.571,-0.263L0.406,-0.263Z" style="fill:white;fill-rule:nonzero;"/>
                    </g>
                    <g transform="matrix(2.24001,0,0,2.24001,1.74235,0)">
                        <path d="M0.074,0L0.074,-0.716L0.215,-0.716L0.508,-0.238L0.508,-0.716L0.642,-0.716L0.642,0L0.497,0L0.208,-0.467L0.208,0L0.074,0Z" style="fill:white;fill-rule:nonzero;"/>
                    </g>
                    <g transform="matrix(2.24001,0,0,2.24001,3.36001,0)">
                        <path d="M0.072,-0.716L0.336,-0.716C0.396,-0.716 0.441,-0.711 0.473,-0.702C0.515,-0.69 0.551,-0.668 0.581,-0.636C0.611,-0.605 0.633,-0.566 0.649,-0.52C0.665,-0.475 0.672,-0.418 0.672,-0.351C0.672,-0.292 0.665,-0.241 0.65,-0.199C0.632,-0.147 0.607,-0.104 0.574,-0.072C0.549,-0.048 0.515,-0.029 0.472,-0.015C0.44,-0.005 0.398,0 0.344,0L0.072,0L0.072,-0.716ZM0.217,-0.595L0.217,-0.121L0.325,-0.121C0.365,-0.121 0.394,-0.123 0.412,-0.127C0.436,-0.133 0.455,-0.143 0.47,-0.157C0.486,-0.171 0.499,-0.194 0.508,-0.226C0.518,-0.258 0.523,-0.302 0.523,-0.357C0.523,-0.413 0.518,-0.455 0.508,-0.485C0.499,-0.514 0.485,-0.538 0.467,-0.554C0.45,-0.571 0.427,-0.582 0.4,-0.588C0.38,-0.592 0.341,-0.595 0.282,-0.595L0.217,-0.595Z" style="fill:white;fill-rule:nonzero;"/>
                    </g>
                </g>
                <g id="tspan4281-14" transform="matrix(-1,0,0,-1,37.9866,40.8734)">
                    <g transform="matrix(2.24001,0,0,2.24001,0,0)">
                        <path d="M0.406,-0.263L0.406,-0.384L0.717,-0.384L0.717,-0.099C0.687,-0.069 0.643,-0.044 0.586,-0.021C0.528,0.001 0.47,0.012 0.411,0.012C0.336,0.012 0.271,-0.003 0.215,-0.035C0.16,-0.066 0.118,-0.111 0.09,-0.17C0.062,-0.228 0.048,-0.292 0.048,-0.36C0.048,-0.435 0.063,-0.501 0.095,-0.559C0.126,-0.617 0.172,-0.661 0.232,-0.692C0.278,-0.716 0.335,-0.728 0.403,-0.728C0.492,-0.728 0.562,-0.709 0.612,-0.672C0.662,-0.635 0.694,-0.583 0.708,-0.518L0.564,-0.491C0.554,-0.526 0.535,-0.554 0.508,-0.574C0.48,-0.594 0.445,-0.604 0.403,-0.604C0.34,-0.604 0.29,-0.584 0.253,-0.544C0.215,-0.504 0.197,-0.445 0.197,-0.366C0.197,-0.281 0.216,-0.218 0.253,-0.175C0.291,-0.133 0.341,-0.111 0.402,-0.111C0.432,-0.111 0.462,-0.117 0.493,-0.129C0.523,-0.141 0.549,-0.155 0.571,-0.172L0.571,-0.263L0.406,-0.263Z" style="fill:white;fill-rule:nonzero;"/>
                    </g>
                    <g transform="matrix(2.24001,0,0,2.24001,1.74235,0)">
                        <path d="M0.074,0L0.074,-0.716L0.215,-0.716L0.508,-0.238L0.508,-0.716L0.642,-0.716L0.642,0L0.497,0L0.208,-0.467L0.208,0L0.074,0Z" style="fill:white;fill-rule:nonzero;"/>
                    </g>
                    <g transform="matrix(2.24001,0,0,2.24001,3.36001,0)">
                        <path d="M0.072,-0.716L0.336,-0.716C0.396,-0.716 0.441,-0.711 0.473,-0.702C0.515,-0.69 0.551,-0.668 0.581,-0.636C0.611,-0.605 0.633,-0.566 0.649,-0.52C0.665,-0.475 0.672,-0.418 0.672,-0.351C0.672,-0.292 0.665,-0.241 0.65,-0.199C0.632,-0.147 0.607,-0.104 0.574,-0.072C0.549,-0.048 0.515,-0.029 0.472,-0.015C0.44,-0.005 0.398,0 0.344,0L0.072,0L0.072,-0.716ZM0.217,-0.595L0.217,-0.121L0.325,-0.121C0.365,-0.121 0.394,-0.123 0.412,-0.127C0.436,-0.133 0.455,-0.143 0.47,-0.157C0.486,-0.171 0.499,-0.194 0.508,-0.226C0.518,-0.258 0.523,-0.302 0.523,-0.357C0.523,-0.413 0.518,-0.455 0.508,-0.485C0.499,-0.514 0.485,-0.538 0.467,-0.554C0.45,-0.571 0.427,-0.582 0.4,-0.588C0.38,-0.592 0.341,-0.595 0.282,-0.595L0.217,-0.595Z" style="fill:white;fill-rule:nonzero;"/>
                    </g>
                </g>
                <g id="tspan4281-3" transform="matrix(-1,0,0,-1,43.0621,40.7255)">
                    <g transform="matrix(2.56,0,0,2.56,0,0)">
                        <path d="M0.506,-0.127L0.506,0L0.025,0C0.03,-0.048 0.046,-0.094 0.072,-0.137C0.098,-0.18 0.149,-0.237 0.226,-0.309C0.288,-0.366 0.326,-0.405 0.34,-0.426C0.359,-0.454 0.368,-0.482 0.368,-0.51C0.368,-0.54 0.36,-0.564 0.344,-0.58C0.327,-0.597 0.304,-0.605 0.275,-0.605C0.247,-0.605 0.224,-0.596 0.207,-0.579C0.19,-0.562 0.18,-0.533 0.178,-0.493L0.041,-0.507C0.049,-0.582 0.075,-0.637 0.118,-0.669C0.161,-0.702 0.214,-0.719 0.279,-0.719C0.349,-0.719 0.405,-0.7 0.445,-0.662C0.486,-0.624 0.506,-0.576 0.506,-0.52C0.506,-0.487 0.5,-0.457 0.489,-0.427C0.477,-0.398 0.459,-0.368 0.434,-0.336C0.417,-0.315 0.387,-0.284 0.344,-0.245C0.3,-0.205 0.273,-0.179 0.261,-0.166C0.25,-0.153 0.241,-0.14 0.233,-0.127L0.506,-0.127Z" style="fill:white;fill-rule:nonzero;"/>
                    </g>
                </g>
                <g id="tspan4281-16" transform="matrix(-1,0,0,-1,50.5192,40.7451)">
                    <g transform="matrix(2.56,0,0,2.56,0,0)">
                        <path d="M0.038,-0.19L0.17,-0.206C0.175,-0.172 0.186,-0.146 0.205,-0.128C0.223,-0.111 0.246,-0.102 0.272,-0.102C0.3,-0.102 0.324,-0.112 0.344,-0.134C0.363,-0.155 0.373,-0.184 0.373,-0.221C0.373,-0.255 0.363,-0.283 0.345,-0.303C0.326,-0.323 0.304,-0.333 0.277,-0.333C0.259,-0.333 0.238,-0.33 0.214,-0.323L0.229,-0.435C0.266,-0.434 0.294,-0.442 0.314,-0.459C0.333,-0.476 0.343,-0.499 0.343,-0.527C0.343,-0.551 0.336,-0.57 0.322,-0.584C0.307,-0.599 0.288,-0.606 0.265,-0.606C0.241,-0.606 0.221,-0.598 0.205,-0.582C0.188,-0.565 0.178,-0.542 0.174,-0.51L0.048,-0.532C0.057,-0.575 0.07,-0.61 0.088,-0.635C0.105,-0.661 0.13,-0.682 0.162,-0.697C0.194,-0.711 0.229,-0.719 0.269,-0.719C0.336,-0.719 0.39,-0.697 0.431,-0.654C0.464,-0.619 0.481,-0.579 0.481,-0.535C0.481,-0.472 0.447,-0.422 0.378,-0.385C0.419,-0.376 0.452,-0.356 0.476,-0.326C0.501,-0.295 0.513,-0.258 0.513,-0.215C0.513,-0.152 0.49,-0.098 0.444,-0.054C0.398,-0.01 0.341,0.012 0.273,0.012C0.208,0.012 0.154,-0.006 0.112,-0.044C0.069,-0.081 0.044,-0.13 0.038,-0.19Z" style="fill:white;fill-rule:nonzero;"/>
                    </g>
                </g>
                <g id="tspan4281-5" transform="matrix(-1,0,0,-1,57.6834,40.7255)">
                    <g transform="matrix(2.56,0,0,2.56,0,0)">
                        <path d="M0.312,0L0.312,-0.144L0.019,-0.144L0.019,-0.264L0.329,-0.719L0.444,-0.719L0.444,-0.265L0.533,-0.265L0.533,-0.144L0.444,-0.144L0.444,0L0.312,0ZM0.312,-0.265L0.312,-0.509L0.147,-0.265L0.312,-0.265Z" style="fill:white;fill-rule:nonzero;"/>
                    </g>
                </g>
                <g id="tspan4281-18" transform="matrix(-1,0,0,-1,64.867,40.7654)">
                    <g transform="matrix(2.56,0,0,2.56,0,0)">
                        <path d="M0.044,-0.184L0.181,-0.198C0.185,-0.167 0.197,-0.143 0.216,-0.125C0.235,-0.107 0.257,-0.098 0.282,-0.098C0.311,-0.098 0.335,-0.109 0.355,-0.133C0.375,-0.156 0.385,-0.191 0.385,-0.238C0.385,-0.282 0.375,-0.315 0.355,-0.337C0.336,-0.359 0.31,-0.37 0.278,-0.37C0.239,-0.37 0.204,-0.352 0.172,-0.317L0.061,-0.333L0.131,-0.706L0.494,-0.706L0.494,-0.578L0.235,-0.578L0.214,-0.456C0.244,-0.471 0.276,-0.479 0.308,-0.479C0.368,-0.479 0.42,-0.457 0.462,-0.413C0.505,-0.368 0.526,-0.311 0.526,-0.24C0.526,-0.181 0.509,-0.129 0.475,-0.083C0.428,-0.019 0.363,0.012 0.281,0.012C0.215,0.012 0.161,-0.006 0.119,-0.041C0.077,-0.076 0.053,-0.124 0.044,-0.184Z" style="fill:white;fill-rule:nonzero;"/>
                    </g>
                </g>
                <g id="tspan4281-2" transform="matrix(-1,0,0,-1,72.1901,40.7451)">
                    <g transform="matrix(2.56,0,0,2.56,0,0)">
                        <path d="M0.507,-0.541L0.375,-0.526C0.371,-0.553 0.363,-0.573 0.349,-0.586C0.335,-0.599 0.318,-0.606 0.296,-0.606C0.267,-0.606 0.242,-0.593 0.222,-0.567C0.202,-0.541 0.19,-0.487 0.185,-0.404C0.219,-0.445 0.261,-0.465 0.312,-0.465C0.369,-0.465 0.418,-0.443 0.459,-0.399C0.5,-0.356 0.521,-0.299 0.521,-0.23C0.521,-0.157 0.499,-0.098 0.456,-0.054C0.413,-0.01 0.358,0.012 0.291,0.012C0.218,0.012 0.159,-0.016 0.112,-0.072C0.066,-0.128 0.042,-0.22 0.042,-0.348C0.042,-0.479 0.067,-0.574 0.115,-0.632C0.164,-0.69 0.227,-0.719 0.304,-0.719C0.359,-0.719 0.404,-0.704 0.439,-0.673C0.475,-0.643 0.498,-0.598 0.507,-0.541ZM0.196,-0.241C0.196,-0.197 0.207,-0.162 0.227,-0.138C0.248,-0.114 0.271,-0.102 0.297,-0.102C0.323,-0.102 0.344,-0.111 0.361,-0.131C0.378,-0.151 0.386,-0.184 0.386,-0.229C0.386,-0.276 0.377,-0.31 0.359,-0.331C0.341,-0.353 0.318,-0.364 0.291,-0.364C0.264,-0.364 0.242,-0.353 0.224,-0.333C0.205,-0.312 0.196,-0.282 0.196,-0.241Z" style="fill:white;fill-rule:nonzero;"/>
                    </g>
                </g>
                <g id="tspan4281-54" transform="matrix(-1,0,0,-1,79.2389,40.7459)">
                    <g transform="matrix(2.56,0,0,2.56,0,0)">
                        <path d="M0.042,-0.579L0.042,-0.706L0.512,-0.706L0.512,-0.606C0.473,-0.568 0.434,-0.514 0.394,-0.442C0.354,-0.371 0.323,-0.295 0.302,-0.215C0.281,-0.135 0.271,-0.063 0.271,0L0.139,0C0.141,-0.099 0.161,-0.2 0.2,-0.303C0.239,-0.406 0.29,-0.498 0.354,-0.579L0.042,-0.579Z" style="fill:white;fill-rule:nonzero;"/>
                    </g>
                </g>
                <g id="tspan4281-12" transform="matrix(-1,0,0,-1,86.3892,40.7459)">
                    <g transform="matrix(2.56,0,0,2.56,0,0)">
                        <path d="M0.16,-0.386C0.125,-0.401 0.099,-0.422 0.083,-0.448C0.067,-0.474 0.059,-0.503 0.059,-0.534C0.059,-0.588 0.077,-0.632 0.115,-0.667C0.152,-0.701 0.205,-0.719 0.273,-0.719C0.341,-0.719 0.394,-0.701 0.432,-0.667C0.469,-0.632 0.488,-0.588 0.488,-0.534C0.488,-0.501 0.48,-0.471 0.462,-0.446C0.445,-0.42 0.421,-0.4 0.39,-0.386C0.429,-0.37 0.46,-0.347 0.48,-0.316C0.501,-0.286 0.511,-0.25 0.511,-0.21C0.511,-0.144 0.49,-0.091 0.448,-0.049C0.406,-0.008 0.35,0.013 0.28,0.013C0.215,0.013 0.16,-0.004 0.117,-0.039C0.066,-0.079 0.041,-0.134 0.041,-0.205C0.041,-0.243 0.05,-0.279 0.069,-0.311C0.089,-0.344 0.119,-0.369 0.16,-0.386ZM0.188,-0.524C0.188,-0.497 0.196,-0.476 0.212,-0.46C0.227,-0.445 0.248,-0.438 0.273,-0.438C0.299,-0.438 0.32,-0.445 0.336,-0.461C0.352,-0.476 0.359,-0.498 0.359,-0.525C0.359,-0.551 0.352,-0.571 0.336,-0.587C0.321,-0.602 0.3,-0.61 0.275,-0.61C0.249,-0.61 0.228,-0.602 0.212,-0.586C0.196,-0.571 0.188,-0.55 0.188,-0.524ZM0.176,-0.218C0.176,-0.18 0.185,-0.151 0.205,-0.129C0.224,-0.108 0.248,-0.098 0.277,-0.098C0.306,-0.098 0.329,-0.108 0.348,-0.128C0.366,-0.149 0.375,-0.178 0.375,-0.216C0.375,-0.25 0.366,-0.277 0.347,-0.297C0.328,-0.317 0.304,-0.328 0.275,-0.328C0.242,-0.328 0.217,-0.316 0.2,-0.293C0.184,-0.27 0.176,-0.245 0.176,-0.218Z" style="fill:white;fill-rule:nonzero;"/>
                    </g>
                </g>
                <g id="tspan4281-4" transform="matrix(-1,0,0,-1,93.6166,40.7459)">
                    <g transform="matrix(2.56,0,0,2.56,0,0)">
                        <path d="M0.045,-0.166L0.178,-0.18C0.181,-0.153 0.19,-0.133 0.204,-0.12C0.217,-0.107 0.235,-0.101 0.258,-0.101C0.286,-0.101 0.31,-0.114 0.33,-0.14C0.35,-0.166 0.363,-0.22 0.368,-0.302C0.334,-0.262 0.291,-0.242 0.239,-0.242C0.182,-0.242 0.134,-0.263 0.093,-0.307C0.052,-0.35 0.032,-0.407 0.032,-0.477C0.032,-0.549 0.053,-0.608 0.096,-0.652C0.14,-0.697 0.194,-0.719 0.261,-0.719C0.334,-0.719 0.393,-0.691 0.44,-0.635C0.486,-0.578 0.51,-0.486 0.51,-0.357C0.51,-0.227 0.486,-0.132 0.437,-0.074C0.389,-0.016 0.325,0.013 0.248,0.013C0.192,0.013 0.146,-0.002 0.112,-0.032C0.077,-0.062 0.055,-0.106 0.045,-0.166ZM0.356,-0.465C0.356,-0.51 0.346,-0.544 0.325,-0.568C0.305,-0.593 0.282,-0.605 0.255,-0.605C0.229,-0.605 0.208,-0.595 0.192,-0.575C0.175,-0.555 0.167,-0.522 0.167,-0.477C0.167,-0.43 0.176,-0.396 0.194,-0.375C0.212,-0.353 0.235,-0.342 0.262,-0.342C0.289,-0.342 0.311,-0.353 0.329,-0.374C0.347,-0.394 0.356,-0.425 0.356,-0.465Z" style="fill:white;fill-rule:nonzero;"/>
                    </g>
                </g>
                <g id="tspan4281-13" transform="matrix(-1,0,0,-1,94.7023,7.36711)">
                    <g transform="matrix(2.56,0,0,2.56,0,0)">
                        <path d="M0.394,0L0.256,0L0.256,-0.517C0.206,-0.47 0.147,-0.436 0.079,-0.413L0.079,-0.538C0.115,-0.549 0.154,-0.572 0.196,-0.604C0.238,-0.637 0.267,-0.675 0.282,-0.719L0.394,-0.719L0.394,0Z" style="fill:white;fill-rule:nonzero;"/>
                    </g>
                    <g transform="matrix(2.56,0,0,2.56,1.42375,0)">
                        <path d="M0.274,-0.719C0.344,-0.719 0.398,-0.694 0.437,-0.645C0.484,-0.586 0.507,-0.489 0.507,-0.353C0.507,-0.218 0.483,-0.12 0.437,-0.061C0.398,-0.012 0.344,0.012 0.274,0.012C0.205,0.012 0.149,-0.015 0.106,-0.068C0.063,-0.122 0.042,-0.217 0.042,-0.354C0.042,-0.489 0.065,-0.586 0.112,-0.646C0.151,-0.694 0.205,-0.719 0.274,-0.719ZM0.274,-0.605C0.258,-0.605 0.243,-0.6 0.23,-0.589C0.217,-0.579 0.207,-0.56 0.2,-0.532C0.19,-0.497 0.186,-0.437 0.186,-0.353C0.186,-0.269 0.19,-0.211 0.198,-0.18C0.207,-0.149 0.217,-0.128 0.23,-0.117C0.243,-0.107 0.258,-0.102 0.274,-0.102C0.291,-0.102 0.306,-0.107 0.319,-0.117C0.332,-0.128 0.342,-0.147 0.349,-0.174C0.359,-0.209 0.363,-0.269 0.363,-0.353C0.363,-0.437 0.359,-0.495 0.351,-0.526C0.342,-0.558 0.331,-0.579 0.319,-0.589C0.306,-0.6 0.291,-0.605 0.274,-0.605Z" style="fill:white;fill-rule:nonzero;"/>
                    </g>
                </g>
                <g id="tspan4281-42" transform="matrix(-1,0,0,-1,87.4649,7.36711)">
                    <g transform="matrix(2.56,0,0,2.56,0,0)">
                        <path d="M0.394,0L0.256,0L0.256,-0.517C0.206,-0.47 0.147,-0.436 0.079,-0.413L0.079,-0.538C0.115,-0.549 0.154,-0.572 0.196,-0.604C0.238,-0.637 0.267,-0.675 0.282,-0.719L0.394,-0.719L0.394,0Z" style="fill:white;fill-rule:nonzero;"/>
                    </g>
                    <g transform="matrix(2.56,0,0,2.56,1.42375,0)">
                        <path d="M0.507,-0.541L0.375,-0.526C0.371,-0.553 0.363,-0.573 0.349,-0.586C0.335,-0.599 0.318,-0.606 0.296,-0.606C0.267,-0.606 0.242,-0.593 0.222,-0.567C0.202,-0.541 0.19,-0.487 0.185,-0.404C0.219,-0.445 0.261,-0.465 0.312,-0.465C0.369,-0.465 0.418,-0.443 0.459,-0.399C0.5,-0.356 0.521,-0.299 0.521,-0.23C0.521,-0.157 0.499,-0.098 0.456,-0.054C0.413,-0.01 0.358,0.012 0.291,0.012C0.218,0.012 0.159,-0.016 0.112,-0.072C0.066,-0.128 0.042,-0.22 0.042,-0.348C0.042,-0.479 0.067,-0.574 0.115,-0.632C0.164,-0.69 0.227,-0.719 0.304,-0.719C0.359,-0.719 0.404,-0.704 0.439,-0.673C0.475,-0.643 0.498,-0.598 0.507,-0.541ZM0.196,-0.241C0.196,-0.197 0.207,-0.162 0.227,-0.138C0.248,-0.114 0.271,-0.102 0.297,-0.102C0.323,-0.102 0.344,-0.111 0.361,-0.131C0.378,-0.151 0.386,-0.184 0.386,-0.229C0.386,-0.276 0.377,-0.31 0.359,-0.331C0.341,-0.353 0.318,-0.364 0.291,-0.364C0.264,-0.364 0.242,-0.353 0.224,-0.333C0.205,-0.312 0.196,-0.282 0.196,-0.241Z" style="fill:white;fill-rule:nonzero;"/>
                    </g>
                </g>
                <g id="tspan4281-9" transform="matrix(-1,0,0,-1,80.226,7.3476)">
                    <g transform="matrix(2.56,0,0,2.56,0,0)">
                        <path d="M0.394,0L0.256,0L0.256,-0.517C0.206,-0.47 0.147,-0.436 0.079,-0.413L0.079,-0.538C0.115,-0.549 0.154,-0.572 0.196,-0.604C0.238,-0.637 0.267,-0.675 0.282,-0.719L0.394,-0.719L0.394,0Z" style="fill:white;fill-rule:nonzero;"/>
                    </g>
                    <g transform="matrix(2.56,0,0,2.56,1.42375,0)">
                        <path d="M0.312,0L0.312,-0.144L0.019,-0.144L0.019,-0.264L0.329,-0.719L0.444,-0.719L0.444,-0.265L0.533,-0.265L0.533,-0.144L0.444,-0.144L0.444,0L0.312,0ZM0.312,-0.265L0.312,-0.509L0.147,-0.265L0.312,-0.265Z" style="fill:white;fill-rule:nonzero;"/>
                    </g>
                </g>
                <g id="tspan4281-98" transform="matrix(-1,0,0,-1,72.9554,7.36711)">
                    <g transform="matrix(2.56,0,0,2.56,0,0)">
                        <path d="M0.394,0L0.256,0L0.256,-0.517C0.206,-0.47 0.147,-0.436 0.079,-0.413L0.079,-0.538C0.115,-0.549 0.154,-0.572 0.196,-0.604C0.238,-0.637 0.267,-0.675 0.282,-0.719L0.394,-0.719L0.394,0Z" style="fill:white;fill-rule:nonzero;"/>
                    </g>
                    <g transform="matrix(2.56,0,0,2.56,1.42375,0)">
                        <path d="M0.044,-0.184L0.181,-0.198C0.185,-0.167 0.197,-0.143 0.216,-0.125C0.235,-0.107 0.257,-0.098 0.282,-0.098C0.311,-0.098 0.335,-0.109 0.355,-0.133C0.375,-0.156 0.385,-0.191 0.385,-0.238C0.385,-0.282 0.375,-0.315 0.355,-0.337C0.336,-0.359 0.31,-0.37 0.278,-0.37C0.239,-0.37 0.204,-0.352 0.172,-0.317L0.061,-0.333L0.131,-0.706L0.494,-0.706L0.494,-0.578L0.235,-0.578L0.214,-0.456C0.244,-0.471 0.276,-0.479 0.308,-0.479C0.368,-0.479 0.42,-0.457 0.462,-0.413C0.505,-0.368 0.526,-0.311 0.526,-0.24C0.526,-0.181 0.509,-0.129 0.475,-0.083C0.428,-0.019 0.363,0.012 0.281,0.012C0.215,0.012 0.161,-0.006 0.119,-0.041C0.077,-0.076 0.053,-0.124 0.044,-0.184Z" style="fill:white;fill-rule:nonzero;"/>
                    </g>
                </g>
                <g id="tspan4281-0" transform="matrix(-1,0,0,-1,65.805,7.36711)">
                    <g transform="matrix(2.56,0,0,2.56,0,0)">
                        <path d="M0.718,0L0.561,0L0.499,-0.163L0.212,-0.163L0.153,0L0,0L0.279,-0.716L0.432,-0.716L0.718,0ZM0.452,-0.283L0.354,-0.549L0.257,-0.283L0.452,-0.283Z" style="fill:white;fill-rule:nonzero;"/>
                    </g>
                    <g transform="matrix(2.56,0,0,2.56,1.84875,0)">
                        <path d="M0.274,-0.719C0.344,-0.719 0.398,-0.694 0.437,-0.645C0.484,-0.586 0.507,-0.489 0.507,-0.353C0.507,-0.218 0.483,-0.12 0.437,-0.061C0.398,-0.012 0.344,0.012 0.274,0.012C0.205,0.012 0.149,-0.015 0.106,-0.068C0.063,-0.122 0.042,-0.217 0.042,-0.354C0.042,-0.489 0.065,-0.586 0.112,-0.646C0.151,-0.694 0.205,-0.719 0.274,-0.719ZM0.274,-0.605C0.258,-0.605 0.243,-0.6 0.23,-0.589C0.217,-0.579 0.207,-0.56 0.2,-0.532C0.19,-0.497 0.186,-0.437 0.186,-0.353C0.186,-0.269 0.19,-0.211 0.198,-0.18C0.207,-0.149 0.217,-0.128 0.23,-0.117C0.243,-0.107 0.258,-0.102 0.274,-0.102C0.291,-0.102 0.306,-0.107 0.319,-0.117C0.332,-0.128 0.342,-0.147 0.349,-0.174C0.359,-0.209 0.363,-0.269 0.363,-0.353C0.363,-0.437 0.359,-0.495 0.351,-0.526C0.342,-0.558 0.331,-0.579 0.319,-0.589C0.306,-0.6 0.291,-0.605 0.274,-0.605Z" style="fill:white;fill-rule:nonzero;"/>
                    </g>
                </g>
                <g id="tspan4281-6" transform="matrix(-1,0,0,-1,58.3646,7.3476)">
                    <g transform="matrix(2.56,0,0,2.56,0,0)">
                        <path d="M0.718,0L0.561,0L0.499,-0.163L0.212,-0.163L0.153,0L0,0L0.279,-0.716L0.432,-0.716L0.718,0ZM0.452,-0.283L0.354,-0.549L0.257,-0.283L0.452,-0.283Z" style="fill:white;fill-rule:nonzero;"/>
                    </g>
                    <g transform="matrix(2.56,0,0,2.56,1.84875,0)">
                        <path d="M0.394,0L0.256,0L0.256,-0.517C0.206,-0.47 0.147,-0.436 0.079,-0.413L0.079,-0.538C0.115,-0.549 0.154,-0.572 0.196,-0.604C0.238,-0.637 0.267,-0.675 0.282,-0.719L0.394,-0.719L0.394,0Z" style="fill:white;fill-rule:nonzero;"/>
                    </g>
                </g>
                <g id="tspan4281-24" transform="matrix(-1,0,0,-1,51.2853,7.3476)">
                    <g transform="matrix(2.56,0,0,2.56,0,0)">
                        <path d="M0.718,0L0.561,0L0.499,-0.163L0.212,-0.163L0.153,0L0,0L0.279,-0.716L0.432,-0.716L0.718,0ZM0.452,-0.283L0.354,-0.549L0.257,-0.283L0.452,-0.283Z" style="fill:white;fill-rule:nonzero;"/>
                    </g>
                    <g transform="matrix(2.56,0,0,2.56,1.84875,0)">
                        <path d="M0.506,-0.127L0.506,0L0.025,0C0.03,-0.048 0.046,-0.094 0.072,-0.137C0.098,-0.18 0.149,-0.237 0.226,-0.309C0.288,-0.366 0.326,-0.405 0.34,-0.426C0.359,-0.454 0.368,-0.482 0.368,-0.51C0.368,-0.54 0.36,-0.564 0.344,-0.58C0.327,-0.597 0.304,-0.605 0.275,-0.605C0.247,-0.605 0.224,-0.596 0.207,-0.579C0.19,-0.562 0.18,-0.533 0.178,-0.493L0.041,-0.507C0.049,-0.582 0.075,-0.637 0.118,-0.669C0.161,-0.702 0.214,-0.719 0.279,-0.719C0.349,-0.719 0.405,-0.7 0.445,-0.662C0.486,-0.624 0.506,-0.576 0.506,-0.52C0.506,-0.487 0.5,-0.457 0.489,-0.427C0.477,-0.398 0.459,-0.368 0.434,-0.336C0.417,-0.315 0.387,-0.284 0.344,-0.245C0.3,-0.205 0.273,-0.179 0.261,-0.166C0.25,-0.153 0.241,-0.14 0.233,-0.127L0.506,-0.127Z" style="fill:white;fill-rule:nonzero;"/>
                    </g>
                </g>
                <g id="tspan4281-50" transform="matrix(-1,0,0,-1,44.038,7.36711)">
                    <g transform="matrix(2.56,0,0,2.56,0,0)">
                        <path d="M0.718,0L0.561,0L0.499,-0.163L0.212,-0.163L0.153,0L0,0L0.279,-0.716L0.432,-0.716L0.718,0ZM0.452,-0.283L0.354,-0.549L0.257,-0.283L0.452,-0.283Z" style="fill:white;fill-rule:nonzero;"/>
                    </g>
                    <g transform="matrix(2.56,0,0,2.56,1.84875,0)">
                        <path d="M0.038,-0.19L0.17,-0.206C0.175,-0.172 0.186,-0.146 0.205,-0.128C0.223,-0.111 0.246,-0.102 0.272,-0.102C0.3,-0.102 0.324,-0.112 0.344,-0.134C0.363,-0.155 0.373,-0.184 0.373,-0.221C0.373,-0.255 0.363,-0.283 0.345,-0.303C0.326,-0.323 0.304,-0.333 0.277,-0.333C0.259,-0.333 0.238,-0.33 0.214,-0.323L0.229,-0.435C0.266,-0.434 0.294,-0.442 0.314,-0.459C0.333,-0.476 0.343,-0.499 0.343,-0.527C0.343,-0.551 0.336,-0.57 0.322,-0.584C0.307,-0.599 0.288,-0.606 0.265,-0.606C0.241,-0.606 0.221,-0.598 0.205,-0.582C0.188,-0.565 0.178,-0.542 0.174,-0.51L0.048,-0.532C0.057,-0.575 0.07,-0.61 0.088,-0.635C0.105,-0.661 0.13,-0.682 0.162,-0.697C0.194,-0.711 0.229,-0.719 0.269,-0.719C0.336,-0.719 0.39,-0.697 0.431,-0.654C0.464,-0.619 0.481,-0.579 0.481,-0.535C0.481,-0.472 0.447,-0.422 0.378,-0.385C0.419,-0.376 0.452,-0.356 0.476,-0.326C0.501,-0.295 0.513,-0.258 0.513,-0.215C0.513,-0.152 0.49,-0.098 0.444,-0.054C0.398,-0.01 0.341,0.012 0.273,0.012C0.208,0.012 0.154,-0.006 0.112,-0.044C0.069,-0.081 0.044,-0.13 0.038,-0.19Z" style="fill:white;fill-rule:nonzero;"/>
                    </g>
                </g>
                <g id="tspan4281-06" transform="matrix(-1,0,0,-1,37.687,7.49542)">
                    <g transform="matrix(2.24001,0,0,2.24001,0,0)">
                        <path d="M0.255,0L0,-0.716L0.156,-0.716L0.337,-0.186L0.513,-0.716L0.666,-0.716L0.41,0L0.255,0Z" style="fill:white;fill-rule:nonzero;"/>
                    </g>
                    <g transform="matrix(2.24001,0,0,2.24001,1.49407,0)">
                        <path d="M0.531,-0.263L0.671,-0.219C0.649,-0.141 0.614,-0.083 0.564,-0.045C0.514,-0.007 0.45,0.012 0.374,0.012C0.278,0.012 0.2,-0.02 0.139,-0.085C0.078,-0.15 0.047,-0.239 0.047,-0.352C0.047,-0.471 0.078,-0.563 0.14,-0.629C0.201,-0.695 0.282,-0.728 0.382,-0.728C0.47,-0.728 0.541,-0.702 0.596,-0.65C0.628,-0.62 0.653,-0.576 0.669,-0.519L0.526,-0.484C0.517,-0.521 0.5,-0.551 0.473,-0.572C0.446,-0.594 0.413,-0.604 0.375,-0.604C0.322,-0.604 0.279,-0.585 0.246,-0.547C0.213,-0.509 0.196,-0.448 0.196,-0.362C0.196,-0.272 0.213,-0.207 0.245,-0.169C0.278,-0.131 0.32,-0.111 0.372,-0.111C0.41,-0.111 0.444,-0.124 0.471,-0.148C0.499,-0.172 0.519,-0.211 0.531,-0.263Z" style="fill:white;fill-rule:nonzero;"/>
                    </g>
                    <g transform="matrix(2.24001,0,0,2.24001,3.11173,0)">
                        <path d="M0.531,-0.263L0.671,-0.219C0.649,-0.141 0.614,-0.083 0.564,-0.045C0.514,-0.007 0.45,0.012 0.374,0.012C0.278,0.012 0.2,-0.02 0.139,-0.085C0.078,-0.15 0.047,-0.239 0.047,-0.352C0.047,-0.471 0.078,-0.563 0.14,-0.629C0.201,-0.695 0.282,-0.728 0.382,-0.728C0.47,-0.728 0.541,-0.702 0.596,-0.65C0.628,-0.62 0.653,-0.576 0.669,-0.519L0.526,-0.484C0.517,-0.521 0.5,-0.551 0.473,-0.572C0.446,-0.594 0.413,-0.604 0.375,-0.604C0.322,-0.604 0.279,-0.585 0.246,-0.547C0.213,-0.509 0.196,-0.448 0.196,-0.362C0.196,-0.272 0.213,-0.207 0.245,-0.169C0.278,-0.131 0.32,-0.111 0.372,-0.111C0.41,-0.111 0.444,-0.124 0.471,-0.148C0.499,-0.172 0.519,-0.211 0.531,-0.263Z" style="fill:white;fill-rule:nonzero;"/>
                    </g>
                </g>
                <g id="tspan4281-8" transform="matrix(-1,0,0,-1,30.4184,7.49614)">
                    <g transform="matrix(2.24001,0,0,2.24001,0,0)">
                        <path d="M0.073,0L0.073,-0.716L0.377,-0.716C0.454,-0.716 0.51,-0.709 0.544,-0.697C0.579,-0.684 0.607,-0.661 0.627,-0.628C0.648,-0.595 0.659,-0.557 0.659,-0.515C0.659,-0.461 0.643,-0.417 0.611,-0.382C0.58,-0.347 0.533,-0.325 0.47,-0.316C0.501,-0.298 0.527,-0.278 0.547,-0.256C0.567,-0.234 0.595,-0.195 0.629,-0.14L0.717,0L0.544,0L0.439,-0.156C0.402,-0.211 0.377,-0.247 0.363,-0.261C0.35,-0.275 0.335,-0.285 0.32,-0.291C0.305,-0.296 0.28,-0.299 0.247,-0.299L0.218,-0.299L0.218,0L0.073,0ZM0.218,-0.413L0.325,-0.413C0.394,-0.413 0.437,-0.416 0.455,-0.422C0.472,-0.428 0.485,-0.438 0.495,-0.452C0.505,-0.466 0.51,-0.484 0.51,-0.506C0.51,-0.53 0.503,-0.549 0.49,-0.564C0.478,-0.579 0.459,-0.588 0.436,-0.592C0.424,-0.594 0.389,-0.595 0.331,-0.595L0.218,-0.595L0.218,-0.413Z" style="fill:white;fill-rule:nonzero;"/>
                    </g>
                    <g transform="matrix(2.24001,0,0,2.24001,1.61766,0)">
                        <path d="M0.036,-0.233L0.177,-0.247C0.185,-0.199 0.202,-0.165 0.228,-0.143C0.254,-0.12 0.289,-0.109 0.333,-0.109C0.38,-0.109 0.415,-0.119 0.438,-0.139C0.462,-0.159 0.474,-0.182 0.474,-0.208C0.474,-0.225 0.469,-0.239 0.459,-0.251C0.449,-0.263 0.431,-0.273 0.407,-0.282C0.39,-0.288 0.351,-0.299 0.291,-0.313C0.214,-0.333 0.159,-0.356 0.128,-0.384C0.084,-0.424 0.062,-0.472 0.062,-0.528C0.062,-0.565 0.072,-0.599 0.093,-0.631C0.114,-0.662 0.143,-0.687 0.182,-0.703C0.221,-0.72 0.268,-0.728 0.323,-0.728C0.413,-0.728 0.481,-0.708 0.526,-0.669C0.572,-0.63 0.595,-0.577 0.598,-0.511L0.453,-0.505C0.447,-0.542 0.434,-0.568 0.413,-0.584C0.393,-0.6 0.362,-0.608 0.322,-0.608C0.28,-0.608 0.247,-0.6 0.223,-0.583C0.208,-0.571 0.2,-0.557 0.2,-0.538C0.2,-0.521 0.207,-0.507 0.222,-0.495C0.24,-0.479 0.284,-0.463 0.354,-0.447C0.425,-0.43 0.477,-0.413 0.51,-0.395C0.544,-0.378 0.571,-0.353 0.59,-0.323C0.609,-0.292 0.618,-0.254 0.618,-0.208C0.618,-0.167 0.607,-0.129 0.584,-0.093C0.561,-0.057 0.529,-0.031 0.487,-0.013C0.446,0.004 0.394,0.013 0.332,0.013C0.241,0.013 0.172,-0.008 0.123,-0.05C0.075,-0.092 0.046,-0.153 0.036,-0.233Z" style="fill:white;fill-rule:nonzero;"/>
                    </g>
                    <g transform="matrix(2.24001,0,0,2.24001,3.11173,0)">
                        <path d="M0.234,0L0.234,-0.595L0.021,-0.595L0.021,-0.716L0.59,-0.716L0.59,-0.595L0.378,-0.595L0.378,0L0.234,0Z" style="fill:white;fill-rule:nonzero;"/>
                    </g>
                </g>
                <g id="tspan4281-44" transform="matrix(-1,0,0,-1,23.3918,7.49542)">
                    <g transform="matrix(2.24001,0,0,2.24001,0,0)">
                        <path d="M0.406,-0.263L0.406,-0.384L0.717,-0.384L0.717,-0.099C0.687,-0.069 0.643,-0.044 0.586,-0.021C0.528,0.001 0.47,0.012 0.411,0.012C0.336,0.012 0.271,-0.003 0.215,-0.035C0.16,-0.066 0.118,-0.111 0.09,-0.17C0.062,-0.228 0.048,-0.292 0.048,-0.36C0.048,-0.435 0.063,-0.501 0.095,-0.559C0.126,-0.617 0.172,-0.661 0.232,-0.692C0.278,-0.716 0.335,-0.728 0.403,-0.728C0.492,-0.728 0.562,-0.709 0.612,-0.672C0.662,-0.635 0.694,-0.583 0.708,-0.518L0.564,-0.491C0.554,-0.526 0.535,-0.554 0.508,-0.574C0.48,-0.594 0.445,-0.604 0.403,-0.604C0.34,-0.604 0.29,-0.584 0.253,-0.544C0.215,-0.504 0.197,-0.445 0.197,-0.366C0.197,-0.281 0.216,-0.218 0.253,-0.175C0.291,-0.133 0.341,-0.111 0.402,-0.111C0.432,-0.111 0.462,-0.117 0.493,-0.129C0.523,-0.141 0.549,-0.155 0.571,-0.172L0.571,-0.263L0.406,-0.263Z" style="fill:white;fill-rule:nonzero;"/>
                    </g>
                    <g transform="matrix(2.24001,0,0,2.24001,1.74235,0)">
                        <path d="M0.074,0L0.074,-0.716L0.215,-0.716L0.508,-0.238L0.508,-0.716L0.642,-0.716L0.642,0L0.497,0L0.208,-0.467L0.208,0L0.074,0Z" style="fill:white;fill-rule:nonzero;"/>
                    </g>
                    <g transform="matrix(2.24001,0,0,2.24001,3.36001,0)">
                        <path d="M0.072,-0.716L0.336,-0.716C0.396,-0.716 0.441,-0.711 0.473,-0.702C0.515,-0.69 0.551,-0.668 0.581,-0.636C0.611,-0.605 0.633,-0.566 0.649,-0.52C0.665,-0.475 0.672,-0.418 0.672,-0.351C0.672,-0.292 0.665,-0.241 0.65,-0.199C0.632,-0.147 0.607,-0.104 0.574,-0.072C0.549,-0.048 0.515,-0.029 0.472,-0.015C0.44,-0.005 0.398,0 0.344,0L0.072,0L0.072,-0.716ZM0.217,-0.595L0.217,-0.121L0.325,-0.121C0.365,-0.121 0.394,-0.123 0.412,-0.127C0.436,-0.133 0.455,-0.143 0.47,-0.157C0.486,-0.171 0.499,-0.194 0.508,-0.226C0.518,-0.258 0.523,-0.302 0.523,-0.357C0.523,-0.413 0.518,-0.455 0.508,-0.485C0.499,-0.514 0.485,-0.538 0.467,-0.554C0.45,-0.571 0.427,-0.582 0.4,-0.588C0.38,-0.592 0.341,-0.595 0.282,-0.595L0.217,-0.595Z" style="fill:white;fill-rule:nonzero;"/>
                    </g>
                </g>
                <g id="tspan4281-66" transform="matrix(-1,0,0,-1,16.4704,7.49542)">
                    <g transform="matrix(2.24001,0,0,2.24001,0,0)">
                        <path d="M0.073,0L0.073,-0.716L0.377,-0.716C0.454,-0.716 0.51,-0.709 0.544,-0.697C0.579,-0.684 0.607,-0.661 0.627,-0.628C0.648,-0.595 0.659,-0.557 0.659,-0.515C0.659,-0.461 0.643,-0.417 0.611,-0.382C0.58,-0.347 0.533,-0.325 0.47,-0.316C0.501,-0.298 0.527,-0.278 0.547,-0.256C0.567,-0.234 0.595,-0.195 0.629,-0.14L0.717,0L0.544,0L0.439,-0.156C0.402,-0.211 0.377,-0.247 0.363,-0.261C0.35,-0.275 0.335,-0.285 0.32,-0.291C0.305,-0.296 0.28,-0.299 0.247,-0.299L0.218,-0.299L0.218,0L0.073,0ZM0.218,-0.413L0.325,-0.413C0.394,-0.413 0.437,-0.416 0.455,-0.422C0.472,-0.428 0.485,-0.438 0.495,-0.452C0.505,-0.466 0.51,-0.484 0.51,-0.506C0.51,-0.53 0.503,-0.549 0.49,-0.564C0.478,-0.579 0.459,-0.588 0.436,-0.592C0.424,-0.594 0.389,-0.595 0.331,-0.595L0.218,-0.595L0.218,-0.413Z" style="fill:white;fill-rule:nonzero;"/>
                    </g>
                    <g transform="matrix(2.24001,0,0,2.24001,1.61766,0)">
                        <path d="M0.718,0L0.561,0L0.499,-0.163L0.212,-0.163L0.153,0L0,0L0.279,-0.716L0.432,-0.716L0.718,0ZM0.452,-0.283L0.354,-0.549L0.257,-0.283L0.452,-0.283Z" style="fill:white;fill-rule:nonzero;"/>
                    </g>
                    <g transform="matrix(2.24001,0,0,2.24001,3.11173,0)">
                        <path d="M0.174,0L0.003,-0.716L0.151,-0.716L0.259,-0.224L0.39,-0.716L0.562,-0.716L0.688,-0.216L0.797,-0.716L0.943,-0.716L0.769,0L0.616,0L0.473,-0.535L0.331,0L0.174,0Z" style="fill:white;fill-rule:nonzero;"/>
                    </g>
                </g>
                <g id="rect4723" transform="matrix(-1,0,0,-1,0,0)">
                    <rect x="-8.49" y="-48.918" width="3.776" height="4.681" style="fill:none;stroke:white;stroke-width:0.5px;"/>
                </g>
                <g id="connector11pin" transform="matrix(-0.72265,0,0,-0.731144,96.2978,50.3438)">
                    <path d="M9.383,4.687C9.383,4.689 9.383,4.692 9.383,4.695C9.383,7.051 7.393,8.991 4.974,8.991C2.556,8.991 0.565,7.051 0.565,4.695C0.565,4.692 0.565,4.689 0.565,4.687C0.565,4.684 0.565,4.682 0.565,4.679C0.565,2.322 2.556,0.383 4.974,0.383C7.393,0.383 9.383,2.322 9.383,4.679C9.383,4.682 9.383,4.684 9.383,4.687Z" style="fill:none;fill-rule:nonzero;stroke:white;stroke-width:0.6px;"/>
                </g>
                <g id="connector8pin" transform="matrix(-0.72265,0,0,-0.731144,74.6813,50.3438)">
                    <path d="M9.383,4.687C9.383,4.689 9.383,4.692 9.383,4.695C9.383,7.051 7.393,8.991 4.974,8.991C2.556,8.991 0.565,7.051 0.565,4.695C0.565,4.692 0.565,4.689 0.565,4.687C0.565,4.684 0.565,4.682 0.565,4.679C0.565,2.322 2.556,0.383 4.974,0.383C7.393,0.383 9.383,2.322 9.383,4.679C9.383,4.682 9.383,4.684 9.383,4.687Z" style="fill:none;fill-rule:nonzero;stroke:white;stroke-width:0.6px;"/>
                </g>
                <g id="path4725-8" transform="matrix(-0.72265,0,0,-0.731144,67.5366,50.3438)">
                    <path d="M9.383,4.687C9.383,4.689 9.383,4.692 9.383,4.695C9.383,7.051 7.393,8.991 4.974,8.991C2.556,8.991 0.565,7.051 0.565,4.695C0.565,4.692 0.565,4.689 0.565,4.687C0.565,4.684 0.565,4.682 0.565,4.679C0.565,2.322 2.556,0.383 4.974,0.383C7.393,0.383 9.383,2.322 9.383,4.679C9.383,4.682 9.383,4.684 9.383,4.687Z" style="fill:none;fill-rule:nonzero;stroke:white;stroke-width:0.6px;"/>
                </g>
                <g id="connector5pin" transform="matrix(-0.72265,0,0,-0.731144,53.1564,50.3438)">
                    <path d="M9.383,4.687C9.383,4.689 9.383,4.692 9.383,4.695C9.383,7.051 7.393,8.991 4.974,8.991C2.556,8.991 0.565,7.051 0.565,4.695C0.565,4.692 0.565,4.689 0.565,4.687C0.565,4.684 0.565,4.682 0.565,4.679C0.565,2.322 2.556,0.383 4.974,0.383C7.393,0.383 9.383,2.322 9.383,4.679C9.383,4.682 9.383,4.684 9.383,4.687Z" style="fill:none;fill-rule:nonzero;stroke:white;stroke-width:0.6px;"/>
                </g>
                <g id="connector12pin" transform="matrix(-0.72265,0,0,-0.731144,96.2971,7.13478)">
                    <path d="M9.383,4.687C9.383,4.689 9.383,4.692 9.383,4.695C9.383,7.051 7.393,8.991 4.974,8.991C2.556,8.991 0.565,7.051 0.565,4.695C0.565,4.692 0.565,4.689 0.565,4.687C0.565,4.684 0.565,4.682 0.565,4.679C0.565,2.322 2.556,0.383 4.974,0.383C7.393,0.383 9.383,2.322 9.383,4.679C9.383,4.682 9.383,4.684 9.383,4.687Z" style="fill:none;fill-rule:nonzero;stroke:white;stroke-width:0.6px;"/>
                </g>
            </g>
        </g>
    </g>
</svg>
