<?xml version="1.0" encoding="UTF-8" standalone="no"?>
<!DOCTYPE svg PUBLIC "-//W3C//DTD SVG 1.1//EN" "http://www.w3.org/Graphics/SVG/1.1/DTD/svg11.dtd">
<svg width="100%" height="100%" viewBox="0 0 128 128" version="1.1" xmlns="http://www.w3.org/2000/svg" xmlns:xlink="http://www.w3.org/1999/xlink" xml:space="preserve" xmlns:serif="http://www.serif.com/" style="fill-rule:evenodd;clip-rule:evenodd;stroke-linecap:round;">
    <g transform="matrix(4.48195e-17,-0.731959,0.731959,4.48195e-17,28.5165,90.5977)">
        <g id="icon">
            <g>
                <g transform="matrix(1,0,0,1,23.4,93.2)">
                    <path d="M1.037,1.44L1.037,1.918L0.376,3L0,3L1.037,1.44Z" style="fill:rgb(179,179,179);fill-rule:nonzero;"/>
                    <path d="M1.037,1.918L1.038,1.918L1.037,2.457L0.376,3L1.037,1.918Z" style="fill:rgb(204,204,204);fill-rule:nonzero;"/>
                    <path d="M22,3L21.624,3L20.963,1.918L20.963,1.44L22,3Z" style="fill:rgb(179,179,179);fill-rule:nonzero;"/>
                    <path d="M21.624,3L20.963,2.457L20.962,1.918L20.963,1.918L21.624,3Z" style="fill:rgb(204,204,204);fill-rule:nonzero;"/>
                    <rect x="1.039" y="0" width="19.923" height="1.808" style="fill:rgb(230,230,230);"/>
                    <path d="M1.586,0L1.039,0L1.039,1.808L1.458,1.808L1.586,0Z" style="fill:rgb(242,242,242);fill-rule:nonzero;"/>
                    <rect x="2.015" y="0.947" width="17.973" height="0.66" style="fill:rgb(179,179,179);"/>
                    <rect x="2.015" y="1.497" width="17.973" height="0.313" style="fill:rgb(204,204,204);"/>
                </g>
                <path d="M59.8,0L12.8,0C5.8,0 0,5.7 0,12.8L0,74.5C0,74.7 0.1,74.9 0.3,75L5.3,77.3C5.5,77.4 5.6,77.6 5.6,77.8L5.6,95C5.8,96.1 6.7,97 7.8,97L21.4,97C21.7,97 22,96.7 22,96.4L22,94C22,93.5 22.4,93.2 22.8,93.2L46,93.2C46.5,93.2 46.9,93.6 46.9,94L46.9,96.3C46.9,96.6 47.2,96.9 47.5,96.9L70.6,96.9C71.7,96.9 72.6,96 72.6,94.9L72.6,12.8C72.6,5.7 66.9,0 59.8,0ZM3.9,72.3C3.2,72.3 2.6,71.7 2.6,71C2.6,70.3 3.2,69.7 3.9,69.7C4.6,69.7 5.2,70.3 5.2,71C5.2,71.7 4.6,72.3 3.9,72.3ZM3.9,65.1C3.2,65.1 2.6,64.5 2.6,63.8C2.6,63.1 3.2,62.5 3.9,62.5C4.6,62.5 5.2,63.1 5.2,63.8C5.2,64.5 4.6,65.1 3.9,65.1ZM3.9,57.9C3.2,57.9 2.6,57.3 2.6,56.6C2.6,55.9 3.2,55.3 3.9,55.3C4.6,55.3 5.2,55.9 5.2,56.6C5.2,57.3 4.6,57.9 3.9,57.9ZM3.9,50.7C3.2,50.7 2.6,50.1 2.6,49.4C2.6,48.7 3.2,48.1 3.9,48.1C4.6,48.1 5.2,48.7 5.2,49.4C5.2,50.1 4.6,50.7 3.9,50.7ZM3.9,43.5C3.2,43.5 2.6,42.9 2.6,42.2C2.6,41.5 3.2,40.9 3.9,40.9C4.6,40.9 5.2,41.5 5.2,42.2C5.2,42.9 4.6,43.5 3.9,43.5ZM3.9,36.3C3.2,36.3 2.6,35.7 2.6,35C2.6,34.3 3.2,33.7 3.9,33.7C4.6,33.7 5.2,34.3 5.2,35C5.2,35.7 4.6,36.3 3.9,36.3ZM3.9,29.1C3.2,29.1 2.6,28.5 2.6,27.8C2.6,27.1 3.2,26.5 3.9,26.5C4.6,26.5 5.2,27.1 5.2,27.8C5.2,28.5 4.6,29.1 3.9,29.1ZM3.9,21.9C3.2,21.9 2.6,21.3 2.6,20.6C2.6,19.9 3.2,19.3 3.9,19.3C4.6,19.3 5.2,19.9 5.2,20.6C5.2,21.3 4.6,21.9 3.9,21.9ZM68.7,72.3C68,72.3 67.4,71.7 67.4,71C67.4,70.3 68,69.7 68.7,69.7C69.4,69.7 70,70.3 70,71C70,71.7 69.4,72.3 68.7,72.3ZM68.7,65.1C68,65.1 67.4,64.5 67.4,63.8C67.4,63.1 68,62.5 68.7,62.5C69.4,62.5 70,63.1 70,63.8C70,64.5 69.4,65.1 68.7,65.1ZM68.7,57.9C68,57.9 67.4,57.3 67.4,56.6C67.4,55.9 68,55.3 68.7,55.3C69.4,55.3 70,55.9 70,56.6C70,57.3 69.4,57.9 68.7,57.9ZM68.7,50.7C68,50.7 67.4,50.1 67.4,49.4C67.4,48.7 68,48.1 68.7,48.1C69.4,48.1 70,48.7 70,49.4C70,50.1 69.4,50.7 68.7,50.7ZM68.7,43.5C68,43.5 67.4,42.9 67.4,42.2C67.4,41.5 68,40.9 68.7,40.9C69.4,40.9 70,41.5 70,42.2C70,42.9 69.4,43.5 68.7,43.5ZM68.7,36.3C68,36.3 67.4,35.7 67.4,35C67.4,34.3 68,33.7 68.7,33.7C69.4,33.7 70,34.3 70,35C70,35.7 69.4,36.3 68.7,36.3ZM68.7,29.1C68,29.1 67.4,28.5 67.4,27.8C67.4,27.1 68,26.5 68.7,26.5C69.4,26.5 70,27.1 70,27.8C70,28.5 69.4,29.1 68.7,29.1ZM68.7,21.9C68,21.9 67.4,21.3 67.4,20.6C67.4,19.9 68,19.3 68.7,19.3C69.4,19.3 70,19.9 70,20.6C70,21.3 69.4,21.9 68.7,21.9Z" style="fill:rgb(13,76,117);fill-rule:nonzero;"/>
                <g transform="matrix(1,0,0,1,0.2835,0)">
                    <g transform="matrix(-3.82857e-16,-1,1,-3.82857e-16,6.7,74.6)">
                        <path d="M50.997,4.73L50.997,2.47M50.997,2.47L52.095,2.47M52.095,2.47L52.482,2.857M52.482,2.857L52.482,3.632M52.482,3.632L52.095,3.955M52.095,3.955L50.997,3.955M51.707,3.955L52.482,4.73M54.743,2.857L54.355,2.47M54.355,2.47L53.645,2.47M53.645,2.47L53.257,2.857M53.257,2.857L53.257,3.245M53.257,3.245L53.645,3.632M53.645,3.632L54.355,3.632M54.355,3.632L54.743,3.955M54.743,3.955L54.743,4.343M54.743,4.343L54.355,4.73M54.355,4.73L53.645,4.73M53.645,4.73L53.257,4.343M56.293,4.73L56.293,2.47M55.518,2.47L57.003,2.47" style="fill:none;fill-rule:nonzero;stroke:rgb(238,238,238);stroke-width:0.4px;"/>
                        <path d="M44.927,4.698L44.927,3.212M44.927,3.212L45.637,2.502M45.637,2.502L46.412,3.212M46.412,3.212L46.412,4.698M44.927,3.6L46.412,3.6M47.188,4.375L47.188,2.825M47.188,2.825L47.575,2.502M47.575,2.502L48.285,2.502M48.285,2.502L48.673,2.825M48.673,2.825L48.673,4.375M48.673,4.375L48.285,4.698M48.285,4.698L47.575,4.698M47.575,4.698L47.188,4.375M47.188,4.375L48.673,2.825" style="fill:none;fill-rule:nonzero;stroke:rgb(238,238,238);stroke-width:0.4px;"/>
                        <path d="M37.727,2.47L37.727,4.73M37.727,4.73L38.825,4.73M38.825,4.73L39.212,4.343M39.212,4.343L39.212,2.857M39.212,2.857L38.825,2.47M38.825,2.47L37.727,2.47M39.987,4.343L39.987,2.857M39.987,2.857L40.375,2.47M40.375,2.47L41.085,2.47M41.085,2.47L41.473,2.857M41.473,2.857L41.473,4.343M41.473,4.343L41.085,4.73M41.085,4.73L40.375,4.73M40.375,4.73L39.987,4.343M39.987,4.343L41.473,2.857" style="fill:none;fill-rule:nonzero;stroke:rgb(238,238,238);stroke-width:0.4px;"/>
                        <path d="M30.527,2.47L30.527,4.73M30.527,4.73L31.625,4.73M31.625,4.73L32.013,4.343M32.013,4.343L32.013,2.857M32.013,2.857L31.625,2.47M31.625,2.47L30.527,2.47M34.273,2.47L32.788,2.47M32.788,2.47L32.788,3.568M32.788,3.568L33.563,3.18M33.563,3.18L33.885,3.18M33.885,3.18L34.273,3.568M34.273,3.568L34.273,4.343M34.273,4.343L33.885,4.73M33.885,4.73L33.175,4.73M33.175,4.73L32.788,4.343" style="fill:none;fill-rule:nonzero;stroke:rgb(238,238,238);stroke-width:0.4px;"/>
                        <path d="M23.327,2.47L23.327,4.73M23.327,4.73L24.425,4.73M24.425,4.73L24.812,4.343M24.812,4.343L24.812,2.857M24.812,2.857L24.425,2.47M24.425,2.47L23.327,2.47M27.073,2.47L26.363,2.857M26.363,2.857L25.588,3.632M25.588,3.632L25.588,4.343M25.588,4.343L25.975,4.73M25.975,4.73L26.685,4.73M26.685,4.73L27.073,4.343M27.073,4.343L27.073,3.955M27.073,3.955L26.685,3.632M26.685,3.632L25.588,3.632" style="fill:none;fill-rule:nonzero;stroke:rgb(238,238,238);stroke-width:0.4px;"/>
                        <path d="M16.127,2.47L16.127,4.73M16.127,4.73L17.225,4.73M17.225,4.73L17.612,4.343M17.612,4.343L17.612,2.857M17.612,2.857L17.225,2.47M17.225,2.47L16.127,2.47M18.388,2.47L19.873,2.47M19.873,2.47L19.873,2.857M19.873,2.857L18.388,4.343M18.388,4.343L18.388,4.73" style="fill:none;fill-rule:nonzero;stroke:rgb(238,238,238);stroke-width:0.4px;"/>
                        <path d="M8.927,2.47L8.927,4.73M8.927,4.73L10.025,4.73M10.025,4.73L10.412,4.343M10.412,4.343L10.412,2.857M10.412,2.857L10.025,2.47M10.025,2.47L8.927,2.47M11.188,2.857L11.575,2.47M11.575,2.47L12.285,2.47M12.285,2.47L12.673,2.857M12.673,2.857L12.673,3.245M12.673,3.245L12.285,3.632M12.285,3.632L12.673,4.02M12.673,4.02L12.673,4.343M12.673,4.343L12.285,4.73M12.285,4.73L11.575,4.73M11.575,4.73L11.188,4.343M11.188,4.343L11.188,4.02M11.188,4.02L11.575,3.632M11.575,3.632L11.188,3.245M11.188,3.245L11.188,2.857M11.575,3.632L12.285,3.632" style="fill:none;fill-rule:nonzero;stroke:rgb(238,238,238);stroke-width:0.4px;"/>
                        <path d="M0.597,2.857L0.984,2.47M0.984,2.47L1.695,2.47M1.695,2.47L2.082,2.857M2.082,2.857L2.082,3.18M2.082,3.18L1.695,3.568M1.695,3.568L1.307,3.568M1.695,3.568L2.082,3.955M2.082,3.955L2.082,4.343M2.082,4.343L1.695,4.73M1.695,4.73L0.984,4.73M0.984,4.73L0.597,4.343M2.857,2.47L2.857,3.955M2.857,3.955L3.632,4.73M3.632,4.73L4.343,3.955M4.343,3.955L4.343,2.47M5.118,2.857L5.505,2.47M5.505,2.47L6.28,2.47M6.28,2.47L6.603,2.857M6.603,2.857L6.603,3.18M6.603,3.18L6.28,3.568M6.28,3.568L5.893,3.568M6.28,3.568L6.603,3.955M6.603,3.955L6.603,4.343M6.603,4.343L6.28,4.73M6.28,4.73L5.505,4.73M5.505,4.73L5.118,4.343" style="fill:none;fill-rule:nonzero;stroke:rgb(238,238,238);stroke-width:0.4px;"/>
                    </g>
                    <g transform="matrix(-3.82857e-16,-1,1,-3.82857e-16,58.1,74.6)">
                        <path d="M3.212,2.47L1.727,2.47M1.727,2.47L1.727,3.568M1.727,3.568L2.437,3.18M2.437,3.18L2.825,3.18M2.825,3.18L3.212,3.568M3.212,3.568L3.212,4.343M3.212,4.343L2.825,4.73M2.825,4.73L2.115,4.73M2.115,4.73L1.727,4.343M3.988,2.47L3.988,3.955M3.988,3.955L4.763,4.73M4.763,4.73L5.473,3.955M5.473,3.955L5.473,2.47" style="fill:none;fill-rule:nonzero;stroke:rgb(238,238,238);stroke-width:0.4px;"/>
                        <path d="M11.543,2.857L11.155,2.47M11.155,2.47L10.445,2.47M10.445,2.47L10.057,2.857M10.057,2.857L10.057,4.343M10.057,4.343L10.445,4.73M10.445,4.73L11.155,4.73M11.155,4.73L11.543,4.343M11.543,4.343L11.543,3.568M11.543,3.568L10.768,3.568" style="fill:none;fill-rule:nonzero;stroke:rgb(238,238,238);stroke-width:0.4px;"/>
                        <path d="M16.127,2.47L16.127,4.73M16.127,4.73L17.225,4.73M17.225,4.73L17.612,4.343M17.612,4.343L17.612,2.857M17.612,2.857L17.225,2.47M17.225,2.47L16.127,2.47M19.485,4.73L19.485,2.47M19.485,2.47L18.388,3.632M18.388,3.632L19.873,3.632" style="fill:none;fill-rule:nonzero;stroke:rgb(238,238,238);stroke-width:0.4px;"/>
                        <path d="M23.327,2.47L23.327,4.73M23.327,4.73L24.425,4.73M24.425,4.73L24.812,4.343M24.812,4.343L24.812,2.857M24.812,2.857L24.425,2.47M24.425,2.47L23.327,2.47M25.588,2.857L25.975,2.47M25.975,2.47L26.685,2.47M26.685,2.47L27.073,2.857M27.073,2.857L27.073,3.18M27.073,3.18L26.685,3.568M26.685,3.568L26.363,3.568M26.685,3.568L27.073,3.955M27.073,3.955L27.073,4.343M27.073,4.343L26.685,4.73M26.685,4.73L25.975,4.73M25.975,4.73L25.588,4.343" style="fill:none;fill-rule:nonzero;stroke:rgb(238,238,238);stroke-width:0.4px;"/>
                        <path d="M30.527,2.47L30.527,4.73M30.527,4.73L31.625,4.73M31.625,4.73L32.013,4.343M32.013,4.343L32.013,2.857M32.013,2.857L31.625,2.47M31.625,2.47L30.527,2.47M34.273,4.73L32.788,4.73M32.788,4.73L34.273,3.245M34.273,3.245L34.273,2.857M34.273,2.857L33.885,2.47M33.885,2.47L33.175,2.47M33.175,2.47L32.788,2.857" style="fill:none;fill-rule:nonzero;stroke:rgb(238,238,238);stroke-width:0.4px;"/>
                        <path d="M37.727,2.502L37.727,4.698M37.727,4.698L38.825,4.698M38.825,4.698L39.212,4.375M39.212,4.375L39.212,2.825M39.212,2.825L38.825,2.502M38.825,2.502L37.727,2.502M39.987,3.212L40.763,2.502M40.763,2.502L40.763,4.698M39.987,4.698L41.473,4.698" style="fill:none;fill-rule:nonzero;stroke:rgb(238,238,238);stroke-width:0.4px;"/>
                        <path d="M44.927,4.73L44.927,2.47M44.927,2.47L46.025,2.47M46.025,2.47L46.412,2.857M46.412,2.857L46.412,3.632M46.412,3.632L46.025,3.955M46.025,3.955L44.927,3.955M45.637,3.955L46.412,4.73M47.188,2.47L48.673,4.73M48.673,2.47L47.188,4.73" style="fill:none;fill-rule:nonzero;stroke:rgb(238,238,238);stroke-width:0.4px;"/>
                        <path d="M52.837,4.698L52.837,2.502M52.127,2.502L53.612,2.502M54.388,2.502L55.873,4.698M55.873,2.502L54.388,4.698" style="fill:none;fill-rule:nonzero;stroke:rgb(238,238,238);stroke-width:0.4px;"/>
                    </g>
                </g>
                <g>
                    <g transform="matrix(1,0,0,1,11,83)">
                        <path d="M0,2.26L0,0M0,0L1.098,0M1.098,0L1.485,0.388M1.485,0.388L1.485,1.163M1.485,1.163L1.098,1.55M1.098,1.55L0,1.55M0.71,1.55L1.485,2.26M3.746,0L2.26,0M2.26,0L2.26,2.26M2.26,2.26L3.746,2.26M2.26,1.163L3.035,1.163M6.071,0.388L5.683,0M5.683,0L4.908,0M4.908,0L4.521,0.388M4.521,0.388L4.521,0.775M4.521,0.775L4.908,1.163M4.908,1.163L5.683,1.163M5.683,1.163L6.071,1.55M6.071,1.55L6.071,1.873M6.071,1.873L5.683,2.26M5.683,2.26L4.908,2.26M4.908,2.26L4.521,1.873M8.331,0L6.846,0M6.846,0L6.846,2.26M6.846,2.26L8.331,2.26M6.846,1.163L7.556,1.163M9.881,2.26L9.881,0M9.106,0L10.592,0" style="fill:none;fill-rule:nonzero;stroke:rgb(238,238,238);stroke-width:0.4px;"/>
                    </g>
                    <g transform="matrix(1,0,0,1,47,80)">
                        <path d="M4.5,1L4.5,5.224M4.5,5.224L6.552,5.224M6.552,5.224L7.276,4.5M7.276,4.5L7.276,1.724M7.276,1.724L6.552,1M6.552,1L4.5,1M8.724,2.448L10.172,1M10.172,1L10.172,5.224M8.724,5.224L11.5,5.224" style="fill:none;fill-rule:nonzero;stroke:rgb(238,238,238);stroke-width:0.5px;"/>
                        <path d="M12.8,4.6L12.8,2.53M12.8,2.53L13.34,2.53M13.34,2.53L13.79,3.07M13.79,3.07L13.79,4.6M13.79,3.07L14.33,2.53M14.33,2.53L14.87,3.07M14.87,3.07L14.87,4.6M15.95,2.53L16.49,2.53M16.49,2.53L16.49,4.6M15.95,4.6L17.03,4.6M16.49,1L16.49,1.54M18.11,4.6L18.11,2.53M18.11,2.53L19.64,2.53M19.64,2.53L20.18,3.07M20.18,3.07L20.18,4.6M21.26,2.53L21.8,2.53M21.8,2.53L21.8,4.6M21.26,4.6L22.25,4.6M21.8,1L21.8,1.54" style="fill:none;fill-rule:nonzero;stroke:rgb(238,238,238);stroke-width:0.5px;"/>
                        <path d="M7.175,10.619L6.415,10.619M6.415,10.619L6,10.205M6,10.205L6,9.375M6,9.375L6.415,9.029M6.415,9.029L7.175,9.029M7.175,9.029L7.59,9.375M7.59,9.375L7.59,9.79M7.59,9.79L6,9.79M8.519,10.619L8.519,8.2M8.519,8.2L9.348,9.029M9.348,9.029L10.109,8.2M10.109,8.2L10.109,10.619M11.453,10.619L12.282,10.619M12.282,10.619L12.628,10.205M12.628,10.205L12.628,9.375M12.628,9.375L12.282,9.029M12.282,9.029L11.453,9.029M11.453,9.029L11.038,9.375M11.038,9.375L11.038,10.205M11.038,10.205L11.453,10.619M13.626,10.619L14.801,10.619M14.801,10.619L15.216,10.205M15.216,10.205L14.801,9.79M14.801,9.79L13.972,9.79M13.972,9.79L13.626,9.375M13.626,9.375L13.972,9.029M13.972,9.029L15.216,9.029M16.145,10.619L16.145,10.205M16.145,10.205L16.56,10.205M16.56,10.205L16.56,10.619M16.56,10.619L16.145,10.619M19.079,9.029L17.835,9.029M17.835,9.029L17.42,9.375M17.42,9.375L17.42,10.205M17.42,10.205L17.835,10.619M17.835,10.619L19.079,10.619M21.598,9.029L20.354,9.029M20.354,9.029L20.008,9.375M20.008,9.375L20.008,10.205M20.008,10.205L20.354,10.619M20.354,10.619L21.598,10.619M4.15,7C6.65,10.5 3.65,12.2 2.95,10.2C2.35,12.2 -0.85,10.8 1.15,7" style="fill:none;fill-rule:nonzero;stroke:rgb(238,238,238);stroke-width:0.5px;"/>
                    </g>
                </g>
                <g transform="matrix(1,0,0,1,0.2835,0)">
                    <g transform="matrix(1,0,0,1,0,17)">
                        <circle id="connector0pin" cx="3.6" cy="3.6" r="2.05" style="fill:none;stroke:rgb(154,145,108);stroke-width:1.5px;stroke-linecap:butt;"/>
                        <circle id="connector1pin" cx="3.6" cy="10.8" r="2.05" style="fill:none;stroke:rgb(154,145,108);stroke-width:1.5px;stroke-linecap:butt;"/>
                        <circle id="connector2pin" cx="3.6" cy="18" r="2.05" style="fill:none;stroke:rgb(154,145,108);stroke-width:1.5px;stroke-linecap:butt;"/>
                        <circle id="connector3pin" cx="3.6" cy="25.2" r="2.05" style="fill:none;stroke:rgb(154,145,108);stroke-width:1.5px;stroke-linecap:butt;"/>
                        <circle id="connector4pin" cx="3.6" cy="32.4" r="2.05" style="fill:none;stroke:rgb(154,145,108);stroke-width:1.5px;stroke-linecap:butt;"/>
                        <circle id="connector5pin" cx="3.6" cy="39.6" r="2.05" style="fill:none;stroke:rgb(154,145,108);stroke-width:1.5px;stroke-linecap:butt;"/>
                        <circle id="connector6pin" cx="3.6" cy="46.8" r="2.05" style="fill:none;stroke:rgb(154,145,108);stroke-width:1.5px;stroke-linecap:butt;"/>
                        <circle id="connector7pin" cx="3.6" cy="54" r="2.05" style="fill:none;stroke:rgb(154,145,108);stroke-width:1.5px;stroke-linecap:butt;"/>
                    </g>
                    <g transform="matrix(1,0,0,1,64.8,17)">
                        <circle id="connector8pin" cx="3.6" cy="54" r="2.05" style="fill:none;stroke:rgb(154,145,108);stroke-width:1.5px;stroke-linecap:butt;"/>
                        <circle id="connector9pin" cx="3.6" cy="46.8" r="2.05" style="fill:none;stroke:rgb(154,145,108);stroke-width:1.5px;stroke-linecap:butt;"/>
                        <circle id="connector10pin" cx="3.6" cy="39.6" r="2.05" style="fill:none;stroke:rgb(154,145,108);stroke-width:1.5px;stroke-linecap:butt;"/>
                        <circle id="connector11pin" cx="3.6" cy="32.4" r="2.05" style="fill:none;stroke:rgb(154,145,108);stroke-width:1.5px;stroke-linecap:butt;"/>
                        <circle id="connector12pin" cx="3.6" cy="25.2" r="2.05" style="fill:none;stroke:rgb(154,145,108);stroke-width:1.5px;stroke-linecap:butt;"/>
                        <circle id="connector13pin" cx="3.6" cy="18" r="2.05" style="fill:none;stroke:rgb(154,145,108);stroke-width:1.5px;stroke-linecap:butt;"/>
                        <circle id="connector14pin" cx="3.6" cy="10.8" r="2.05" style="fill:none;stroke:rgb(154,145,108);stroke-width:1.5px;stroke-linecap:butt;"/>
                        <circle id="connector15pin" cx="3.6" cy="3.6" r="2.05" style="fill:none;stroke:rgb(154,145,108);stroke-width:1.5px;stroke-linecap:butt;"/>
                    </g>
                </g>
                <g>
                    <rect x="2.6" y="83" width="3" height="7"/>
                    <g>
                        <g>
                            <circle cx="8" cy="84" r="1.5" style="fill:rgb(154,145,108);"/>
                            <circle cx="8" cy="84" r="0.75" style="fill:rgb(51,51,51);"/>
                        </g>
                        <g>
                            <circle cx="8" cy="89" r="1.5" style="fill:rgb(154,145,108);"/>
                            <circle cx="8" cy="89" r="0.75" style="fill:rgb(51,51,51);"/>
                        </g>
                    </g>
                    <g>
                        <g>
                            <circle cx="26" cy="89" r="1.5" style="fill:rgb(154,145,108);"/>
                            <circle cx="26" cy="90" r="1.5" style="fill:rgb(154,145,108);"/>
                            <circle cx="26" cy="89.5" r="1.5" style="fill:rgb(154,145,108);"/>
                            <circle cx="26" cy="89.5" r="0.75" style="fill:rgb(51,51,51);"/>
                        </g>
                        <g>
                            <circle cx="43" cy="89" r="1.5" style="fill:rgb(154,145,108);"/>
                            <circle cx="43" cy="90" r="1.5" style="fill:rgb(154,145,108);"/>
                            <circle cx="43" cy="89.5" r="1.5" style="fill:rgb(154,145,108);"/>
                            <circle cx="43" cy="89.5" r="0.75" style="fill:rgb(51,51,51);"/>
                        </g>
                        <g>
                            <circle cx="28" cy="80" r="1.5" style="fill:rgb(154,145,108);"/>
                            <circle cx="29" cy="80" r="1.5" style="fill:rgb(154,145,108);"/>
                            <circle cx="28.5" cy="80" r="1.5" style="fill:rgb(154,145,108);"/>
                            <circle cx="28.5" cy="80" r="0.75" style="fill:rgb(51,51,51);"/>
                        </g>
                        <g>
                            <circle cx="41" cy="80" r="1.5" style="fill:rgb(154,145,108);"/>
                            <circle cx="40" cy="80" r="1.5" style="fill:rgb(154,145,108);"/>
                            <circle cx="40.5" cy="80" r="1.5" style="fill:rgb(154,145,108);"/>
                            <circle cx="40.5" cy="80" r="0.75" style="fill:rgb(51,51,51);"/>
                        </g>
                    </g>
                </g>
                <g transform="matrix(1,0,0,1,13.6065,0)">
                    <path d="M45.35,23.244L45.35,0L0,0L0,23.243C0.47,23.243 0.851,23.624 0.851,24.094C0.851,24.564 0.47,24.944 0,24.944L0,28.912C0.47,28.912 0.851,29.293 0.851,29.763C0.851,30.233 0.47,30.613 0,30.613L0,34.581C0.47,34.581 0.851,34.962 0.851,35.432C0.851,35.902 0.47,36.282 0,36.282L0,40.25C0.47,40.25 0.851,40.631 0.851,41.101C0.851,41.571 0.47,41.951 0,41.951L0,45.919C0.47,45.919 0.851,46.3 0.851,46.769C0.851,47.239 0.47,47.62 0,47.62L0,51.588C0.47,51.588 0.851,51.969 0.851,52.438C0.851,52.907 0.47,53.289 0,53.289L0,57.257C0.47,57.257 0.851,57.638 0.851,58.107C0.851,58.576 0.47,58.958 0,58.958L0,62.926C0.47,62.926 0.851,63.307 0.851,63.776C0.851,64.245 0.47,64.628 0,64.628L0,68.03L7.682,68.03C7.674,67.982 7.653,67.939 7.653,67.889C7.653,67.419 8.034,67.038 8.504,67.038C8.974,67.038 9.354,67.419 9.354,67.889C9.354,67.939 9.334,67.983 9.325,68.03L13.35,68.03C13.342,67.982 13.321,67.939 13.321,67.889C13.321,67.419 13.702,67.038 14.171,67.038C14.641,67.038 15.022,67.419 15.022,67.889C15.022,67.939 15.002,67.983 14.993,68.03L19.018,68.03C19.01,67.982 18.989,67.939 18.989,67.889C18.989,67.419 19.37,67.038 19.839,67.038C20.308,67.038 20.69,67.419 20.69,67.889C20.69,67.939 20.67,67.983 20.661,68.03L24.686,68.03C24.678,67.982 24.657,67.939 24.657,67.889C24.657,67.419 25.038,67.038 25.507,67.038C25.976,67.038 26.358,67.419 26.358,67.889C26.358,67.939 26.338,67.983 26.329,68.03L30.354,68.03C30.346,67.982 30.325,67.939 30.325,67.889C30.325,67.419 30.706,67.038 31.175,67.038C31.644,67.038 32.026,67.419 32.026,67.889C32.026,67.939 32.006,67.983 31.997,68.03L36.022,68.03C36.014,67.982 35.993,67.939 35.993,67.889C35.993,67.419 36.374,67.038 36.844,67.038C37.314,67.038 37.695,67.419 37.695,67.889C37.695,67.939 37.675,67.983 37.666,68.03L45.345,68.03L45.345,64.626C44.877,64.624 44.499,64.245 44.499,63.776C44.499,63.307 44.878,62.929 45.345,62.926L45.345,58.956C44.877,58.954 44.499,58.575 44.499,58.106C44.499,57.637 44.878,57.259 45.345,57.256L45.345,53.286C44.877,53.284 44.499,52.905 44.499,52.436C44.499,51.967 44.878,51.589 45.345,51.586L45.345,47.616C44.877,47.614 44.499,47.235 44.499,46.766C44.499,46.297 44.878,45.919 45.345,45.916L45.345,41.946C44.877,41.944 44.499,41.565 44.499,41.096C44.499,40.627 44.878,40.249 45.345,40.246L45.345,36.276C44.877,36.274 44.499,35.895 44.499,35.426C44.499,34.958 44.878,34.579 45.345,34.576L45.345,30.606C44.877,30.604 44.499,30.225 44.499,29.756C44.499,29.288 44.878,28.909 45.345,28.906L45.345,24.936C44.877,24.934 44.499,24.555 44.499,24.086C44.499,23.617 44.882,23.246 45.35,23.244ZM2.835,64.628C2.365,64.628 1.984,64.247 1.984,63.777C1.984,63.307 2.365,62.927 2.835,62.927C3.305,62.927 3.685,63.308 3.685,63.777C3.685,64.246 3.305,64.628 2.835,64.628ZM2.835,58.958C2.365,58.958 1.984,58.577 1.984,58.107C1.984,57.637 2.365,57.257 2.835,57.257C3.305,57.257 3.685,57.638 3.685,58.107C3.685,58.576 3.305,58.958 2.835,58.958ZM2.835,53.289C2.365,53.289 1.984,52.908 1.984,52.438C1.984,51.968 2.365,51.588 2.835,51.588C3.305,51.588 3.685,51.969 3.685,52.438C3.685,52.907 3.305,53.289 2.835,53.289ZM2.835,47.62C2.365,47.62 1.984,47.239 1.984,46.769C1.984,46.299 2.365,45.919 2.835,45.919C3.305,45.919 3.685,46.3 3.685,46.769C3.685,47.24 3.305,47.62 2.835,47.62ZM2.835,41.951C2.365,41.951 1.984,41.57 1.984,41.101C1.984,40.631 2.365,40.25 2.835,40.25C3.305,40.25 3.685,40.631 3.685,41.101C3.685,41.571 3.305,41.951 2.835,41.951ZM2.835,36.282C2.365,36.282 1.984,35.901 1.984,35.432C1.984,34.963 2.365,34.581 2.835,34.581C3.305,34.581 3.685,34.962 3.685,35.432C3.685,35.902 3.305,36.282 2.835,36.282ZM2.835,30.613C2.365,30.613 1.984,30.232 1.984,29.763C1.984,29.294 2.365,28.912 2.835,28.912C3.305,28.912 3.685,29.293 3.685,29.763C3.685,30.233 3.305,30.613 2.835,30.613ZM2.835,24.944C2.365,24.944 1.984,24.563 1.984,24.094C1.984,23.625 2.365,23.243 2.835,23.243C3.305,23.243 3.685,23.624 3.685,24.094C3.685,24.564 3.305,24.944 2.835,24.944ZM42.519,64.627C42.049,64.627 41.669,64.246 41.669,63.776C41.669,63.306 42.05,62.925 42.519,62.925C42.988,62.925 43.37,63.306 43.37,63.776C43.37,64.246 42.989,64.627 42.519,64.627ZM42.519,58.958C42.049,58.958 41.669,58.577 41.669,58.107C41.669,57.637 42.05,57.256 42.519,57.256C42.988,57.256 43.37,57.637 43.37,58.107C43.37,58.577 42.989,58.958 42.519,58.958ZM42.519,53.289C42.049,53.289 41.669,52.908 41.669,52.438C41.669,51.968 42.05,51.588 42.519,51.588C42.988,51.588 43.37,51.969 43.37,52.438C43.37,52.907 42.989,53.289 42.519,53.289ZM42.519,47.62C42.049,47.62 41.669,47.239 41.669,46.769C41.669,46.299 42.05,45.919 42.519,45.919C42.988,45.919 43.37,46.3 43.37,46.769C43.37,47.238 42.989,47.62 42.519,47.62ZM42.519,41.951C42.049,41.951 41.669,41.57 41.669,41.1C41.669,40.63 42.05,40.25 42.519,40.25C42.988,40.25 43.37,40.631 43.37,41.1C43.37,41.569 42.989,41.951 42.519,41.951ZM42.519,36.282C42.049,36.282 41.669,35.901 41.669,35.431C41.669,34.961 42.05,34.581 42.519,34.581C42.988,34.581 43.37,34.962 43.37,35.431C43.37,35.901 42.989,36.282 42.519,36.282ZM42.519,30.613C42.049,30.613 41.669,30.232 41.669,29.763C41.669,29.293 42.05,28.912 42.519,28.912C42.988,28.912 43.37,29.293 43.37,29.763C43.37,30.232 42.989,30.613 42.519,30.613ZM42.519,24.944C42.049,24.944 41.669,24.563 41.669,24.094C41.669,23.625 42.05,23.243 42.519,23.243C42.988,23.243 43.37,23.624 43.37,24.094C43.37,24.564 42.989,24.944 42.519,24.944Z" style="fill-rule:nonzero;"/>
                    <g>
                        <g>
                            <path d="M0,22.435L0,23.243C0.47,23.243 0.851,23.624 0.851,24.094C0.851,24.564 0.47,24.944 0,24.944L0,25.752L4.479,25.752L4.479,22.435L0,22.435ZM2.835,24.944C2.365,24.944 1.984,24.563 1.984,24.094C1.984,23.625 2.365,23.243 2.835,23.243C3.305,23.243 3.685,23.624 3.685,24.094C3.685,24.564 3.305,24.944 2.835,24.944Z" style="fill:rgb(154,145,108);fill-rule:nonzero;"/>
                            <path d="M0,28.104L0,28.912C0.47,28.912 0.851,29.293 0.851,29.763C0.851,30.233 0.47,30.613 0,30.613L0,31.421L4.479,31.421L4.479,28.104L0,28.104ZM2.835,30.613C2.365,30.613 1.984,30.232 1.984,29.763C1.984,29.294 2.365,28.912 2.835,28.912C3.305,28.912 3.685,29.293 3.685,29.763C3.685,30.233 3.305,30.613 2.835,30.613Z" style="fill:rgb(154,145,108);fill-rule:nonzero;"/>
                            <path d="M0,33.773L0,34.581C0.47,34.581 0.851,34.962 0.851,35.432C0.851,35.902 0.47,36.282 0,36.282L0,37.09L4.479,37.09L4.479,33.773L0,33.773ZM2.835,36.282C2.365,36.282 1.984,35.901 1.984,35.432C1.984,34.963 2.365,34.581 2.835,34.581C3.305,34.581 3.685,34.962 3.685,35.432C3.685,35.902 3.305,36.282 2.835,36.282Z" style="fill:rgb(154,145,108);fill-rule:nonzero;"/>
                            <path d="M0,39.443L0,40.251C0.47,40.251 0.851,40.632 0.851,41.102C0.851,41.572 0.47,41.952 0,41.952L0,42.76L4.479,42.76L4.479,39.443L0,39.443ZM2.835,41.951C2.365,41.951 1.984,41.57 1.984,41.101C1.984,40.631 2.365,40.25 2.835,40.25C3.305,40.25 3.685,40.631 3.685,41.101C3.685,41.571 3.305,41.951 2.835,41.951Z" style="fill:rgb(154,145,108);fill-rule:nonzero;"/>
                            <path d="M0,45.112L0,45.92C0.47,45.92 0.851,46.301 0.851,46.77C0.851,47.24 0.47,47.621 0,47.621L0,48.429L4.479,48.429L4.479,45.112L0,45.112ZM2.835,47.62C2.365,47.62 1.984,47.239 1.984,46.769C1.984,46.299 2.365,45.919 2.835,45.919C3.305,45.919 3.685,46.3 3.685,46.769C3.685,47.24 3.305,47.62 2.835,47.62Z" style="fill:rgb(154,145,108);fill-rule:nonzero;"/>
                            <path d="M0,50.78L0,51.588C0.47,51.588 0.851,51.969 0.851,52.438C0.851,52.907 0.47,53.289 0,53.289L0,54.097L4.479,54.097L4.479,50.78L0,50.78ZM2.835,53.289C2.365,53.289 1.984,52.908 1.984,52.438C1.984,51.968 2.365,51.588 2.835,51.588C3.305,51.588 3.685,51.969 3.685,52.438C3.685,52.907 3.305,53.289 2.835,53.289Z" style="fill:rgb(154,145,108);fill-rule:nonzero;"/>
                            <path d="M0,56.449L0,57.257C0.47,57.257 0.851,57.638 0.851,58.107C0.851,58.576 0.47,58.958 0,58.958L0,59.766L4.479,59.766L4.479,56.449L0,56.449ZM2.835,58.958C2.365,58.958 1.984,58.577 1.984,58.107C1.984,57.637 2.365,57.257 2.835,57.257C3.305,57.257 3.685,57.638 3.685,58.107C3.685,58.576 3.305,58.958 2.835,58.958Z" style="fill:rgb(154,145,108);fill-rule:nonzero;"/>
                            <path d="M0,62.118L0,62.926C0.47,62.926 0.851,63.307 0.851,63.776C0.851,64.245 0.47,64.628 0,64.628L0,65.436L4.479,65.436L4.479,62.119L0,62.119L0,62.118ZM2.835,64.628C2.365,64.628 1.984,64.247 1.984,63.777C1.984,63.307 2.365,62.927 2.835,62.927C3.305,62.927 3.685,63.308 3.685,63.777C3.685,64.246 3.305,64.628 2.835,64.628Z" style="fill:rgb(154,145,108);fill-rule:nonzero;"/>
                        </g>
                        <g>
                            <path d="M6.846,66.387L6.846,68.031L7.683,68.031C7.675,67.983 7.654,67.939 7.654,67.889C7.654,67.419 8.035,67.038 8.505,67.038C8.975,67.038 9.355,67.419 9.355,67.889C9.355,67.939 9.335,67.983 9.326,68.031L10.163,68.031L10.163,66.387L6.846,66.387Z" style="fill:rgb(154,145,108);fill-rule:nonzero;"/>
                            <path d="M12.515,66.387L12.515,68.031L13.352,68.031C13.344,67.983 13.323,67.939 13.323,67.889C13.323,67.419 13.704,67.038 14.173,67.038C14.643,67.038 15.024,67.419 15.024,67.889C15.024,67.939 15.004,67.983 14.995,68.031L15.832,68.031L15.832,66.387L12.515,66.387Z" style="fill:rgb(154,145,108);fill-rule:nonzero;"/>
                            <path d="M18.183,66.387L18.183,68.031L19.02,68.031C19.012,67.983 18.991,67.939 18.991,67.889C18.991,67.419 19.372,67.038 19.841,67.038C20.31,67.038 20.692,67.419 20.692,67.889C20.692,67.939 20.672,67.983 20.663,68.031L21.5,68.031L21.5,66.387L18.183,66.387Z" style="fill:rgb(154,145,108);fill-rule:nonzero;"/>
                            <path d="M23.852,66.387L23.852,68.031L24.689,68.031C24.681,67.983 24.66,67.939 24.66,67.889C24.66,67.419 25.041,67.038 25.51,67.038C25.979,67.038 26.361,67.419 26.361,67.889C26.361,67.939 26.341,67.983 26.332,68.031L27.169,68.031L27.169,66.387L23.852,66.387Z" style="fill:rgb(154,145,108);fill-rule:nonzero;"/>
                            <path d="M29.521,66.387L29.521,68.031L30.358,68.031C30.35,67.983 30.329,67.939 30.329,67.889C30.329,67.419 30.71,67.038 31.179,67.038C31.648,67.038 32.03,67.419 32.03,67.889C32.03,67.939 32.01,67.983 32.001,68.031L32.838,68.031L32.838,66.387L29.521,66.387Z" style="fill:rgb(154,145,108);fill-rule:nonzero;"/>
                            <path d="M35.19,66.387L35.19,68.031L36.027,68.031C36.019,67.983 35.998,67.939 35.998,67.889C35.998,67.419 36.379,67.038 36.849,67.038C37.319,67.038 37.7,67.419 37.7,67.889C37.7,67.939 37.68,67.983 37.671,68.031L38.508,68.031L38.508,66.387L35.19,66.387Z" style="fill:rgb(154,145,108);fill-rule:nonzero;"/>
                        </g>
                        <g>
                            <path d="M44.503,63.776C44.503,63.306 44.884,62.925 45.354,62.925L45.354,62.117L40.875,62.117L40.875,65.434L45.354,65.434L45.354,64.626C44.884,64.627 44.503,64.246 44.503,63.776ZM42.519,64.627C42.049,64.627 41.669,64.246 41.669,63.776C41.669,63.306 42.05,62.925 42.519,62.925C42.988,62.925 43.37,63.306 43.37,63.776C43.37,64.246 42.989,64.627 42.519,64.627Z" style="fill:rgb(154,145,108);fill-rule:nonzero;"/>
                            <path d="M44.503,58.107C44.503,57.637 44.884,57.256 45.354,57.256L45.354,56.448L40.875,56.448L40.875,59.765L45.354,59.765L45.354,58.957C44.884,58.958 44.503,58.577 44.503,58.107ZM42.519,58.958C42.049,58.958 41.669,58.577 41.669,58.107C41.669,57.637 42.05,57.256 42.519,57.256C42.988,57.256 43.37,57.637 43.37,58.107C43.37,58.577 42.989,58.958 42.519,58.958Z" style="fill:rgb(154,145,108);fill-rule:nonzero;"/>
                            <path d="M44.503,52.438C44.503,51.968 44.884,51.588 45.354,51.588L45.354,50.78L40.875,50.78L40.875,54.097L45.354,54.097L45.354,53.289C44.884,53.289 44.503,52.908 44.503,52.438ZM42.519,53.289C42.049,53.289 41.669,52.908 41.669,52.438C41.669,51.968 42.05,51.588 42.519,51.588C42.988,51.588 43.37,51.969 43.37,52.438C43.37,52.907 42.989,53.289 42.519,53.289Z" style="fill:rgb(154,145,108);fill-rule:nonzero;"/>
                            <path d="M44.503,46.769C44.503,46.299 44.884,45.919 45.354,45.919L45.354,45.111L40.875,45.111L40.875,48.428L45.354,48.428L45.354,47.62C44.884,47.62 44.503,47.239 44.503,46.769ZM42.519,47.62C42.049,47.62 41.669,47.239 41.669,46.769C41.669,46.299 42.05,45.919 42.519,45.919C42.988,45.919 43.37,46.3 43.37,46.769C43.37,47.238 42.989,47.62 42.519,47.62Z" style="fill:rgb(154,145,108);fill-rule:nonzero;"/>
                            <path d="M44.503,41.1C44.503,40.63 44.884,40.25 45.354,40.25L45.354,39.442L40.875,39.442L40.875,42.759L45.354,42.759L45.354,41.951C44.884,41.951 44.503,41.57 44.503,41.1ZM42.519,41.951C42.049,41.951 41.669,41.57 41.669,41.1C41.669,40.63 42.05,40.25 42.519,40.25C42.988,40.25 43.37,40.631 43.37,41.1C43.37,41.569 42.989,41.951 42.519,41.951Z" style="fill:rgb(154,145,108);fill-rule:nonzero;"/>
                            <path d="M44.503,35.431C44.503,34.961 44.884,34.581 45.354,34.581L45.354,33.773L40.875,33.773L40.875,37.09L45.354,37.09L45.354,36.282C44.884,36.282 44.503,35.901 44.503,35.431ZM42.519,36.282C42.049,36.282 41.669,35.901 41.669,35.431C41.669,34.961 42.05,34.581 42.519,34.581C42.988,34.581 43.37,34.962 43.37,35.431C43.37,35.901 42.989,36.282 42.519,36.282Z" style="fill:rgb(154,145,108);fill-rule:nonzero;"/>
                            <path d="M44.503,29.763C44.503,29.293 44.884,28.912 45.354,28.912L45.354,28.104L40.875,28.104L40.875,31.421L45.354,31.421L45.354,30.613C44.884,30.613 44.503,30.232 44.503,29.763ZM42.519,30.613C42.049,30.613 41.669,30.232 41.669,29.763C41.669,29.293 42.05,28.912 42.519,28.912C42.988,28.912 43.37,29.293 43.37,29.763C43.37,30.232 42.989,30.613 42.519,30.613Z" style="fill:rgb(154,145,108);fill-rule:nonzero;"/>
                            <path d="M44.503,24.094C44.503,23.624 44.884,23.243 45.354,23.243L45.354,22.435L40.875,22.435L40.875,25.752L45.354,25.752L45.354,24.944C44.884,24.944 44.503,24.563 44.503,24.094ZM42.519,24.944C42.049,24.944 41.669,24.563 41.669,24.094C41.669,23.625 42.05,23.243 42.519,23.243C42.988,23.243 43.37,23.624 43.37,24.094C43.37,24.564 42.989,24.944 42.519,24.944Z" style="fill:rgb(154,145,108);fill-rule:nonzero;"/>
                        </g>
                    </g>
                    <path d="M43.301,15.289L42.081,15.289L42.081,3.269L36.961,3.269L36.961,10.969L28.617,10.969L28.617,3.269L23.357,3.269L23.357,10.969L15.077,10.969L15.077,3.269L9.961,3.269L9.961,15.286L8.741,15.286L8.741,3.269L3.697,3.269L3.697,15.289L2.049,15.289L2.049,2.049L16.297,2.049L16.297,9.749L22.137,9.749L22.137,2.049L29.837,2.049L29.837,9.749L35.741,9.749L35.741,2.049L43.301,2.049L43.301,15.289Z" style="fill:rgb(154,145,108);fill-rule:nonzero;"/>
                    <g>
                        <g>
                            <path d="M37.079,19.868L37.079,16.967L40.239,16.967L40.239,16.75L36.844,16.75L36.844,20.085L40.239,20.085L40.239,19.868L37.079,19.868Z" style="fill:white;fill-rule:nonzero;"/>
                            <path d="M41.036,16.75L41.036,16.967L44.196,16.967L44.196,19.868L41.036,19.868L41.036,20.085L44.431,20.085L44.431,16.75L41.036,16.75Z" style="fill:white;fill-rule:nonzero;"/>
                        </g>
                        <g transform="matrix(-1,-1.21645e-10,1.21645e-10,-1,77.023,36.835)">
                            <rect x="37.312" y="17.218" width="2.4" height="2.4" style="fill:rgb(154,145,108);"/>
                        </g>
                        <g transform="matrix(-1,-1.21645e-10,1.21645e-10,-1,85.527,36.835)">
                            <rect x="41.563" y="17.218" width="2.4" height="2.4" style="fill:rgb(154,145,108);"/>
                        </g>
                        <path d="M43.07,18.418C43.07,18.105 43.324,17.851 43.637,17.851L43.637,17.418L37.637,17.418L37.637,17.851C37.95,17.851 38.204,18.105 38.204,18.418C38.204,18.731 37.95,18.985 37.637,18.985L37.637,19.418L43.637,19.418L43.637,18.985C43.324,18.985 43.07,18.731 43.07,18.418Z" style="fill:rgb(205,204,204);fill-rule:nonzero;"/>
                        <rect x="38.637" y="17.418" width="4" height="2" style="fill:rgb(61,85,165);"/>
                    </g>
                    <g opacity="0.5">
                        <g>
                            <circle cx="43.7" cy="60.9" r="0.55" style="fill:rgb(51,51,51);stroke:rgb(154,145,108);stroke-width:0.2px;"/>
                            <circle cx="43.7" cy="55.3" r="0.55" style="fill:rgb(51,51,51);stroke:rgb(154,145,108);stroke-width:0.2px;"/>
                            <circle cx="43.7" cy="49.6" r="0.55" style="fill:rgb(51,51,51);stroke:rgb(154,145,108);stroke-width:0.2px;"/>
                            <circle cx="43.7" cy="43.9" r="0.55" style="fill:rgb(51,51,51);stroke:rgb(154,145,108);stroke-width:0.2px;"/>
                            <circle cx="43.7" cy="38.3" r="0.55" style="fill:rgb(51,51,51);stroke:rgb(154,145,108);stroke-width:0.2px;"/>
                            <circle cx="43.7" cy="32.6" r="0.55" style="fill:rgb(51,51,51);stroke:rgb(154,145,108);stroke-width:0.2px;"/>
                            <circle cx="43.7" cy="26.9" r="0.55" style="fill:rgb(51,51,51);stroke:rgb(154,145,108);stroke-width:0.2px;"/>
                            <circle cx="43.7" cy="21.2" r="0.55" style="fill:rgb(51,51,51);stroke:rgb(154,145,108);stroke-width:0.2px;"/>
                        </g>
                        <g>
                            <circle cx="1.7" cy="60.9" r="0.55" style="fill:rgb(51,51,51);stroke:rgb(154,145,108);stroke-width:0.2px;"/>
                            <circle cx="1.7" cy="55.3" r="0.55" style="fill:rgb(51,51,51);stroke:rgb(154,145,108);stroke-width:0.2px;"/>
                            <circle cx="1.6" cy="49.6" r="0.55" style="fill:rgb(51,51,51);stroke:rgb(154,145,108);stroke-width:0.2px;"/>
                            <circle cx="1.7" cy="43.9" r="0.55" style="fill:rgb(51,51,51);stroke:rgb(154,145,108);stroke-width:0.2px;"/>
                            <circle cx="1.7" cy="38.3" r="0.55" style="fill:rgb(51,51,51);stroke:rgb(154,145,108);stroke-width:0.2px;"/>
                            <circle cx="1.7" cy="32.6" r="0.55" style="fill:rgb(51,51,51);stroke:rgb(154,145,108);stroke-width:0.2px;"/>
                            <circle cx="1.6" cy="26.9" r="0.55" style="fill:rgb(51,51,51);stroke:rgb(154,145,108);stroke-width:0.2px;"/>
                        </g>
                        <g>
                            <circle cx="1.65" cy="18.15" r="0.55" style="fill:rgb(51,51,51);stroke:rgb(154,145,108);stroke-width:0.2px;"/>
                            <circle cx="3.35" cy="18.15" r="0.55" style="fill:rgb(51,51,51);stroke:rgb(154,145,108);stroke-width:0.2px;"/>
                            <circle cx="5.05" cy="18.15" r="0.55" style="fill:rgb(51,51,51);stroke:rgb(154,145,108);stroke-width:0.2px;"/>
                            <circle cx="6.75" cy="18.15" r="0.55" style="fill:rgb(51,51,51);stroke:rgb(154,145,108);stroke-width:0.2px;"/>
                        </g>
                        <g>
                            <circle cx="1.65" cy="19.85" r="0.55" style="fill:rgb(51,51,51);stroke:rgb(154,145,108);stroke-width:0.2px;"/>
                            <circle cx="3.35" cy="19.85" r="0.55" style="fill:rgb(51,51,51);stroke:rgb(154,145,108);stroke-width:0.2px;"/>
                            <circle cx="5.05" cy="19.85" r="0.55" style="fill:rgb(51,51,51);stroke:rgb(154,145,108);stroke-width:0.2px;"/>
                            <circle cx="6.75" cy="19.85" r="0.55" style="fill:rgb(51,51,51);stroke:rgb(154,145,108);stroke-width:0.2px;"/>
                        </g>
                        <g>
                            <circle cx="11.65" cy="18.15" r="0.55" style="fill:rgb(51,51,51);stroke:rgb(154,145,108);stroke-width:0.2px;"/>
                            <circle cx="13.35" cy="18.15" r="0.55" style="fill:rgb(51,51,51);stroke:rgb(154,145,108);stroke-width:0.2px;"/>
                            <circle cx="15.05" cy="18.15" r="0.55" style="fill:rgb(51,51,51);stroke:rgb(154,145,108);stroke-width:0.2px;"/>
                            <circle cx="16.75" cy="18.15" r="0.55" style="fill:rgb(51,51,51);stroke:rgb(154,145,108);stroke-width:0.2px;"/>
                            <circle cx="18.45" cy="18.15" r="0.55" style="fill:rgb(51,51,51);stroke:rgb(154,145,108);stroke-width:0.2px;"/>
                            <circle cx="20.15" cy="18.15" r="0.55" style="fill:rgb(51,51,51);stroke:rgb(154,145,108);stroke-width:0.2px;"/>
                            <circle cx="21.85" cy="18.15" r="0.55" style="fill:rgb(51,51,51);stroke:rgb(154,145,108);stroke-width:0.2px;"/>
                            <circle cx="23.55" cy="18.15" r="0.55" style="fill:rgb(51,51,51);stroke:rgb(154,145,108);stroke-width:0.2px;"/>
                            <circle cx="25.25" cy="18.15" r="0.55" style="fill:rgb(51,51,51);stroke:rgb(154,145,108);stroke-width:0.2px;"/>
                            <circle cx="26.95" cy="18.15" r="0.55" style="fill:rgb(51,51,51);stroke:rgb(154,145,108);stroke-width:0.2px;"/>
                            <circle cx="28.65" cy="18.15" r="0.55" style="fill:rgb(51,51,51);stroke:rgb(154,145,108);stroke-width:0.2px;"/>
                            <circle cx="30.35" cy="18.15" r="0.55" style="fill:rgb(51,51,51);stroke:rgb(154,145,108);stroke-width:0.2px;"/>
                            <circle cx="32.05" cy="18.15" r="0.55" style="fill:rgb(51,51,51);stroke:rgb(154,145,108);stroke-width:0.2px;"/>
                            <circle cx="33.75" cy="18.15" r="0.55" style="fill:rgb(51,51,51);stroke:rgb(154,145,108);stroke-width:0.2px;"/>
                            <circle cx="35.45" cy="18.15" r="0.55" style="fill:rgb(51,51,51);stroke:rgb(154,145,108);stroke-width:0.2px;"/>
                        </g>
                        <g>
                            <circle cx="11.65" cy="19.85" r="0.55" style="fill:rgb(51,51,51);stroke:rgb(154,145,108);stroke-width:0.2px;"/>
                            <circle cx="13.35" cy="19.85" r="0.55" style="fill:rgb(51,51,51);stroke:rgb(154,145,108);stroke-width:0.2px;"/>
                            <circle cx="15.05" cy="19.85" r="0.55" style="fill:rgb(51,51,51);stroke:rgb(154,145,108);stroke-width:0.2px;"/>
                            <circle cx="16.75" cy="19.85" r="0.55" style="fill:rgb(51,51,51);stroke:rgb(154,145,108);stroke-width:0.2px;"/>
                            <circle cx="18.45" cy="19.85" r="0.55" style="fill:rgb(51,51,51);stroke:rgb(154,145,108);stroke-width:0.2px;"/>
                            <circle cx="20.15" cy="19.85" r="0.55" style="fill:rgb(51,51,51);stroke:rgb(154,145,108);stroke-width:0.2px;"/>
                            <circle cx="21.85" cy="19.85" r="0.55" style="fill:rgb(51,51,51);stroke:rgb(154,145,108);stroke-width:0.2px;"/>
                            <circle cx="23.55" cy="19.85" r="0.55" style="fill:rgb(51,51,51);stroke:rgb(154,145,108);stroke-width:0.2px;"/>
                            <circle cx="25.25" cy="19.85" r="0.55" style="fill:rgb(51,51,51);stroke:rgb(154,145,108);stroke-width:0.2px;"/>
                            <circle cx="26.95" cy="19.85" r="0.55" style="fill:rgb(51,51,51);stroke:rgb(154,145,108);stroke-width:0.2px;"/>
                            <circle cx="28.65" cy="19.85" r="0.55" style="fill:rgb(51,51,51);stroke:rgb(154,145,108);stroke-width:0.2px;"/>
                        </g>
                    </g>
                    <g>
                        <rect x="5.575" y="21.26" width="34.2" height="43.2" style="fill:rgb(153,153,153);"/>
                        <g>
                            <path d="M39.275,21.891L39.275,63.96L6.075,63.96L6.075,63.828L5.354,64.739L5.575,64.96L39.775,64.96L40.275,64.46L40.275,21.26L39.996,20.981L39.275,21.891Z" style="fill:rgb(204,204,204);fill-rule:nonzero;"/>
                            <path d="M6.075,21.76L39.275,21.76L39.275,21.891L39.996,20.981L39.775,20.76L5.575,20.76L5.075,21.26L5.075,64.46L5.354,64.739L6.075,63.828L6.075,21.76Z" style="fill:rgb(102,102,102);fill-rule:nonzero;"/>
                        </g>
                        <g>
                            <path d="M37.964,27.034L37.964,27.658C37.629,27.901 37.222,28.097 36.835,27.828C34.782,26.798 32.444,26.164 30.139,26.506C29.227,26.674 28.219,26.983 27.69,27.807C27.168,28.684 27.527,29.802 28.109,30.555C28.404,30.979 28.96,30.998 29.403,31.174C29.868,31.31 29.908,32.03 29.554,32.303C29.029,32.582 28.382,32.668 27.974,33.135C27.323,33.812 27.142,34.991 27.785,35.733C28.417,36.425 29.402,36.638 30.301,36.683C31.985,36.735 33.694,36.318 35.148,35.462C35.778,35.107 36.249,34.533 36.879,34.183C37.363,34.063 37.814,34.609 37.576,35.058C37.144,35.925 36.239,36.423 35.415,36.858C33.493,37.746 31.334,38.325 29.211,37.978C27.701,37.705 26.211,36.61 25.999,35.004L25.999,33.94C26.178,33.074 26.659,32.31 27.326,31.736C26.69,31.014 26.146,30.179 25.999,29.21L25.999,28.442C26.091,27.666 26.42,26.907 27.007,26.378C28.031,25.428 29.463,25.097 30.819,24.998L32.176,24.998C33.843,25.232 35.485,25.658 37.038,26.308C37.411,26.456 37.714,26.727 37.964,27.034Z" style="fill:white;fill-rule:nonzero;"/>
                            <path d="M30.546,40.415C29.952,38.992 27.779,38.688 26.777,39.824C26.076,40.721 26.226,41.974 26.57,42.983C26.878,42.99 27.187,43 27.495,43.009C27.067,42.149 26.908,40.622 28.138,40.373C28.179,41.382 28.145,42.392 28.159,43.401C28.776,43.384 29.456,43.407 29.974,43.016C30.795,42.456 30.888,41.275 30.546,40.415ZM29.883,41.45C29.894,41.964 29.345,42.125 28.946,42.239C28.929,41.618 28.929,41 28.944,40.379C29.402,40.548 29.967,40.875 29.883,41.45Z" style="fill:white;fill-rule:nonzero;"/>
                            <path d="M32.315,44.339C32.322,44.988 32.321,45.636 32.321,46.285C30.885,46.833 29.452,47.394 27.997,47.889C29.448,48.407 30.885,48.956 32.321,49.512L32.321,51.4C30.347,51.396 28.373,51.398 26.399,51.4C26.401,50.955 26.401,50.51 26.41,50.065C28.036,50.076 29.665,50.095 31.289,50.095C29.608,49.676 28.031,48.94 26.401,48.368C26.401,48.015 26.401,47.661 26.399,47.308C28.025,46.695 29.616,45.958 31.302,45.525C29.674,45.534 28.042,45.547 26.41,45.566C26.403,45.158 26.401,44.751 26.401,44.343C28.372,44.35 30.343,44.354 32.315,44.339Z" style="fill:white;fill-rule:nonzero;"/>
                            <path d="M30.208,53.854C30.847,55.045 29.653,56.669 28.322,56.294C26.984,56.004 26.58,54.054 27.668,53.238C28.449,52.5 29.823,52.885 30.208,53.854Z" style="fill:white;fill-rule:nonzero;"/>
                            <path d="M35.339,49.289C36.505,50.452 37.373,51.947 37.592,53.596C37.96,55.907 37.035,58.297 35.366,59.903C35.069,59.615 34.77,59.331 34.471,59.047C35.744,57.845 36.497,56.093 36.402,54.336C36.338,52.751 35.585,51.248 34.45,50.154C34.745,49.865 35.044,49.577 35.339,49.289Z" style="fill:white;fill-rule:nonzero;"/>
                            <path d="M33.79,50.734C35.046,51.872 35.708,53.628 35.459,55.312C35.336,56.529 34.666,57.602 33.851,58.484C33.524,58.161 33.189,57.845 32.849,57.536C33.733,56.667 34.259,55.42 34.092,54.173C34.01,53.214 33.498,52.358 32.84,51.677C33.16,51.368 33.477,51.053 33.79,50.734Z" style="fill:white;fill-rule:nonzero;"/>
                            <path d="M32.214,52.241C32.779,52.875 33.238,53.658 33.238,54.529C33.287,55.449 32.838,56.307 32.227,56.965C31.909,56.653 31.584,56.348 31.255,56.049C32.046,55.273 32.064,53.948 31.242,53.187C31.571,52.876 31.896,52.562 32.214,52.241Z" style="fill:white;fill-rule:nonzero;"/>
                            <path d="M30.378,58.056C30.875,58.826 30.739,59.798 30.584,60.651C30.261,60.653 29.935,60.655 29.612,60.662C29.864,60.021 30.051,59.251 29.558,58.667C28.764,59.23 28.98,60.557 27.967,60.892L27.31,60.892C26.093,60.314 26.151,58.671 26.487,57.572C26.82,57.512 27.16,57.512 27.496,57.492C27.289,58.07 27.029,58.692 27.208,59.315C27.247,59.59 27.408,59.704 27.69,59.653C28.129,59.081 28.124,58.26 28.67,57.757C29.187,57.355 30.038,57.482 30.378,58.056Z" style="fill:white;fill-rule:nonzero;"/>
                        </g>
                        <g>
                            <g>
                                <path d="M23.58,25.248L23.58,26.266L22.055,26.659L23.58,27.049L23.58,28.067L21.074,28.067L21.074,27.433L22.984,27.433L21.074,26.945L21.074,26.37L22.984,25.882L21.074,25.882L21.074,25.248L23.58,25.248Z" style="fill:white;fill-rule:nonzero;"/>
                                <path d="M22.325,28.463C22.734,28.463 23.053,28.577 23.28,28.805C23.509,29.033 23.622,29.35 23.622,29.757C23.622,30.174 23.511,30.495 23.286,30.721C23.062,30.947 22.749,31.059 22.346,31.059C22.053,31.059 21.813,31.01 21.625,30.911C21.437,30.812 21.292,30.67 21.187,30.484C21.083,30.298 21.031,30.066 21.031,29.788C21.031,29.505 21.076,29.271 21.166,29.086C21.257,28.901 21.398,28.751 21.594,28.636C21.79,28.521 22.032,28.463 22.325,28.463ZM22.322,29.237C22.068,29.237 21.886,29.284 21.776,29.378C21.666,29.472 21.611,29.6 21.611,29.762C21.611,29.928 21.665,30.057 21.773,30.148C21.881,30.239 22.076,30.285 22.355,30.285C22.591,30.285 22.763,30.238 22.873,30.142C22.981,30.047 23.036,29.918 23.036,29.755C23.036,29.599 22.98,29.473 22.87,29.379C22.76,29.284 22.577,29.237 22.322,29.237Z" style="fill:white;fill-rule:nonzero;"/>
                                <path d="M23.58,31.485L23.58,32.635C23.58,32.862 23.549,33.045 23.487,33.184C23.425,33.323 23.338,33.439 23.222,33.53C23.107,33.621 22.973,33.687 22.82,33.728C22.668,33.769 22.506,33.79 22.336,33.79C22.067,33.79 21.86,33.759 21.713,33.698C21.566,33.637 21.442,33.552 21.342,33.444C21.242,33.336 21.176,33.22 21.143,33.095C21.097,32.926 21.075,32.772 21.075,32.634L21.075,31.484L23.58,31.484L23.58,31.485ZM23.012,32.26L21.644,32.26L21.644,32.449C21.644,32.611 21.662,32.726 21.698,32.794C21.734,32.862 21.797,32.916 21.886,32.955C21.976,32.994 22.12,33.013 22.322,33.013C22.588,33.013 22.769,32.97 22.867,32.883C22.965,32.796 23.013,32.653 23.013,32.452L23.013,32.26L23.012,32.26Z" style="fill:white;fill-rule:nonzero;"/>
                                <path d="M23.58,34.196L23.58,36.27L23.045,36.27L23.045,34.971L22.647,34.971L22.647,36.176L22.136,36.176L22.136,34.971L21.642,34.971L21.642,36.308L21.075,36.308L21.075,34.196L23.58,34.196Z" style="fill:white;fill-rule:nonzero;"/>
                                <path d="M23.58,36.725L23.58,37.499L21.691,37.499L21.691,38.707L21.074,38.707L21.074,36.725L23.58,36.725Z" style="fill:white;fill-rule:nonzero;"/>
                            </g>
                            <g>
                                <path d="M23.58,41.255L23.58,43.329L23.045,43.329L23.045,42.03L22.647,42.03L22.647,43.235L22.136,43.235L22.136,42.03L21.642,42.03L21.642,43.367L21.075,43.367L21.075,41.255L23.58,41.255Z" style="fill:white;fill-rule:nonzero;"/>
                                <path d="M21.903,43.648L21.949,44.384C21.83,44.401 21.738,44.433 21.676,44.482C21.574,44.562 21.524,44.675 21.524,44.824C21.524,44.934 21.55,45.019 21.602,45.08C21.654,45.14 21.713,45.17 21.782,45.17C21.847,45.17 21.905,45.141 21.957,45.084C22.009,45.027 22.057,44.895 22.103,44.688C22.179,44.348 22.281,44.106 22.407,43.961C22.534,43.815 22.695,43.742 22.89,43.742C23.019,43.742 23.141,43.779 23.255,43.854C23.369,43.928 23.46,44.041 23.526,44.191C23.591,44.34 23.624,44.545 23.624,44.807C23.624,45.126 23.564,45.37 23.445,45.538C23.326,45.706 23.136,45.807 22.877,45.839L22.835,45.109C22.947,45.089 23.029,45.049 23.081,44.987C23.132,44.925 23.158,44.84 23.158,44.73C23.158,44.64 23.138,44.572 23.1,44.527C23.062,44.481 23.015,44.459 22.96,44.459C22.92,44.459 22.885,44.478 22.853,44.515C22.82,44.552 22.79,44.638 22.761,44.775C22.688,45.114 22.614,45.356 22.539,45.503C22.464,45.649 22.372,45.756 22.261,45.822C22.151,45.888 22.028,45.923 21.891,45.923C21.73,45.923 21.582,45.878 21.447,45.789C21.312,45.7 21.209,45.576 21.138,45.417C21.068,45.257 21.033,45.056 21.033,44.813C21.033,44.386 21.115,44.091 21.279,43.927C21.443,43.763 21.65,43.67 21.903,43.648Z" style="fill:white;fill-rule:nonzero;"/>
                                <path d="M23.58,46.308L23.58,47.595C23.58,47.875 23.513,48.085 23.38,48.225C23.246,48.365 23.057,48.434 22.811,48.434C22.558,48.434 22.361,48.358 22.218,48.206C22.075,48.054 22.004,47.821 22.004,47.509L22.004,47.085L21.074,47.085L21.074,46.308L23.58,46.308ZM22.512,47.085L22.512,47.275C22.512,47.424 22.537,47.529 22.589,47.589C22.641,47.649 22.707,47.679 22.788,47.679C22.867,47.679 22.934,47.654 22.988,47.601C23.042,47.548 23.07,47.45 23.07,47.305L23.07,47.084L22.512,47.084L22.512,47.085Z" style="fill:white;fill-rule:nonzero;"/>
                                <rect x="21.719" y="48.66" width="0.538" height="1.012" style="fill:white;fill-rule:nonzero;"/>
                                <path d="M22.421,50.311C22.479,50.202 22.544,50.122 22.615,50.072C22.714,50.004 22.826,49.969 22.954,49.969C23.164,49.969 23.335,50.067 23.469,50.264C23.572,50.418 23.622,50.621 23.622,50.874C23.622,51.209 23.559,51.456 23.431,51.616C23.304,51.776 23.143,51.856 22.95,51.856C22.837,51.856 22.731,51.825 22.634,51.76C22.561,51.712 22.49,51.637 22.422,51.534C22.357,51.67 22.271,51.771 22.164,51.838C22.057,51.904 21.938,51.938 21.809,51.938C21.683,51.938 21.567,51.91 21.457,51.852C21.349,51.794 21.265,51.724 21.205,51.64C21.145,51.556 21.102,51.452 21.074,51.328C21.047,51.203 21.032,51.07 21.032,50.929C21.032,50.663 21.063,50.461 21.126,50.321C21.189,50.181 21.281,50.074 21.403,50.002C21.525,49.929 21.661,49.893 21.811,49.893C21.958,49.893 22.082,49.927 22.185,49.996C22.286,50.062 22.365,50.168 22.421,50.311ZM21.835,50.585C21.725,50.585 21.634,50.619 21.564,50.687C21.495,50.753 21.46,50.831 21.46,50.917C21.46,51 21.495,51.074 21.566,51.141C21.637,51.208 21.727,51.241 21.837,51.241C21.948,51.241 22.038,51.207 22.109,51.14C22.179,51.074 22.214,50.996 22.214,50.909C22.214,50.822 22.18,50.747 22.111,50.682C22.042,50.617 21.951,50.585 21.835,50.585ZM22.913,50.623C22.826,50.623 22.757,50.649 22.704,50.704C22.65,50.758 22.624,50.83 22.624,50.92C22.624,51 22.65,51.066 22.703,51.117C22.755,51.168 22.823,51.193 22.906,51.193C22.993,51.193 23.063,51.167 23.117,51.113C23.172,51.059 23.198,50.991 23.198,50.908C23.198,50.824 23.172,50.755 23.119,50.702C23.066,50.649 22.997,50.623 22.913,50.623Z" style="fill:white;fill-rule:nonzero;"/>
                                <path d="M21.074,54.264L21.074,52.175C21.28,52.199 21.474,52.272 21.656,52.393C21.838,52.515 22.052,52.743 22.3,53.077C22.451,53.28 22.567,53.411 22.645,53.468C22.724,53.526 22.798,53.554 22.87,53.554C22.946,53.554 23.011,53.526 23.065,53.469C23.119,53.412 23.146,53.342 23.146,53.256C23.146,53.167 23.118,53.095 23.062,53.038C23.006,52.981 22.908,52.944 22.766,52.925L22.823,52.228C23.019,52.255 23.173,52.305 23.282,52.378C23.392,52.45 23.476,52.554 23.535,52.687C23.594,52.82 23.623,53.003 23.623,53.238C23.623,53.483 23.596,53.674 23.54,53.809C23.483,53.946 23.398,54.052 23.282,54.13C23.167,54.208 23.037,54.247 22.893,54.247C22.741,54.247 22.594,54.202 22.455,54.113C22.316,54.023 22.163,53.861 21.997,53.625C21.9,53.485 21.832,53.392 21.794,53.344C21.755,53.297 21.704,53.241 21.642,53.178L21.642,54.265L21.074,54.265L21.074,54.264Z" style="fill:white;fill-rule:nonzero;"/>
                                <path d="M23.016,56.575L22.93,55.883C23.028,55.865 23.096,55.834 23.135,55.792C23.175,55.749 23.196,55.696 23.196,55.634C23.196,55.521 23.138,55.433 23.025,55.37C22.943,55.325 22.767,55.291 22.499,55.269C22.583,55.352 22.645,55.438 22.686,55.526C22.727,55.613 22.748,55.714 22.748,55.83C22.748,56.054 22.668,56.242 22.508,56.396C22.349,56.55 22.147,56.627 21.902,56.627C21.737,56.627 21.587,56.588 21.45,56.51C21.313,56.432 21.21,56.324 21.139,56.186C21.068,56.048 21.034,55.874 21.034,55.665C21.034,55.414 21.077,55.213 21.163,55.061C21.248,54.91 21.385,54.789 21.572,54.698C21.76,54.608 22.008,54.562 22.316,54.562C22.768,54.562 23.099,54.658 23.309,54.848C23.52,55.037 23.624,55.301 23.624,55.639C23.624,55.838 23.602,55.995 23.555,56.112C23.509,56.227 23.442,56.323 23.353,56.4C23.262,56.478 23.15,56.535 23.016,56.575ZM21.899,55.294C21.763,55.294 21.658,55.328 21.581,55.397C21.504,55.466 21.466,55.548 21.466,55.648C21.466,55.739 21.5,55.815 21.57,55.877C21.639,55.939 21.743,55.97 21.881,55.97C22.023,55.97 22.13,55.938 22.204,55.874C22.278,55.81 22.314,55.73 22.314,55.637C22.314,55.539 22.279,55.458 22.207,55.393C22.136,55.326 22.033,55.294 21.899,55.294Z" style="fill:white;fill-rule:nonzero;"/>
                                <path d="M23.016,58.91L22.93,58.218C23.028,58.2 23.096,58.169 23.135,58.127C23.175,58.084 23.196,58.031 23.196,57.969C23.196,57.856 23.138,57.768 23.025,57.705C22.943,57.66 22.767,57.626 22.499,57.604C22.583,57.687 22.645,57.773 22.686,57.861C22.727,57.948 22.748,58.049 22.748,58.165C22.748,58.389 22.668,58.577 22.508,58.731C22.349,58.885 22.147,58.962 21.902,58.962C21.737,58.962 21.587,58.923 21.45,58.845C21.313,58.767 21.21,58.659 21.139,58.521C21.068,58.383 21.034,58.209 21.034,58C21.034,57.749 21.077,57.548 21.163,57.396C21.248,57.245 21.385,57.124 21.572,57.033C21.76,56.943 22.008,56.897 22.316,56.897C22.768,56.897 23.099,56.993 23.309,57.183C23.52,57.372 23.624,57.636 23.624,57.974C23.624,58.173 23.602,58.33 23.555,58.447C23.509,58.562 23.442,58.658 23.353,58.735C23.262,58.812 23.15,58.87 23.016,58.91ZM21.899,57.629C21.763,57.629 21.658,57.663 21.581,57.732C21.504,57.801 21.466,57.883 21.466,57.983C21.466,58.074 21.5,58.15 21.57,58.212C21.639,58.274 21.743,58.305 21.881,58.305C22.023,58.305 22.13,58.273 22.204,58.209C22.278,58.145 22.314,58.065 22.314,57.972C22.314,57.874 22.279,57.793 22.207,57.728C22.136,57.661 22.033,57.629 21.899,57.629Z" style="fill:white;fill-rule:nonzero;"/>
                            </g>
                            <g>
                                <rect x="16.92" y="41.246" width="2.147" height="0.665" style="fill:white;fill-rule:nonzero;"/>
                                <path d="M17.631,42.271L17.67,42.902C17.567,42.916 17.489,42.944 17.436,42.986C17.349,43.054 17.305,43.152 17.305,43.279C17.305,43.374 17.327,43.446 17.372,43.498C17.416,43.549 17.468,43.575 17.526,43.575C17.582,43.575 17.631,43.551 17.675,43.502C17.719,43.453 17.76,43.34 17.8,43.162C17.864,42.871 17.952,42.663 18.06,42.539C18.169,42.414 18.307,42.351 18.475,42.351C18.585,42.351 18.69,42.383 18.787,42.447C18.886,42.511 18.963,42.607 19.018,42.736C19.075,42.864 19.102,43.041 19.102,43.264C19.102,43.538 19.051,43.747 18.95,43.891C18.847,44.036 18.685,44.121 18.463,44.149L18.427,43.523C18.523,43.506 18.593,43.471 18.638,43.419C18.681,43.365 18.703,43.292 18.703,43.198C18.703,43.121 18.686,43.063 18.654,43.024C18.621,42.985 18.581,42.965 18.534,42.965C18.5,42.965 18.47,42.981 18.442,43.013C18.414,43.044 18.387,43.118 18.363,43.236C18.301,43.526 18.237,43.734 18.174,43.859C18.11,43.985 18.03,44.076 17.936,44.133C17.841,44.19 17.736,44.219 17.619,44.219C17.48,44.219 17.353,44.181 17.238,44.105C17.121,44.029 17.033,43.922 16.973,43.786C16.912,43.649 16.882,43.476 16.882,43.268C16.882,42.903 16.952,42.65 17.093,42.509C17.234,42.368 17.414,42.29 17.631,42.271Z" style="fill:white;fill-rule:nonzero;"/>
                                <path d="M19.067,44.546L19.067,45.419L17.76,45.756L19.067,46.09L19.067,46.962L16.92,46.962L16.92,46.418L18.558,46.418L16.92,45.999L16.92,45.508L18.558,45.09L16.92,45.09L16.92,44.546L19.067,44.546Z" style="fill:white;fill-rule:nonzero;"/>
                                <path d="M16.92,50.035L16.92,48.245C17.097,48.266 17.263,48.328 17.419,48.432C17.574,48.536 17.758,48.731 17.971,49.017C18.1,49.192 18.2,49.304 18.266,49.353C18.334,49.402 18.398,49.426 18.458,49.426C18.523,49.426 18.579,49.402 18.626,49.354C18.672,49.305 18.695,49.245 18.695,49.171C18.695,49.095 18.671,49.032 18.623,48.984C18.575,48.935 18.491,48.903 18.37,48.886L18.418,48.288C18.586,48.311 18.718,48.354 18.812,48.417C18.907,48.479 18.979,48.567 19.029,48.682C19.08,48.795 19.104,48.953 19.104,49.154C19.104,49.364 19.081,49.527 19.033,49.644C18.985,49.76 18.912,49.852 18.812,49.919C18.713,49.985 18.602,50.02 18.479,50.02C18.348,50.02 18.223,49.981 18.104,49.905C17.985,49.828 17.854,49.689 17.711,49.487C17.628,49.367 17.569,49.286 17.537,49.246C17.503,49.205 17.46,49.158 17.406,49.103L17.406,50.035L16.92,50.035Z" style="fill:white;fill-rule:nonzero;"/>
                                <rect x="16.92" y="50.349" width="0.598" height="0.637" style="fill:white;fill-rule:nonzero;"/>
                                <path d="M17.321,52.314L17.321,51.227L17.812,51.227L19.103,52.314L19.103,52.834L17.784,52.834L17.784,53.104L17.321,53.104L17.321,52.834L16.92,52.834L16.92,52.314L17.321,52.314ZM17.784,52.314L18.46,52.314L17.784,51.74L17.784,52.314Z" style="fill:white;fill-rule:nonzero;"/>
                                <path d="M17.697,54.466L18.144,54.466L18.144,55.491L17.228,55.491C17.094,55.295 17.003,55.122 16.956,54.97C16.907,54.82 16.883,54.64 16.883,54.433C16.883,54.178 16.927,53.97 17.014,53.81C17.101,53.649 17.23,53.525 17.403,53.437C17.574,53.348 17.772,53.304 17.995,53.304C18.229,53.304 18.433,53.352 18.606,53.449C18.779,53.546 18.911,53.687 19.001,53.874C19.07,54.02 19.105,54.216 19.105,54.462C19.105,54.699 19.084,54.876 19.041,54.994C18.998,55.111 18.932,55.21 18.842,55.287C18.751,55.365 18.637,55.423 18.498,55.462L18.384,54.822C18.465,54.796 18.527,54.751 18.571,54.688C18.613,54.625 18.635,54.544 18.635,54.447C18.635,54.301 18.584,54.185 18.483,54.099C18.382,54.012 18.222,53.969 18.004,53.969C17.772,53.969 17.606,54.012 17.506,54.1C17.406,54.187 17.357,54.309 17.357,54.465C17.357,54.539 17.368,54.611 17.389,54.678C17.41,54.745 17.447,54.823 17.499,54.909L17.7,54.909L17.7,54.466L17.697,54.466Z" style="fill:white;fill-rule:nonzero;"/>
                                <path d="M19.067,55.889L19.067,56.552L18.316,56.552L18.316,57.278L19.067,57.278L19.067,57.944L16.92,57.944L16.92,57.278L17.789,57.278L17.789,56.552L16.92,56.552L16.92,55.889L19.067,55.889Z" style="fill:white;fill-rule:nonzero;"/>
                                <path d="M18.476,58.277L18.476,59.72L18.127,59.72L17.327,58.935L17.327,59.768L16.92,59.768L16.92,58.218L17.307,58.218L18.069,58.964L18.069,58.276L18.476,58.276L18.476,58.277Z" style="fill:white;fill-rule:nonzero;"/>
                            </g>
                            <g>
                                <path d="M15.067,41.217L15.067,42.32C15.067,42.56 15.009,42.74 14.896,42.86C14.781,42.979 14.619,43.04 14.408,43.04C14.191,43.04 14.021,42.975 13.9,42.845C13.777,42.714 13.716,42.515 13.716,42.247L13.716,41.884L12.92,41.884L12.92,41.218L15.067,41.218L15.067,41.217ZM14.152,41.883L14.152,42.046C14.152,42.174 14.173,42.264 14.218,42.316C14.262,42.368 14.319,42.393 14.388,42.393C14.456,42.393 14.513,42.371 14.56,42.326C14.607,42.281 14.63,42.197 14.63,42.073L14.63,41.884L14.152,41.884L14.152,41.883Z" style="fill:white;fill-rule:nonzero;"/>
                                <path d="M13.274,44.451L13.274,43.698L12.92,43.594L12.92,42.916L15.067,43.723L15.067,44.447L12.92,45.255L12.92,44.56L13.274,44.451ZM13.738,44.313L14.51,44.076L13.738,43.842L13.738,44.313Z" style="fill:white;fill-rule:nonzero;"/>
                                <path d="M14.229,46.432L14.229,46.993L14.792,46.993L14.792,47.467L14.229,47.467L14.229,48.03L13.755,48.03L13.755,47.467L13.193,47.467L13.193,46.993L13.755,46.993L13.755,46.432L14.229,46.432Z" style="fill:white;fill-rule:nonzero;"/>
                                <path d="M12.92,50.095L12.92,48.305C13.097,48.326 13.263,48.388 13.419,48.492C13.574,48.596 13.758,48.792 13.971,49.078C14.1,49.253 14.2,49.364 14.266,49.413C14.334,49.462 14.398,49.486 14.458,49.486C14.523,49.486 14.579,49.462 14.626,49.414C14.672,49.365 14.695,49.305 14.695,49.231C14.695,49.155 14.671,49.092 14.623,49.044C14.575,48.995 14.491,48.963 14.37,48.946L14.418,48.348C14.586,48.371 14.718,48.414 14.812,48.477C14.907,48.539 14.979,48.627 15.029,48.742C15.08,48.855 15.104,49.013 15.104,49.215C15.104,49.425 15.081,49.588 15.033,49.704C14.985,49.821 14.912,49.913 14.812,49.979C14.713,50.046 14.602,50.08 14.479,50.08C14.348,50.08 14.223,50.042 14.104,49.965C13.985,49.889 13.854,49.749 13.711,49.547C13.628,49.427 13.569,49.347 13.537,49.306C13.503,49.266 13.46,49.218 13.406,49.163L13.406,50.095L12.92,50.095Z" style="fill:white;fill-rule:nonzero;"/>
                                <path d="M15.067,50.592L15.067,52.008L14.591,52.008L14.591,51.049L14.269,50.997C14.299,51.063 14.323,51.129 14.339,51.194C14.354,51.258 14.362,51.323 14.362,51.386C14.362,51.601 14.297,51.776 14.167,51.909C14.037,52.042 13.873,52.109 13.677,52.109C13.537,52.109 13.405,52.075 13.277,52.005C13.149,51.937 13.051,51.839 12.984,51.712C12.917,51.586 12.882,51.424 12.882,51.227C12.882,51.085 12.896,50.964 12.923,50.863C12.949,50.762 12.989,50.676 13.043,50.605C13.096,50.535 13.156,50.477 13.224,50.433C13.292,50.389 13.375,50.353 13.476,50.324L13.542,50.928C13.444,50.943 13.371,50.977 13.321,51.031C13.27,51.085 13.245,51.148 13.245,51.222C13.245,51.305 13.277,51.373 13.34,51.428C13.403,51.482 13.497,51.509 13.622,51.509C13.75,51.509 13.844,51.482 13.903,51.427C13.962,51.372 13.993,51.3 13.993,51.209C13.993,51.151 13.978,51.096 13.95,51.042C13.929,51.002 13.892,50.958 13.839,50.91L13.912,50.401L15.067,50.592Z" style="fill:white;fill-rule:nonzero;"/>
                                <path d="M15.067,54.046L12.92,54.046L12.92,53.487L13.15,53.487C13.051,53.409 12.986,53.338 12.952,53.273C12.907,53.187 12.885,53.091 12.885,52.986C12.885,52.774 12.965,52.612 13.127,52.501C13.287,52.389 13.483,52.333 13.714,52.333C13.972,52.333 14.169,52.395 14.306,52.519C14.443,52.642 14.511,52.799 14.511,52.99C14.511,53.083 14.495,53.167 14.464,53.243C14.433,53.318 14.386,53.386 14.323,53.444L15.067,53.444L15.067,54.046ZM13.702,53.448C13.824,53.448 13.915,53.422 13.975,53.37C14.035,53.318 14.065,53.253 14.065,53.174C14.065,53.105 14.036,53.047 13.978,53C13.92,52.953 13.824,52.93 13.689,52.93C13.561,52.93 13.468,52.953 13.41,53.002C13.35,53.05 13.321,53.11 13.321,53.182C13.321,53.258 13.35,53.322 13.41,53.372C13.47,53.422 13.567,53.448 13.702,53.448Z" style="fill:white;fill-rule:nonzero;"/>
                                <path d="M15.067,54.45L15.067,55.692C15.067,55.899 15.015,56.057 14.914,56.169C14.81,56.279 14.684,56.335 14.533,56.335C14.405,56.335 14.297,56.296 14.206,56.217C14.145,56.164 14.098,56.087 14.062,55.986C14.025,56.14 13.961,56.254 13.871,56.326C13.781,56.399 13.667,56.435 13.531,56.435C13.42,56.435 13.319,56.41 13.23,56.358C13.141,56.306 13.071,56.235 13.019,56.145C12.987,56.089 12.963,56.005 12.949,55.893C12.929,55.744 12.92,55.645 12.92,55.596L12.92,54.45L15.067,54.45ZM13.381,55.119L13.381,55.458C13.381,55.572 13.402,55.652 13.443,55.699C13.483,55.746 13.538,55.769 13.606,55.769C13.669,55.769 13.72,55.746 13.759,55.7C13.797,55.653 13.817,55.572 13.817,55.456L13.817,55.119L13.381,55.119ZM14.225,55.119L14.225,55.408C14.225,55.512 14.244,55.583 14.279,55.624C14.315,55.664 14.366,55.685 14.434,55.685C14.496,55.685 14.545,55.664 14.58,55.624C14.615,55.583 14.633,55.513 14.633,55.412L14.633,55.119L14.225,55.119Z" style="fill:white;fill-rule:nonzero;"/>
                                <path d="M14.476,56.747L14.476,57.304L14.248,57.304C14.343,57.384 14.41,57.465 14.451,57.546C14.49,57.628 14.511,57.727 14.511,57.842C14.511,57.966 14.489,58.065 14.446,58.137C14.401,58.209 14.336,58.269 14.249,58.315C14.351,58.409 14.42,58.494 14.457,58.571C14.493,58.648 14.512,58.743 14.512,58.856C14.512,59.023 14.462,59.153 14.364,59.247C14.264,59.341 14.109,59.388 13.898,59.388L12.92,59.388L12.92,58.79L13.807,58.79C13.877,58.79 13.929,58.776 13.963,58.749C14.017,58.709 14.043,58.659 14.043,58.6C14.043,58.531 14.018,58.474 13.967,58.431C13.916,58.388 13.835,58.367 13.723,58.367L12.92,58.367L12.92,57.769L13.777,57.769C13.844,57.769 13.891,57.765 13.916,57.757C13.955,57.744 13.986,57.723 14.011,57.691C14.034,57.66 14.047,57.624 14.047,57.582C14.047,57.513 14.021,57.457 13.969,57.412C13.917,57.368 13.832,57.347 13.714,57.347L12.92,57.347L12.92,56.749L14.476,56.749L14.476,56.747Z" style="fill:white;fill-rule:nonzero;"/>
                            </g>
                            <g>
                                <path d="M10.074,41.481C10.124,41.387 10.179,41.319 10.241,41.276C10.325,41.217 10.422,41.188 10.531,41.188C10.711,41.188 10.857,41.273 10.972,41.442C11.06,41.574 11.103,41.748 11.103,41.964C11.103,42.251 11.048,42.463 10.939,42.601C10.83,42.738 10.692,42.807 10.527,42.807C10.429,42.807 10.339,42.78 10.256,42.725C10.194,42.684 10.133,42.62 10.074,42.532C10.018,42.648 9.944,42.735 9.853,42.792C9.76,42.85 9.66,42.878 9.548,42.878C9.44,42.878 9.34,42.853 9.246,42.804C9.153,42.754 9.081,42.695 9.03,42.622C8.979,42.551 8.942,42.461 8.918,42.354C8.895,42.247 8.882,42.132 8.882,42.011C8.882,41.783 8.909,41.61 8.963,41.49C9.017,41.37 9.096,41.279 9.2,41.217C9.304,41.155 9.421,41.123 9.55,41.123C9.677,41.123 9.783,41.152 9.87,41.211C9.959,41.27 10.026,41.359 10.074,41.481ZM9.572,41.718C9.476,41.718 9.399,41.746 9.34,41.804C9.279,41.862 9.25,41.928 9.25,42.002C9.25,42.073 9.28,42.137 9.341,42.193C9.403,42.25 9.48,42.278 9.573,42.278C9.668,42.278 9.745,42.25 9.806,42.193C9.866,42.135 9.896,42.069 9.896,41.994C9.896,41.92 9.867,41.855 9.808,41.801C9.75,41.745 9.672,41.718 9.572,41.718ZM10.496,41.75C10.422,41.75 10.362,41.772 10.316,41.819C10.271,41.865 10.248,41.927 10.248,42.005C10.248,42.073 10.27,42.129 10.316,42.173C10.36,42.217 10.419,42.239 10.49,42.239C10.564,42.239 10.625,42.216 10.671,42.17C10.718,42.124 10.74,42.066 10.74,41.994C10.74,41.922 10.718,41.863 10.673,41.818C10.627,41.772 10.568,41.75 10.496,41.75Z" style="fill:white;fill-rule:nonzero;"/>
                                <path d="M10.002,43.124C10.41,43.124 10.696,43.197 10.859,43.345C11.022,43.491 11.103,43.715 11.103,44.016C11.103,44.161 11.085,44.28 11.05,44.372C11.014,44.465 10.968,44.54 10.91,44.599C10.853,44.658 10.793,44.704 10.73,44.738C10.667,44.772 10.593,44.799 10.509,44.819C10.349,44.859 10.182,44.88 10.008,44.88C9.618,44.88 9.333,44.814 9.153,44.682C8.973,44.55 8.883,44.322 8.883,44C8.883,43.819 8.912,43.673 8.97,43.562C9.028,43.451 9.112,43.36 9.223,43.289C9.303,43.237 9.411,43.196 9.548,43.168C9.685,43.138 9.836,43.124 10.002,43.124ZM10.001,43.716C9.728,43.716 9.541,43.74 9.44,43.788C9.34,43.837 9.291,43.906 9.291,43.998C9.291,44.059 9.312,44.111 9.354,44.156C9.396,44.2 9.463,44.232 9.555,44.254C9.647,44.275 9.789,44.285 9.984,44.285C10.269,44.285 10.462,44.262 10.559,44.213C10.658,44.165 10.706,44.092 10.706,43.995C10.706,43.896 10.656,43.825 10.556,43.781C10.457,43.737 10.271,43.716 10.001,43.716Z" style="fill:white;fill-rule:nonzero;"/>
                                <path d="M8.92,46.871L8.92,45.081C9.097,45.102 9.263,45.164 9.419,45.268C9.574,45.372 9.758,45.567 9.971,45.853C10.1,46.028 10.2,46.14 10.266,46.189C10.334,46.238 10.398,46.262 10.458,46.262C10.523,46.262 10.579,46.238 10.626,46.19C10.672,46.141 10.695,46.081 10.695,46.007C10.695,45.931 10.671,45.868 10.623,45.82C10.575,45.771 10.491,45.739 10.37,45.722L10.418,45.124C10.586,45.147 10.718,45.19 10.812,45.253C10.907,45.315 10.979,45.403 11.029,45.518C11.08,45.631 11.104,45.789 11.104,45.99C11.104,46.2 11.081,46.363 11.033,46.48C10.985,46.596 10.912,46.688 10.812,46.755C10.713,46.821 10.602,46.856 10.479,46.856C10.348,46.856 10.223,46.817 10.104,46.741C9.985,46.664 9.854,46.525 9.711,46.323C9.628,46.203 9.569,46.122 9.537,46.082C9.503,46.041 9.46,45.994 9.406,45.939L9.406,46.871L8.92,46.871Z" style="fill:white;fill-rule:nonzero;"/>
                                <rect x="8.92" y="47.185" width="0.598" height="0.637" style="fill:white;fill-rule:nonzero;"/>
                                <path d="M11.104,49.477L8.92,49.477L8.92,48.873L10.352,48.873C10.277,48.775 10.217,48.681 10.171,48.59C10.125,48.498 10.081,48.384 10.039,48.246L10.528,48.246C10.593,48.449 10.672,48.607 10.763,48.72C10.854,48.833 10.968,48.92 11.103,48.984L11.103,49.477L11.104,49.477Z" style="fill:white;fill-rule:nonzero;"/>
                                <path d="M11.104,51.478L8.92,51.478L8.92,50.874L10.352,50.874C10.277,50.776 10.217,50.682 10.171,50.591C10.125,50.499 10.081,50.385 10.039,50.247L10.528,50.247C10.593,50.45 10.672,50.608 10.763,50.721C10.854,50.834 10.968,50.921 11.103,50.985L11.103,51.478L11.104,51.478Z" style="fill:white;fill-rule:nonzero;"/>
                                <path d="M11.067,52.187L11.067,52.79L10.323,52.79C10.385,52.85 10.432,52.917 10.464,52.993C10.495,53.068 10.511,53.152 10.511,53.244C10.511,53.433 10.443,53.59 10.307,53.714C10.17,53.838 9.975,53.901 9.72,53.901C9.55,53.901 9.401,53.873 9.271,53.816C9.142,53.759 9.045,53.68 8.981,53.581C8.918,53.48 8.885,53.37 8.885,53.248C8.885,53.144 8.907,53.048 8.952,52.961C8.987,52.896 9.053,52.824 9.15,52.747L8.92,52.747L8.92,52.188L11.067,52.188L11.067,52.187ZM9.702,52.784C9.568,52.784 9.472,52.809 9.411,52.86C9.351,52.91 9.321,52.973 9.321,53.05C9.321,53.121 9.35,53.182 9.41,53.23C9.469,53.279 9.568,53.302 9.708,53.302C9.831,53.302 9.921,53.279 9.979,53.232C10.037,53.184 10.066,53.127 10.066,53.059C10.066,52.978 10.036,52.913 9.976,52.861C9.915,52.811 9.824,52.784 9.702,52.784Z" style="fill:white;fill-rule:nonzero;"/>
                                <path d="M11.104,54.542L11.104,54.847L8.883,54.308L8.883,54.006L11.104,54.542Z" style="fill:white;fill-rule:nonzero;"/>
                                <path d="M10.476,56.101L10.476,56.66L9.006,56.66L8.938,56.66C8.84,56.66 8.748,56.639 8.659,56.598C8.571,56.557 8.5,56.501 8.444,56.433C8.39,56.363 8.35,56.276 8.325,56.17C8.301,56.065 8.289,55.943 8.289,55.807C8.289,55.495 8.336,55.28 8.43,55.162C8.524,55.046 8.649,54.987 8.806,54.987C8.826,54.987 8.852,54.988 8.885,54.99L8.819,55.569C8.766,55.584 8.729,55.606 8.708,55.636C8.679,55.68 8.663,55.735 8.663,55.801C8.663,55.887 8.686,55.951 8.731,55.993C8.778,56.036 8.858,56.057 8.971,56.057L9.207,56.057C9.138,55.998 9.087,55.94 9.057,55.881C9.007,55.789 8.983,55.69 8.983,55.583C8.983,55.375 9.075,55.207 9.256,55.079C9.385,54.988 9.555,54.943 9.767,54.943C10.009,54.943 10.194,55.002 10.321,55.119C10.448,55.236 10.511,55.39 10.511,55.579C10.511,55.7 10.49,55.8 10.449,55.878C10.408,55.957 10.34,56.03 10.246,56.099L10.476,56.099L10.476,56.101ZM9.721,55.54C9.609,55.54 9.526,55.563 9.472,55.611C9.417,55.659 9.391,55.722 9.391,55.8C9.391,55.874 9.418,55.936 9.475,55.987C9.531,56.037 9.616,56.062 9.729,56.062C9.842,56.062 9.929,56.036 9.989,55.983C10.05,55.93 10.079,55.866 10.079,55.79C10.079,55.714 10.052,55.653 9.997,55.607C9.94,55.562 9.849,55.54 9.721,55.54Z" style="fill:white;fill-rule:nonzero;"/>
                                <path d="M11.104,57.377L11.104,57.682L8.883,57.142L8.883,56.841L11.104,57.377Z" style="fill:white;fill-rule:nonzero;"/>
                                <path d="M10.476,57.853L10.476,58.409L10.223,58.409C10.326,58.492 10.4,58.576 10.445,58.661C10.489,58.746 10.511,58.849 10.511,58.972C10.511,59.137 10.462,59.266 10.364,59.36C10.266,59.453 10.114,59.5 9.909,59.5L8.92,59.5L8.92,58.9L9.775,58.9C9.873,58.9 9.942,58.882 9.982,58.846C10.023,58.81 10.043,58.759 10.043,58.694C10.043,58.622 10.016,58.563 9.961,58.518C9.906,58.473 9.809,58.451 9.667,58.451L8.92,58.451L8.92,57.854L10.476,57.854L10.476,57.853Z" style="fill:white;fill-rule:nonzero;"/>
                            </g>
                        </g>
                        <g transform="matrix(-3.82857e-18,0.01,-0.01,-3.82857e-18,19,27.5)">
                            <path d="M-59.586,362.388L-59.586,222.066L297.033,222.066L297.033,81.653L-59.587,81.653C-137.163,81.653 -200,144.49 -200,222.066L-200,1000L-59.587,1000L-59.587,600.674L221.231,600.674L221.231,476.521L-59.586,476.521L-59.586,362.388Z" style="fill:white;fill-rule:nonzero;"/>
                            <path d="M938.019,730.976L938.019,730.806C882.847,803.745 796.094,851.674 697.542,851.674C530.519,851.674 395.076,716.319 395.076,549.126C395.076,382.098 530.518,246.66 697.542,246.66C796.093,246.66 882.846,294.501 938.019,367.528L1109.42,367.528C1039.51,209.261 881.669,98.5 697.542,98.5C448.562,98.5 246.833,300.311 246.833,549.291C246.833,798.188 448.65,1000 697.542,1000C881.751,1000 1039.51,889.239 1109.5,730.976L938.019,730.976Z" style="fill:white;fill-rule:nonzero;"/>
                            <path d="M694.257,418.655C734.603,418.655 770.147,437.353 794.155,466.075L954.526,466.075C919.151,355.484 816.642,274.792 694.257,274.792C542.733,274.792 419.84,397.681 419.84,549.209C419.84,700.82 542.733,823.708 694.257,823.708C816.641,823.708 919.064,743.021 954.444,632.425L794.069,632.425L794.069,632.261C770.149,660.983 734.522,679.681 694.258,679.681C622.244,679.681 563.787,621.311 563.787,549.128C563.786,477.108 622.243,418.655 694.257,418.655Z" style="fill:white;fill-rule:nonzero;"/>
                        </g>
                    </g>
                </g>
            </g>
        </g>
    </g>
</svg>
